<svg width="128" height="128" viewBox="0 0 128 128" fill="none" xmlns="http://www.w3.org/2000/svg">
<path d="M72.1127 74.0846C72.1127 64.71 73.5549 56.6577 76.4394 49.9269C79.3239 42.9563 83.0495 37.3071 87.6169 32.9804C92.1843 28.413 97.3521 25.1679 103.121 23.2452C109.131 21.0818 115.02 20.0001 120.789 20.0001L120.789 32.6198C114.539 32.6198 108.649 34.7832 103.121 39.11C97.8326 43.196 94.7083 48.8452 93.7465 56.0564C94.4676 55.8158 95.3086 55.576 96.2704 55.3353C96.9916 55.0946 97.8326 54.8549 98.7944 54.6142C99.9959 54.3735 101.318 54.2536 102.761 54.2536C109.972 54.2536 115.982 57.0182 120.789 62.5466C125.596 67.8352 128 74.0846 128 81.2959C128 88.5071 125.476 94.8774 120.428 100.406C115.621 105.694 109.131 108.338 100.958 108.338C91.8238 108.338 84.7324 104.973 79.6845 98.2424C74.6366 91.2718 72.1127 83.2186 72.1127 74.0846ZM2.99454e-06 74.0846C3.8141e-06 64.71 1.44227 56.6577 4.32677 49.9269C7.21128 42.9563 10.9368 37.3071 15.5042 32.9804C20.0717 28.4129 25.2394 25.1679 31.0085 23.2452C37.0182 21.0818 42.9071 20.0001 48.6761 20.0001L48.6761 32.6198C42.4266 32.6198 36.5368 34.7832 31.0085 39.11C25.7199 43.196 22.5956 48.8452 21.6338 56.0564C22.3549 55.8158 23.196 55.576 24.1578 55.3353C24.8789 55.0946 25.7199 54.8549 26.6817 54.6142C27.8833 54.3735 29.2056 54.2536 30.6479 54.2536C37.8592 54.2536 43.8688 57.0182 48.6761 62.5466C53.4833 67.8351 55.8873 74.0846 55.8873 81.2959C55.8873 88.5071 53.3634 94.8774 48.3155 100.406C43.5083 105.694 37.0181 108.338 28.8451 108.338C19.7111 108.338 12.6197 104.973 7.57183 98.2423C2.52394 91.2718 2.19602e-06 83.2186 2.99454e-06 74.0846Z" fill="url(#paint0_linear_12_638)"/>
<defs>
<linearGradient id="paint0_linear_12_638" x1="64" y1="20.0001" x2="64" y2="108.338" gradientUnits="userSpaceOnUse">
<stop stop-color="#8FA1B9"/>
<stop offset="1" stop-color="#CBD0DA"/>
</linearGradient>
</defs>
</svg>
