<svg width="128" height="128" viewBox="0 0 128 128" fill="none" xmlns="http://www.w3.org/2000/svg">
<path d="M55.8873 34.2535C55.8873 43.6282 54.4451 51.6805 51.5606 58.4113C48.6761 65.3819 44.9505 71.031 40.3831 75.3577C35.8157 79.9252 30.6479 83.1702 24.8789 85.093C18.8692 87.2563 12.9803 88.338 7.21127 88.338V75.7183C13.4607 75.7183 19.3505 73.5549 24.8789 69.2282C30.1674 65.1421 33.2917 59.493 34.2535 52.2817C33.5324 52.5224 32.6914 52.7621 31.7296 53.0028C31.0085 53.2435 30.1674 53.4833 29.2056 53.7239C28.0041 53.9646 26.6817 54.0845 25.2394 54.0845C18.0282 54.0845 12.0185 51.3199 7.21127 45.7915C2.40406 40.503 0 34.2535 0 27.0423C0 19.831 2.52394 13.4607 7.57183 7.93239C12.379 2.64383 18.8692 0 27.0423 0C36.1762 0 43.2676 3.36496 48.3155 10.0958C53.3634 17.0664 55.8873 25.1195 55.8873 34.2535ZM128 34.2535C128 43.6282 126.558 51.6805 123.673 58.4113C120.789 65.3819 117.063 71.031 112.496 75.3577C107.928 79.9252 102.761 83.1702 96.9915 85.093C90.9819 87.2563 85.093 88.338 79.3239 88.338V75.7183C85.5734 75.7183 91.4632 73.5549 96.9915 69.2282C102.28 65.1421 105.404 59.493 106.366 52.2817C105.645 52.5224 104.804 52.7621 103.842 53.0028C103.121 53.2435 102.28 53.4833 101.318 53.7239C100.117 53.9646 98.7944 54.0845 97.3521 54.0845C90.1408 54.0845 84.1312 51.3199 79.3239 45.7915C74.5167 40.503 72.1127 34.2535 72.1127 27.0423C72.1127 19.831 74.6366 13.4607 79.6845 7.93239C84.4917 2.64383 90.9819 0 99.1549 0C108.289 0 115.38 3.36496 120.428 10.0958C125.476 17.0664 128 25.1195 128 34.2535Z" fill="url(#paint0_linear_12_635)"/>
<defs>
<linearGradient id="paint0_linear_12_635" x1="64" y1="88.338" x2="64" y2="0" gradientUnits="userSpaceOnUse">
<stop stop-color="#8FA1B9"/>
<stop offset="1" stop-color="#CBD0DA"/>
</linearGradient>
</defs>
</svg>
