<svg width="101" height="101" viewBox="0 0 101 101" fill="none" xmlns="http://www.w3.org/2000/svg">
<mask id="mask0_12_552" style="mask-type:alpha" maskUnits="userSpaceOnUse" x="0" y="0" width="101" height="101">
<path d="M50.5001 99.317C77.461 99.317 99.3171 77.4609 99.3171 50.5C99.3171 23.5392 77.461 1.68304 50.5001 1.68304C23.5392 1.68304 1.68311 23.5392 1.68311 50.5C1.68311 77.4609 23.5392 99.317 50.5001 99.317Z" fill="#C4C4C4" stroke="#F8BB54" stroke-width="1.54456"/>
</mask>
<g mask="url(#mask0_12_552)">
<path d="M-27.7666 21.7594C-27.7666 21.7594 -4.71725 17.4894 1.23042 2.54576C6.91793 -11.7801 30.3472 -15.6311 30.3472 -15.6311" stroke="#8FA1B9" stroke-width="1.73643" stroke-miterlimit="10"/>
<path d="M-27.7666 28.9426C-27.7666 28.9426 0.512097 24.0133 7.79665 5.97614C14.7412 -11.2422 43.4597 -15.632 43.4597 -15.632" stroke="#8FA1B9" stroke-width="1.73643" stroke-miterlimit="10"/>
<path d="M-27.7666 36.1451C-27.7666 36.1451 5.71996 30.5382 14.3422 9.4489C22.5645 -10.7225 56.5707 -15.6311 56.5707 -15.6311" stroke="#8FA1B9" stroke-width="1.73643" stroke-miterlimit="10"/>
<path d="M-27.7666 43.3276C-27.7666 43.3276 10.9493 37.063 20.9076 12.8809C30.3871 -10.1838 69.6824 -15.6311 69.6824 -15.6311" stroke="#8FA1B9" stroke-width="1.73643" stroke-miterlimit="10"/>
<path d="M-27.7666 50.5109C-27.7666 50.5109 16.1779 43.587 27.4739 16.3321C38.2104 -9.64582 82.7742 -15.6311 82.7742 -15.6311" stroke="#8FA1B9" stroke-width="1.73643" stroke-miterlimit="10"/>
<path d="M-27.7666 57.7133C-27.7666 57.7133 21.3865 50.131 34.0201 19.784C46.0536 -9.12627 95.8859 -15.6311 95.8859 -15.6311" stroke="#8FA1B9" stroke-width="1.73643" stroke-miterlimit="10"/>
<path d="M-27.7666 64.8958C-27.7666 64.8958 26.6159 56.6358 40.5848 23.236C53.8762 -8.58829 108.997 -15.6311 108.997 -15.6311" stroke="#8FA1B9" stroke-width="1.73643" stroke-miterlimit="10"/>
<path d="M-27.7666 72.0791C-27.7666 72.0791 31.8437 63.1606 47.1311 26.668C61.6995 -8.04955 122.109 -15.6311 122.109 -15.6311" stroke="#8FA1B9" stroke-width="1.73643" stroke-miterlimit="10"/>
<path d="M-27.7666 79.2815C-27.7666 79.2815 37.0531 69.7046 53.6974 30.1391C69.5228 -7.53075 135.201 -15.6311 135.201 -15.6311" stroke="#8FA1B9" stroke-width="1.73643" stroke-miterlimit="10"/>
<path d="M-27.7666 86.464C-27.7666 86.464 42.2809 76.2294 60.2429 33.5911C77.3461 -6.99124 148.312 -15.6311 148.312 -15.6311" stroke="#8FA1B9" stroke-width="1.73643" stroke-miterlimit="10"/>
<path d="M-27.7666 93.6664C-27.7666 93.6664 47.5102 82.7534 66.8091 37.043C85.1686 -6.45326 161.424 -15.6311 161.424 -15.6311" stroke="#8FA1B9" stroke-width="1.73643" stroke-miterlimit="10"/>
<path d="M-27.7666 100.85C-27.7666 100.85 52.7181 89.2782 73.3546 40.495C92.9919 -5.93447 174.536 -15.6311 174.536 -15.6311" stroke="#8FA1B9" stroke-width="1.73643" stroke-miterlimit="10"/>
<path d="M-27.7666 108.032C-27.7666 108.032 57.9474 95.8023 79.9201 43.9263C100.815 -5.39564 187.647 -15.6302 187.647 -15.6302" stroke="#8FA1B9" stroke-width="1.73643" stroke-miterlimit="10"/>
<path d="M-27.7666 115.235C-27.7666 115.235 63.1768 102.327 86.4855 47.3981C108.638 -4.85699 200.738 -15.6311 200.738 -15.6311" stroke="#8FA1B9" stroke-width="1.73643" stroke-miterlimit="10"/>
<path d="M-27.7666 122.419C-27.7666 122.419 68.3854 108.851 93.0318 50.8302C116.461 -4.33811 213.851 -15.6302 213.851 -15.6302" stroke="#8FA1B9" stroke-width="1.73643" stroke-miterlimit="10"/>
<path d="M-27.7666 129.602C-27.7666 129.602 73.614 115.375 99.598 54.2813C124.284 -3.79868 226.963 -15.6311 226.963 -15.6311" stroke="#8FA1B9" stroke-width="1.73643" stroke-miterlimit="10"/>
<path d="M-27.7666 136.804C-27.7666 136.804 78.8418 121.919 106.144 57.7334C132.108 -3.26062 240.074 -15.6302 240.074 -15.6302" stroke="#8FA1B9" stroke-width="1.73643" stroke-miterlimit="10"/>
<path d="M-27.7666 143.987C-27.7666 143.987 84.0512 128.424 112.709 61.1852C139.931 -2.74269 253.166 -15.6311 253.166 -15.6311" stroke="#8FA1B9" stroke-width="1.73643" stroke-miterlimit="10"/>
</g>
</svg>
