<svg width="99" height="61" viewBox="0 0 99 61" fill="none" xmlns="http://www.w3.org/2000/svg">
<mask id="mask0_12_546" style="mask-type:luminance" maskUnits="userSpaceOnUse" x="0" y="0" width="99" height="61">
<path d="M0 0.0603027H98.9094V61H0V0.0603027Z" fill="white"/>
</mask>
<g mask="url(#mask0_12_546)">
<path d="M97.1558 61C97.6209 61 98.067 60.8135 98.3959 60.4817C98.7248 60.1498 98.9095 59.6997 98.9095 59.2303C98.9095 58.761 98.7248 58.3108 98.3959 57.979C98.067 57.6471 97.6209 57.4606 97.1558 57.4606C96.6906 57.4606 96.2445 57.6471 95.9156 57.979C95.5867 58.3108 95.402 58.761 95.402 59.2303C95.402 59.6997 95.5867 60.1498 95.9156 60.4817C96.2445 60.8135 96.6906 61 97.1558 61ZM81.2521 61C81.7172 61 82.1633 60.8135 82.4922 60.4817C82.8211 60.1498 83.0059 59.6997 83.0059 59.2303C83.0059 58.761 82.8211 58.3108 82.4922 57.979C82.1633 57.6471 81.7172 57.4606 81.2521 57.4606C80.787 57.4606 80.3409 57.6471 80.012 57.979C79.6831 58.3108 79.4983 58.761 79.4983 59.2303C79.4983 59.6997 79.6831 60.1498 80.012 60.4817C80.3409 60.8135 80.787 61 81.2521 61ZM65.3551 61C65.5891 61.0054 65.8217 60.9636 66.0395 60.8772C66.2573 60.7908 66.4558 60.6615 66.6235 60.4968C66.7911 60.332 66.9245 60.1352 67.0159 59.9178C67.1073 59.7005 67.1548 59.4669 67.1557 59.2308C67.1566 58.9947 67.1108 58.7607 67.0211 58.5427C66.9313 58.3246 66.7994 58.1268 66.6329 57.9608C66.4665 57.7948 66.269 57.6639 66.0519 57.5759C65.8347 57.4878 65.6024 57.4443 65.3684 57.4479C64.9074 57.455 64.4675 57.6444 64.1434 57.9752C63.8192 58.3061 63.6366 58.7521 63.6349 59.2174C63.6332 59.6826 63.8124 60.13 64.1341 60.4633C64.4557 60.7967 64.8942 60.9894 65.3551 61ZM49.4581 61C49.925 61 50.3728 60.8128 50.7029 60.4797C51.0331 60.1466 51.2186 59.6947 51.2186 59.2236C51.2186 58.7525 51.0331 58.3007 50.7029 57.9675C50.3728 57.6344 49.925 57.4472 49.4581 57.4472C48.9912 57.4472 48.5435 57.6344 48.2133 57.9675C47.8832 58.3007 47.6977 58.7525 47.6977 59.2236C47.6977 59.6947 47.8832 60.1466 48.2133 60.4797C48.5435 60.8128 48.9912 61 49.4581 61ZM33.5545 61C34.0196 61 34.4657 60.8135 34.7946 60.4817C35.1235 60.1498 35.3083 59.6997 35.3083 59.2303C35.3083 58.761 35.1235 58.3108 34.7946 57.979C34.4657 57.6471 34.0196 57.4606 33.5545 57.4606C33.0894 57.4606 32.6433 57.6471 32.3144 57.979C31.9855 58.3108 31.8007 58.761 31.8007 59.2303C31.8007 59.6997 31.9855 60.1498 32.3144 60.4817C32.6433 60.8135 33.0894 61 33.5545 61ZM18.3285 60.7895C18.5415 60.7011 18.7352 60.5713 18.8985 60.4073C19.0618 60.2434 19.1915 60.0487 19.2802 59.8342C19.3689 59.6197 19.4149 59.3896 19.4155 59.1572C19.4161 58.9248 19.3713 58.6945 19.2838 58.4795C19.1962 58.2646 19.0675 58.0691 18.905 57.9043C18.7426 57.7396 18.5496 57.6087 18.337 57.5192C18.1244 57.4297 17.8965 57.3833 17.6661 57.3827C17.4358 57.3821 17.2076 57.4272 16.9945 57.5156C16.5688 57.6972 16.2313 58.041 16.0555 58.4722C15.8796 58.9035 15.8795 59.3874 16.0553 59.8187C16.2311 60.25 16.5685 60.5939 16.9941 60.7755C17.4198 60.9572 17.8993 60.9627 18.3285 60.7895ZM1.76053 57.4808C1.52543 57.4734 1.29125 57.5137 1.07182 57.5992C0.852402 57.6847 0.652184 57.8137 0.482997 57.9785C0.31381 58.1434 0.179085 58.3409 0.0867784 58.5592C-0.00552782 58.7775 -0.0535429 59.0122 -0.0544308 59.2496C-0.0553187 59.4869 -0.00906154 59.722 0.0816086 59.941C0.172279 60.16 0.305523 60.3585 0.473472 60.5246C0.64142 60.6908 0.840667 60.8213 1.05944 60.9085C1.27822 60.9957 1.51209 61.0377 1.74724 61.0322C2.20571 61.0213 2.6419 60.8304 2.96297 60.4999C3.28405 60.1695 3.46467 59.7257 3.4664 59.263C3.46813 58.8002 3.29084 58.3551 2.97224 58.0222C2.65365 57.6894 2.21891 57.4951 1.76053 57.4808ZM97.1558 46.6482C97.6209 46.6482 98.067 46.4618 98.3959 46.1299C98.7248 45.798 98.9095 45.3479 98.9095 44.8786C98.9095 44.4092 98.7248 43.9591 98.3959 43.6272C98.067 43.2953 97.6209 43.1089 97.1558 43.1089C96.6906 43.1089 96.2445 43.2953 95.9156 43.6272C95.5867 43.9591 95.402 44.4092 95.402 44.8786C95.402 45.3479 95.5867 45.798 95.9156 46.1299C96.2445 46.4618 96.6906 46.6482 97.1558 46.6482ZM81.2521 46.6482C81.7172 46.6482 82.1633 46.4618 82.4922 46.1299C82.8211 45.798 83.0059 45.3479 83.0059 44.8786C83.0059 44.4092 82.8211 43.9591 82.4922 43.6272C82.1633 43.2953 81.7172 43.1089 81.2521 43.1089C80.787 43.1089 80.3409 43.2953 80.012 43.6272C79.6831 43.9591 79.4983 44.4092 79.4983 44.8786C79.4983 45.3479 79.6831 45.798 80.012 46.1299C80.3409 46.4618 80.787 46.6482 81.2521 46.6482ZM65.3551 46.6482C65.7036 46.649 66.0445 46.5454 66.3347 46.3506C66.6248 46.1558 66.8512 45.8786 66.9852 45.5539C67.1191 45.2293 67.1547 44.8719 67.0873 44.5269C67.02 44.1818 66.8527 43.8647 66.6067 43.6157C66.4222 43.4298 66.1991 43.2875 65.9536 43.1992C65.708 43.1108 65.4461 43.0786 65.1867 43.1047C64.9273 43.1309 64.6768 43.2148 64.4535 43.3505C64.2301 43.4861 64.0393 43.6701 63.895 43.8891C63.7191 44.1563 63.6183 44.4665 63.6031 44.7869C63.5879 45.1072 63.6589 45.4257 63.8086 45.7086C63.9583 45.9915 64.1811 46.2283 64.4534 46.3937C64.7257 46.5591 65.0373 46.6471 65.3551 46.6482ZM49.4581 46.6482C49.8066 46.6482 50.1472 46.5439 50.4369 46.3484C50.7265 46.1529 50.9521 45.8751 51.0852 45.5501C51.2182 45.2251 51.2527 44.8676 51.1842 44.5228C51.1158 44.1781 50.9474 43.8616 50.7006 43.6134C50.4537 43.3652 50.1394 43.1966 49.7975 43.1288C49.4556 43.061 49.1014 43.0971 48.7798 43.2326C48.4583 43.3681 48.1838 43.5968 47.9912 43.8898C47.7985 44.1828 47.6964 44.5269 47.6977 44.8786C47.6977 45.1115 47.7433 45.3422 47.8318 45.5573C47.9204 45.7725 48.0502 45.9679 48.2137 46.1323C48.3773 46.2967 48.5714 46.4269 48.785 46.5154C48.9985 46.604 49.2273 46.6491 49.4581 46.6482ZM33.5545 46.6482C34.0196 46.6482 34.4657 46.4618 34.7946 46.1299C35.1235 45.798 35.3083 45.3479 35.3083 44.8786C35.3083 44.4092 35.1235 43.9591 34.7946 43.6272C34.4657 43.2953 34.0196 43.1089 33.5545 43.1089C33.0894 43.1089 32.6433 43.2953 32.3144 43.6272C31.9855 43.9591 31.8007 44.4092 31.8007 44.8786C31.8007 45.3479 31.9855 45.798 32.3144 46.1299C32.6433 46.4618 33.0894 46.6482 33.5545 46.6482ZM18.3305 46.4424C18.5456 46.3556 18.7416 46.2266 18.9071 46.0629C19.0726 45.8992 19.2043 45.704 19.2946 45.4886C19.3848 45.2732 19.4319 45.0419 19.4331 44.8081C19.4342 44.5743 19.3894 44.3425 19.3013 44.1262C19.2132 43.9099 19.0834 43.7134 18.9196 43.5481C18.7557 43.3827 18.561 43.2517 18.3467 43.1627C18.1324 43.0737 17.9027 43.0285 17.671 43.0296C17.4392 43.0307 17.21 43.0782 16.9965 43.1692C16.5708 43.3508 16.2333 43.6946 16.0575 44.1258C15.8816 44.5571 15.8815 45.041 16.0573 45.4723C16.2331 45.9036 16.5705 46.2475 16.9961 46.4291C17.4218 46.6108 17.9013 46.6156 18.3305 46.4424ZM1.76053 46.6482C2.10899 46.6482 2.44961 46.5439 2.73925 46.3484C3.0289 46.1529 3.25453 45.8751 3.38758 45.5501C3.52062 45.2251 3.55509 44.8676 3.48663 44.5228C3.41816 44.1781 3.24983 43.8616 3.00297 43.6134C2.7561 43.3652 2.4418 43.1966 2.09988 43.1288C1.75795 43.061 1.40378 43.0971 1.08222 43.2326C0.760666 43.3681 0.486187 43.5968 0.29355 43.8898C0.100913 44.1828 -0.0012159 44.5269 9.9048e-05 44.8786C9.7394e-05 45.1115 0.0456796 45.3422 0.134231 45.5573C0.222782 45.7725 0.352559 45.9679 0.516117 46.1323C0.679675 46.2967 0.873796 46.4269 1.08734 46.5154C1.30089 46.604 1.52966 46.6491 1.76053 46.6482ZM97.1558 32.2965C97.6209 32.2965 98.067 32.11 98.3959 31.7781C98.7248 31.4463 98.9095 30.9961 98.9095 30.5268C98.9095 30.0574 98.7248 29.6073 98.3959 29.2754C98.067 28.9436 97.6209 28.7571 97.1558 28.7571C96.6906 28.7571 96.2445 28.9436 95.9156 29.2754C95.5867 29.6073 95.402 30.0574 95.402 30.5268C95.402 30.9961 95.5867 31.4463 95.9156 31.7781C96.2445 32.11 96.6906 32.2965 97.1558 32.2965ZM81.2521 32.2965C81.7172 32.2965 82.1633 32.11 82.4922 31.7781C82.8211 31.4463 83.0059 30.9961 83.0059 30.5268C83.0059 30.0574 82.8211 29.6073 82.4922 29.2754C82.1633 28.9436 81.7172 28.7571 81.2521 28.7571C80.787 28.7571 80.3409 28.9436 80.012 29.2754C79.6831 29.6073 79.4983 30.0574 79.4983 30.5268C79.4983 30.9961 79.6831 31.4463 80.012 31.7781C80.3409 32.11 80.787 32.2965 81.2521 32.2965ZM65.3551 32.3032C65.5891 32.3086 65.8217 32.2668 66.0395 32.1804C66.2573 32.094 66.4558 31.9647 66.6235 31.7999C66.7911 31.6352 66.9245 31.4384 67.0159 31.221C67.1073 31.0037 67.1548 30.7701 67.1557 30.534C67.1566 30.2978 67.1108 30.0639 67.0211 29.8458C66.9313 29.6278 66.7994 29.43 66.6329 29.264C66.4665 29.098 66.269 28.9671 66.0519 28.879C65.8347 28.791 65.6024 28.7475 65.3684 28.7511C64.9074 28.7582 64.4675 28.9475 64.1434 29.2784C63.8192 29.6093 63.6366 30.0553 63.6349 30.5205C63.6332 30.9858 63.8124 31.4332 64.1341 31.7665C64.4557 32.0999 64.8942 32.2925 65.3551 32.3032ZM49.4581 32.3032C49.925 32.3032 50.3728 32.116 50.7029 31.7829C51.0331 31.4497 51.2186 30.9979 51.2186 30.5268C51.2186 30.0557 51.0331 29.6038 50.7029 29.2707C50.3728 28.9376 49.925 28.7504 49.4581 28.7504C48.9912 28.7504 48.5435 28.9376 48.2133 29.2707C47.8832 29.6038 47.6977 30.0557 47.6977 30.5268C47.6977 30.9979 47.8832 31.4497 48.2133 31.7829C48.5435 32.116 48.9912 32.3032 49.4581 32.3032ZM33.5545 32.2965C34.0196 32.2965 34.4657 32.11 34.7946 31.7781C35.1235 31.4463 35.3083 30.9961 35.3083 30.5268C35.3083 30.0574 35.1235 29.6073 34.7946 29.2754C34.4657 28.9436 34.0196 28.7571 33.5545 28.7571C33.0894 28.7571 32.6433 28.9436 32.3144 29.2754C31.9855 29.6073 31.8007 30.0574 31.8007 30.5268C31.8007 30.9961 31.9855 31.4463 32.3144 31.7781C32.6433 32.11 33.0894 32.2965 33.5545 32.2965ZM18.3291 32.096C18.5443 32.0092 18.7403 31.8802 18.9058 31.7165C19.0713 31.5528 19.203 31.3576 19.2932 31.1422C19.3835 30.9268 19.4306 30.6955 19.4317 30.4617C19.4329 30.2279 19.3881 29.9961 19.3 29.7798C19.2118 29.5635 19.0821 29.367 18.9182 29.2017C18.7544 29.0363 18.5597 28.9053 18.3454 28.8163C18.131 28.7274 17.9014 28.6821 17.6696 28.6832C17.4379 28.6843 17.2087 28.7318 16.9952 28.8228C16.5695 29.0044 16.232 29.3482 16.0561 29.7794C15.8803 30.2107 15.8802 30.6946 16.056 31.1259C16.2318 31.5572 16.5691 31.9011 16.9948 32.0828C17.4205 32.2644 17.9 32.2692 18.3291 32.096ZM1.76053 32.3032C2.22742 32.3032 2.67519 32.116 3.00534 31.7829C3.33548 31.4497 3.52095 30.9979 3.52095 30.5268C3.52095 30.0557 3.33548 29.6038 3.00534 29.2707C2.67519 28.9376 2.22742 28.7504 1.76053 28.7504C1.29363 28.7504 0.84586 28.9376 0.515716 29.2707C0.185572 29.6038 9.9048e-05 30.0557 9.9048e-05 30.5268C9.9048e-05 30.9979 0.185572 31.4497 0.515716 31.7829C0.84586 32.116 1.29363 32.3032 1.76053 32.3032ZM97.1558 17.9514C97.6209 17.9514 98.067 17.765 98.3959 17.4331C98.7248 17.1012 98.9095 16.6511 98.9095 16.1817C98.9095 15.7124 98.7248 15.2623 98.3959 14.9304C98.067 14.5985 97.6209 14.4121 97.1558 14.4121C96.6906 14.4121 96.2445 14.5985 95.9156 14.9304C95.5867 15.2623 95.402 15.7124 95.402 16.1817C95.402 16.6511 95.5867 17.1012 95.9156 17.4331C96.2445 17.765 96.6906 17.9514 97.1558 17.9514ZM81.2521 17.9514C81.7172 17.9514 82.1633 17.765 82.4922 17.4331C82.8211 17.1012 83.0059 16.6511 83.0059 16.1817C83.0059 15.7124 82.8211 15.2623 82.4922 14.9304C82.1633 14.5985 81.7172 14.4121 81.2521 14.4121C80.787 14.4121 80.3409 14.5985 80.012 14.9304C79.6831 15.2623 79.4983 15.7124 79.4983 16.1817C79.4983 16.6511 79.6831 17.1012 80.012 17.4331C80.3409 17.765 80.787 17.9514 81.2521 17.9514ZM65.3551 17.9313C65.5864 17.9322 65.8155 17.8871 66.0294 17.7986C66.2434 17.7101 66.438 17.58 66.6021 17.4157C66.7662 17.2513 66.8967 17.0559 66.986 16.8407C67.0752 16.6255 67.1217 16.3946 67.1225 16.1613C67.1234 15.928 67.0787 15.6968 66.991 15.4809C66.9034 15.265 66.7744 15.0686 66.6115 14.903C66.4486 14.7374 66.255 14.6058 66.0417 14.5157C65.8284 14.4256 65.5996 14.3788 65.3684 14.3779C64.9014 14.3761 64.4529 14.5616 64.1214 14.8935C63.79 15.2255 63.6028 15.6767 63.601 16.1479C63.5993 16.6191 63.7831 17.0717 64.112 17.4062C64.441 17.7406 64.8881 17.9295 65.3551 17.9313ZM49.4581 17.9313C49.8066 17.9313 50.1472 17.8269 50.4369 17.6315C50.7265 17.436 50.9521 17.1581 51.0852 16.8332C51.2182 16.5082 51.2527 16.1507 51.1842 15.8059C51.1158 15.4611 50.9474 15.1446 50.7006 14.8965C50.4537 14.6483 50.1394 14.4797 49.7975 14.4119C49.4556 14.3441 49.1014 14.3802 48.7798 14.5157C48.4583 14.6512 48.1838 14.8799 47.9912 15.1729C47.7985 15.4659 47.6964 15.81 47.6977 16.1616C47.6977 16.3946 47.7433 16.6253 47.8318 16.8404C47.9204 17.0555 48.0502 17.2509 48.2137 17.4153C48.3773 17.5798 48.5714 17.71 48.785 17.7985C48.9985 17.8871 49.2273 17.9322 49.4581 17.9313ZM33.5545 17.9514C34.0196 17.9514 34.4657 17.765 34.7946 17.4331C35.1235 17.1012 35.3083 16.6511 35.3083 16.1817C35.3083 15.7124 35.1235 15.2623 34.7946 14.9304C34.4657 14.5985 34.0196 14.4121 33.5545 14.4121C33.0894 14.4121 32.6433 14.5985 32.3144 14.9304C31.9855 15.2623 31.8007 15.7124 31.8007 16.1817C31.8007 16.6511 31.9855 17.1012 32.3144 17.4331C32.6433 17.765 33.0894 17.9514 33.5545 17.9514ZM18.3305 17.7503C18.5435 17.662 18.7372 17.5322 18.9005 17.3683C19.0638 17.2044 19.1936 17.0097 19.2823 16.7952C19.3711 16.5807 19.4171 16.3507 19.4177 16.1183C19.4183 15.8859 19.3736 15.6557 19.2861 15.4407C19.1985 15.2257 19.0699 15.0303 18.9075 14.8655C18.7451 14.7007 18.5521 14.5698 18.3395 14.4802C18.127 14.3907 17.8991 14.3443 17.6687 14.3436C17.4384 14.3429 17.2102 14.3881 16.9972 14.4764C16.5715 14.658 16.234 15.0018 16.0581 15.433C15.8823 15.8643 15.8822 16.3482 16.058 16.7795C16.2337 17.2108 16.5711 17.5547 16.9968 17.7364C17.4225 17.918 17.902 17.9228 18.3311 17.7496L18.3305 17.7503ZM1.76053 17.9313C2.10899 17.9313 2.44961 17.8269 2.73925 17.6315C3.0289 17.436 3.25453 17.1581 3.38758 16.8332C3.52062 16.5082 3.55509 16.1507 3.48663 15.8059C3.41816 15.4611 3.24983 15.1446 3.00297 14.8965C2.7561 14.6483 2.4418 14.4797 2.09988 14.4119C1.75795 14.3441 1.40378 14.3802 1.08222 14.5157C0.760666 14.6512 0.486187 14.8799 0.29355 15.1729C0.100913 15.4659 -0.0012159 15.81 9.9048e-05 16.1616C9.7394e-05 16.3946 0.0456796 16.6253 0.134231 16.8404C0.222782 17.0555 0.352559 17.2509 0.516117 17.4153C0.679675 17.5798 0.873796 17.71 1.08734 17.7985C1.30089 17.8871 1.52966 17.9322 1.76053 17.9313ZM97.1558 3.59965C97.6209 3.59965 98.067 3.4132 98.3959 3.08132C98.7248 2.74945 98.9095 2.29932 98.9095 1.82998C98.9095 1.36063 98.7248 0.91051 98.3959 0.578632C98.067 0.246755 97.6209 0.0603077 97.1558 0.0603077C96.6906 0.0603077 96.2445 0.246755 95.9156 0.578632C95.5867 0.91051 95.402 1.36063 95.402 1.82998C95.402 2.29932 95.5867 2.74945 95.9156 3.08132C96.2445 3.4132 96.6906 3.59965 97.1558 3.59965ZM81.2521 3.59965C81.7172 3.59965 82.1633 3.4132 82.4922 3.08132C82.8211 2.74945 83.0059 2.29932 83.0059 1.82998C83.0059 1.36063 82.8211 0.91051 82.4922 0.578632C82.1633 0.246755 81.7172 0.0603077 81.2521 0.0603077C80.787 0.0603077 80.3409 0.246755 80.012 0.578632C79.6831 0.91051 79.4983 1.36063 79.4983 1.82998C79.4983 2.29932 79.6831 2.74945 80.012 3.08132C80.3409 3.4132 80.787 3.59965 81.2521 3.59965ZM65.3551 3.60635C65.5863 3.60723 65.8154 3.56216 66.0293 3.4737C66.2432 3.38524 66.4378 3.25513 66.6019 3.0908C66.766 2.92647 66.8964 2.73114 66.9857 2.51596C67.0749 2.30078 67.1213 2.06996 67.1222 1.83668C67.1231 1.6034 67.0784 1.37224 66.9907 1.15638C66.9031 0.940526 66.7741 0.744206 66.6113 0.578632C66.4484 0.413058 66.2549 0.281472 66.0416 0.191388C65.8283 0.101304 65.5996 0.0544847 65.3684 0.0536044C64.9015 0.0518266 64.453 0.237275 64.1217 0.569152C63.7903 0.90103 63.6031 1.35215 63.6013 1.82327C63.5996 2.2944 63.7834 2.74693 64.1123 3.08132C64.4412 3.41572 64.8882 3.60457 65.3551 3.60635ZM49.4581 3.60635C49.925 3.60635 50.3728 3.4192 50.7029 3.08606C51.0331 2.75293 51.2186 2.3011 51.2186 1.82998C51.2186 1.35885 51.0331 0.907027 50.7029 0.573892C50.3728 0.240757 49.925 0.0536044 49.4581 0.0536044C48.9912 0.0536044 48.5435 0.240757 48.2133 0.573892C47.8832 0.907027 47.6977 1.35885 47.6977 1.82998C47.6977 2.3011 47.8832 2.75293 48.2133 3.08606C48.5435 3.4192 48.9912 3.60635 49.4581 3.60635ZM33.5545 3.59965C34.0196 3.59965 34.4657 3.4132 34.7946 3.08132C35.1235 2.74945 35.3083 2.29932 35.3083 1.82998C35.3083 1.36063 35.1235 0.91051 34.7946 0.578632C34.4657 0.246755 34.0196 0.0603077 33.5545 0.0603077C33.0894 0.0603077 32.6433 0.246755 32.3144 0.578632C31.9855 0.91051 31.8007 1.36063 31.8007 1.82998C31.8007 2.29932 31.9855 2.74945 32.3144 3.08132C32.6433 3.4132 33.0894 3.59965 33.5545 3.59965ZM18.3298 3.39654C18.5463 3.31068 18.7437 3.18223 18.9105 3.01867C19.0773 2.85511 19.2102 2.6597 19.3014 2.44382C19.3927 2.22794 19.4405 1.99589 19.442 1.7612C19.4435 1.52651 19.3988 1.29385 19.3104 1.07677C19.2219 0.859695 19.0916 0.662533 18.9269 0.496765C18.7623 0.330996 18.5666 0.199932 18.3513 0.111202C18.1359 0.0224715 17.9053 -0.0221523 17.6727 -0.0200721C17.4401 -0.0179918 17.2103 0.0307508 16.9965 0.123319C16.5734 0.306565 16.2387 0.650362 16.0646 1.08049C15.8905 1.51061 15.8911 1.99256 16.0661 2.42228C16.2412 2.85201 16.5767 3.19504 17.0002 3.37732C17.4237 3.5596 17.9013 3.5665 18.3298 3.39654ZM1.76053 3.60635C2.22742 3.60635 2.67519 3.4192 3.00534 3.08606C3.33548 2.75293 3.52095 2.3011 3.52095 1.82998C3.52095 1.35885 3.33548 0.907027 3.00534 0.573892C2.67519 0.240757 2.22742 0.0536044 1.76053 0.0536044C1.29363 0.0536044 0.84586 0.240757 0.515716 0.573892C0.185572 0.907027 9.9048e-05 1.35885 9.9048e-05 1.82998C9.9048e-05 2.3011 0.185572 2.75293 0.515716 3.08606C0.84586 3.4192 1.29363 3.60635 1.76053 3.60635Z" fill="#252E40"/>
</g>
</svg>
