<svg width="64" height="64" viewBox="0 0 64 64" fill="none" xmlns="http://www.w3.org/2000/svg">
<mask id="mask0_31_696" style="mask-type:luminance" maskUnits="userSpaceOnUse" x="0" y="12" width="64" height="40">
<path d="M0 12.4565H63.9528V51.5051H0V12.4565Z" fill="white"/>
</mask>
<g mask="url(#mask0_31_696)">
<path d="M62.8189 51.5049C63.1196 51.5049 63.4081 51.3855 63.6207 51.1728C63.8334 50.9601 63.9529 50.6717 63.9529 50.371C63.9529 50.0702 63.8334 49.7818 63.6207 49.5691C63.4081 49.3565 63.1196 49.237 62.8189 49.237C62.5182 49.237 62.2297 49.3565 62.0171 49.5691C61.8044 49.7818 61.6849 50.0702 61.6849 50.371C61.6849 50.6717 61.8044 50.9601 62.0171 51.1728C62.2297 51.3855 62.5182 51.5049 62.8189 51.5049ZM52.5359 51.5049C52.8367 51.5049 53.1251 51.3855 53.3378 51.1728C53.5504 50.9601 53.6699 50.6717 53.6699 50.371C53.6699 50.0702 53.5504 49.7818 53.3378 49.5691C53.1251 49.3565 52.8367 49.237 52.5359 49.237C52.2352 49.237 51.9468 49.3565 51.7341 49.5691C51.5215 49.7818 51.402 50.0702 51.402 50.371C51.402 50.6717 51.5215 50.9601 51.7341 51.1728C51.9468 51.3855 52.2352 51.5049 52.5359 51.5049ZM42.2573 51.5049C42.4086 51.5084 42.559 51.4816 42.6998 51.4263C42.8406 51.3709 42.969 51.288 43.0774 51.1825C43.1858 51.0769 43.272 50.9508 43.3311 50.8115C43.3902 50.6722 43.421 50.5226 43.4215 50.3713C43.4221 50.22 43.3925 50.0701 43.3345 49.9303C43.2764 49.7906 43.1911 49.6639 43.0835 49.5575C42.9759 49.4511 42.8482 49.3673 42.7078 49.3108C42.5674 49.2544 42.4172 49.2265 42.2659 49.2288C41.9678 49.2334 41.6834 49.3547 41.4738 49.5667C41.2642 49.7788 41.1462 50.0645 41.145 50.3627C41.1439 50.6608 41.2598 50.9475 41.4678 51.1611C41.6758 51.3747 41.9592 51.4981 42.2573 51.5049ZM31.9786 51.5049C32.2805 51.5049 32.57 51.385 32.7835 51.1715C32.997 50.9581 33.1169 50.6686 33.1169 50.3667C33.1169 50.0648 32.997 49.7753 32.7835 49.5618C32.57 49.3483 32.2805 49.2284 31.9786 49.2284C31.6767 49.2284 31.3872 49.3483 31.1738 49.5618C30.9603 49.7753 30.8404 50.0648 30.8404 50.3667C30.8404 50.6686 30.9603 50.9581 31.1738 51.1715C31.3872 51.385 31.6767 51.5049 31.9786 51.5049ZM21.6957 51.5049C21.9964 51.5049 22.2849 51.3855 22.4975 51.1728C22.7102 50.9601 22.8296 50.6717 22.8296 50.371C22.8296 50.0702 22.7102 49.7818 22.4975 49.5691C22.2849 49.3565 21.9964 49.237 21.6957 49.237C21.3949 49.237 21.1065 49.3565 20.8939 49.5691C20.6812 49.7818 20.5617 50.0702 20.5617 50.371C20.5617 50.6717 20.6812 50.9601 20.8939 51.1728C21.1065 51.3855 21.3949 51.5049 21.6957 51.5049ZM11.8508 51.3701C11.9886 51.3134 12.1138 51.2302 12.2194 51.1252C12.325 51.0201 12.4089 50.8953 12.4662 50.7579C12.5236 50.6205 12.5533 50.4731 12.5537 50.3241C12.5541 50.1752 12.5251 50.0276 12.4685 49.8899C12.4119 49.7521 12.3287 49.6269 12.2236 49.5213C12.1186 49.4157 11.9938 49.3319 11.8564 49.2745C11.7189 49.2172 11.5715 49.1874 11.4226 49.187C11.2736 49.1866 11.1261 49.2156 10.9884 49.2722C10.7131 49.3886 10.4949 49.6089 10.3812 49.8852C10.2675 50.1616 10.2674 50.4716 10.3811 50.748C10.4947 51.0244 10.7129 51.2447 10.9881 51.3611C11.2633 51.4775 11.5734 51.481 11.8508 51.3701ZM1.13836 49.2499C0.986353 49.2452 0.834939 49.271 0.693065 49.3258C0.551191 49.3806 0.421734 49.4632 0.312341 49.5689C0.202949 49.6745 0.115838 49.801 0.0561547 49.9409C-0.0035285 50.0808 -0.034574 50.2312 -0.0351481 50.3833C-0.0357223 50.5354 -0.00581332 50.686 0.0528121 50.8264C0.111438 50.9667 0.197591 51.0939 0.306183 51.2003C0.414775 51.3068 0.543603 51.3905 0.68506 51.4463C0.826516 51.5022 0.977731 51.5291 1.12977 51.5255C1.42621 51.5186 1.70824 51.3962 1.91584 51.1845C2.12344 50.9728 2.24023 50.6884 2.24135 50.3919C2.24247 50.0954 2.12783 49.8101 1.92183 49.5968C1.71584 49.3836 1.43474 49.2591 1.13836 49.2499ZM62.8189 42.3087C63.1196 42.3087 63.4081 42.1892 63.6207 41.9766C63.8334 41.7639 63.9529 41.4755 63.9529 41.1747C63.9529 40.874 63.8334 40.5856 63.6207 40.3729C63.4081 40.1602 63.1196 40.0408 62.8189 40.0408C62.5182 40.0408 62.2297 40.1602 62.0171 40.3729C61.8044 40.5856 61.6849 40.874 61.6849 41.1747C61.6849 41.4755 61.8044 41.7639 62.0171 41.9766C62.2297 42.1892 62.5182 42.3087 62.8189 42.3087ZM52.5359 42.3087C52.8367 42.3087 53.1251 42.1892 53.3378 41.9766C53.5504 41.7639 53.6699 41.4755 53.6699 41.1747C53.6699 40.874 53.5504 40.5856 53.3378 40.3729C53.1251 40.1602 52.8367 40.0408 52.5359 40.0408C52.2352 40.0408 51.9468 40.1602 51.7341 40.3729C51.5215 40.5856 51.402 40.874 51.402 41.1747C51.402 41.4755 51.5215 41.7639 51.7341 41.9766C51.9468 42.1892 52.2352 42.3087 52.5359 42.3087ZM42.2573 42.3087C42.4826 42.3092 42.703 42.2428 42.8906 42.118C43.0782 41.9932 43.2246 41.8155 43.3112 41.6075C43.3979 41.3995 43.4208 41.1705 43.3773 40.9494C43.3337 40.7283 43.2256 40.5251 43.0665 40.3655C42.9472 40.2464 42.803 40.1552 42.6442 40.0986C42.4855 40.042 42.3161 40.0214 42.1484 40.0381C41.9806 40.0549 41.8187 40.1087 41.6743 40.1956C41.5299 40.2825 41.4065 40.4004 41.3132 40.5407C41.1995 40.7119 41.1343 40.9107 41.1244 41.116C41.1146 41.3212 41.1605 41.5253 41.2573 41.7066C41.3541 41.8879 41.4982 42.0396 41.6743 42.1456C41.8503 42.2516 42.0518 42.3079 42.2573 42.3087ZM31.9786 42.3087C32.2039 42.3087 32.4242 42.2418 32.6115 42.1166C32.7987 41.9913 32.9446 41.8133 33.0306 41.605C33.1167 41.3968 33.139 41.1677 33.0947 40.9468C33.0504 40.7259 32.9416 40.5231 32.782 40.364C32.6223 40.205 32.4191 40.097 32.198 40.0535C31.977 40.0101 31.748 40.0332 31.5401 40.1201C31.3321 40.2069 31.1547 40.3534 31.0301 40.5412C30.9056 40.7289 30.8395 40.9494 30.8404 41.1747C30.8404 41.324 30.8698 41.4718 30.9271 41.6097C30.9844 41.7475 31.0683 41.8727 31.174 41.9781C31.2798 42.0834 31.4053 42.1669 31.5434 42.2236C31.6814 42.2803 31.8294 42.3093 31.9786 42.3087ZM21.6957 42.3087C21.9964 42.3087 22.2849 42.1892 22.4975 41.9766C22.7102 41.7639 22.8296 41.4755 22.8296 41.1747C22.8296 40.874 22.7102 40.5856 22.4975 40.3729C22.2849 40.1602 21.9964 40.0408 21.6957 40.0408C21.3949 40.0408 21.1065 40.1602 20.8939 40.3729C20.6812 40.5856 20.5617 40.874 20.5617 41.1747C20.5617 41.4755 20.6812 41.7639 20.8939 41.9766C21.1065 42.1892 21.3949 42.3087 21.6957 42.3087ZM11.8521 42.1768C11.9913 42.1212 12.118 42.0385 12.225 41.9336C12.332 41.8287 12.4171 41.7036 12.4755 41.5656C12.5339 41.4276 12.5643 41.2794 12.5651 41.1296C12.5658 40.9797 12.5368 40.8312 12.4799 40.6927C12.4229 40.5541 12.339 40.4282 12.233 40.3222C12.1271 40.2162 12.0012 40.1323 11.8626 40.0753C11.7241 40.0183 11.5756 39.9893 11.4257 39.99C11.2759 39.9907 11.1277 40.0211 10.9896 40.0794C10.7144 40.1958 10.4962 40.4161 10.3825 40.6924C10.2687 40.9687 10.2687 41.2788 10.3824 41.5552C10.496 41.8316 10.7142 42.0519 10.9894 42.1683C11.2646 42.2847 11.5747 42.2878 11.8521 42.1768ZM1.13836 42.3087C1.36367 42.3087 1.58391 42.2418 1.77119 42.1166C1.95847 41.9913 2.10436 41.8133 2.19038 41.605C2.2764 41.3968 2.29869 41.1677 2.25442 40.9468C2.21016 40.7259 2.10132 40.5231 1.9417 40.364C1.78208 40.205 1.57886 40.097 1.35778 40.0535C1.1367 40.0101 0.907701 40.0332 0.699789 40.1201C0.491876 40.2069 0.314404 40.3534 0.189849 40.5412C0.0652936 40.7289 -0.000740502 40.9494 0.000109717 41.1747C0.000108648 41.324 0.0295811 41.4718 0.0868363 41.6097C0.144092 41.7475 0.228003 41.8727 0.333756 41.9781C0.439509 42.0834 0.565023 42.1669 0.703098 42.2236C0.841172 42.2803 0.98909 42.3093 1.13836 42.3087ZM62.8189 33.1124C63.1196 33.1124 63.4081 32.993 63.6207 32.7803C63.8334 32.5677 63.9529 32.2792 63.9529 31.9785C63.9529 31.6777 63.8334 31.3893 63.6207 31.1767C63.4081 30.964 63.1196 30.8445 62.8189 30.8445C62.5182 30.8445 62.2297 30.964 62.0171 31.1767C61.8044 31.3893 61.6849 31.6777 61.6849 31.9785C61.6849 32.2792 61.8044 32.5677 62.0171 32.7803C62.2297 32.993 62.5182 33.1124 62.8189 33.1124ZM52.5359 33.1124C52.8367 33.1124 53.1251 32.993 53.3378 32.7803C53.5504 32.5677 53.6699 32.2792 53.6699 31.9785C53.6699 31.6777 53.5504 31.3893 53.3378 31.1767C53.1251 30.964 52.8367 30.8445 52.5359 30.8445C52.2352 30.8445 51.9468 30.964 51.7341 31.1767C51.5215 31.3893 51.402 31.6777 51.402 31.9785C51.402 32.2792 51.5215 32.5677 51.7341 32.7803C51.9468 32.993 52.2352 33.1124 52.5359 33.1124ZM42.2573 33.1167C42.4086 33.1202 42.559 33.0935 42.6998 33.0381C42.8406 32.9827 42.969 32.8998 43.0774 32.7943C43.1858 32.6887 43.272 32.5626 43.3311 32.4233C43.3902 32.284 43.421 32.1344 43.4215 31.9831C43.4221 31.8318 43.3925 31.6819 43.3345 31.5421C43.2764 31.4024 43.1911 31.2757 43.0835 31.1693C42.9759 31.0629 42.8482 30.9791 42.7078 30.9226C42.5674 30.8662 42.4172 30.8383 42.2659 30.8407C41.9678 30.8452 41.6834 30.9665 41.4738 31.1786C41.2642 31.3906 41.1462 31.6764 41.145 31.9745C41.1439 32.2726 41.2598 32.5593 41.4678 32.7729C41.6758 32.9865 41.9592 33.1099 42.2573 33.1167ZM31.9786 33.1167C32.2805 33.1167 32.57 32.9968 32.7835 32.7833C32.997 32.5699 33.1169 32.2804 33.1169 31.9785C33.1169 31.6766 32.997 31.3871 32.7835 31.1736C32.57 30.9602 32.2805 30.8402 31.9786 30.8402C31.6767 30.8402 31.3872 30.9602 31.1738 31.1736C30.9603 31.3871 30.8404 31.6766 30.8404 31.9785C30.8404 32.2804 30.9603 32.5699 31.1738 32.7833C31.3872 32.9968 31.6767 33.1167 31.9786 33.1167ZM21.6957 33.1124C21.9964 33.1124 22.2849 32.993 22.4975 32.7803C22.7102 32.5677 22.8296 32.2792 22.8296 31.9785C22.8296 31.6777 22.7102 31.3893 22.4975 31.1767C22.2849 30.964 21.9964 30.8445 21.6957 30.8445C21.3949 30.8445 21.1065 30.964 20.8939 31.1767C20.6812 31.3893 20.5617 31.6777 20.5617 31.9785C20.5617 32.2792 20.6812 32.5677 20.8939 32.7803C21.1065 32.993 21.3949 33.1124 21.6957 33.1124ZM11.8513 32.984C11.9904 32.9284 12.1171 32.8457 12.2241 32.7408C12.3311 32.6359 12.4163 32.5108 12.4746 32.3728C12.533 32.2348 12.5634 32.0866 12.5642 31.9368C12.5649 31.7869 12.536 31.6384 12.479 31.4998C12.422 31.3613 12.3381 31.2353 12.2322 31.1294C12.1262 31.0234 12.0003 30.9395 11.8618 30.8825C11.7232 30.8254 11.5747 30.7965 11.4249 30.7972C11.275 30.7979 11.1268 30.8283 10.9888 30.8866C10.7135 31.003 10.4953 31.2232 10.3816 31.4996C10.2679 31.7759 10.2678 32.086 10.3815 32.3624C10.4952 32.6388 10.7133 32.8591 10.9885 32.9755C11.2638 33.0919 11.5738 33.095 11.8513 32.984ZM1.13836 33.1167C1.44025 33.1167 1.72977 32.9968 1.94323 32.7833C2.1567 32.5699 2.27662 32.2804 2.27662 31.9785C2.27662 31.6766 2.1567 31.3871 1.94323 31.1736C1.72977 30.9602 1.44025 30.8402 1.13836 30.8402C0.836481 30.8402 0.546961 30.9602 0.333497 31.1736C0.120033 31.3871 0.000109717 31.6766 0.000109717 31.9785C0.000109717 32.2804 0.120033 32.5699 0.333497 32.7833C0.546961 32.9968 0.836481 33.1167 1.13836 33.1167ZM62.8189 23.9205C63.1196 23.9205 63.4081 23.801 63.6207 23.5884C63.8334 23.3757 63.9529 23.0873 63.9529 22.7865C63.9529 22.4858 63.8334 22.1974 63.6207 21.9847C63.4081 21.772 63.1196 21.6526 62.8189 21.6526C62.5182 21.6526 62.2297 21.772 62.0171 21.9847C61.8044 22.1974 61.6849 22.4858 61.6849 22.7865C61.6849 23.0873 61.8044 23.3757 62.0171 23.5884C62.2297 23.801 62.5182 23.9205 62.8189 23.9205ZM52.5359 23.9205C52.8367 23.9205 53.1251 23.801 53.3378 23.5884C53.5504 23.3757 53.6699 23.0873 53.6699 22.7865C53.6699 22.4858 53.5504 22.1974 53.3378 21.9847C53.1251 21.772 52.8367 21.6526 52.5359 21.6526C52.2352 21.6526 51.9468 21.772 51.7341 21.9847C51.5215 22.1974 51.402 22.4858 51.402 22.7865C51.402 23.0873 51.5215 23.3757 51.7341 23.5884C51.9468 23.801 52.2352 23.9205 52.5359 23.9205ZM42.2573 23.9076C42.4068 23.9082 42.555 23.8793 42.6933 23.8226C42.8316 23.7659 42.9575 23.6825 43.0636 23.5772C43.1697 23.4719 43.254 23.3467 43.3117 23.2088C43.3695 23.0709 43.3995 22.9229 43.4001 22.7734C43.4006 22.6239 43.3717 22.4758 43.315 22.3374C43.2583 22.1991 43.175 22.0733 43.0696 21.9672C42.9643 21.861 42.8391 21.7767 42.7012 21.719C42.5633 21.6612 42.4154 21.6312 42.2659 21.6307C41.9639 21.6295 41.6739 21.7484 41.4596 21.9611C41.2453 22.1738 41.1243 22.4629 41.1231 22.7648C41.122 23.0668 41.2408 23.3568 41.4535 23.5711C41.6662 23.7854 41.9553 23.9065 42.2573 23.9076ZM31.9786 23.9076C32.2039 23.9076 32.4242 23.8407 32.6115 23.7155C32.7987 23.5902 32.9446 23.4122 33.0306 23.2039C33.1167 22.9957 33.139 22.7666 33.0947 22.5457C33.0504 22.3248 32.9416 22.122 32.782 21.963C32.6223 21.804 32.4191 21.6959 32.198 21.6525C31.977 21.609 31.748 21.6322 31.5401 21.719C31.3321 21.8058 31.1547 21.9524 31.0301 22.1401C30.9056 22.3279 30.8395 22.5483 30.8404 22.7737C30.8404 22.9229 30.8698 23.0707 30.9271 23.2086C30.9844 23.3465 31.0683 23.4716 31.174 23.577C31.2798 23.6824 31.4053 23.7658 31.5434 23.8225C31.6814 23.8793 31.8294 23.9082 31.9786 23.9076ZM21.6957 23.9205C21.9964 23.9205 22.2849 23.801 22.4975 23.5884C22.7102 23.3757 22.8296 23.0873 22.8296 22.7865C22.8296 22.4858 22.7102 22.1974 22.4975 21.9847C22.2849 21.772 21.9964 21.6526 21.6957 21.6526C21.3949 21.6526 21.1065 21.772 20.8939 21.9847C20.6812 22.1974 20.5617 22.4858 20.5617 22.7865C20.5617 23.0873 20.6812 23.3757 20.8939 23.5884C21.1065 23.801 21.3949 23.9205 21.6957 23.9205ZM11.8521 23.7916C11.9899 23.735 12.1151 23.6519 12.2207 23.5468C12.3263 23.4418 12.4102 23.3171 12.4676 23.1796C12.525 23.0422 12.5547 22.8948 12.5551 22.7459C12.5555 22.597 12.5266 22.4494 12.47 22.3117C12.4134 22.1739 12.3302 22.0487 12.2252 21.9431C12.1202 21.8375 11.9954 21.7536 11.858 21.6962C11.7206 21.6389 11.5732 21.6091 11.4243 21.6087C11.2754 21.6083 11.1278 21.6372 10.9901 21.6938C10.7148 21.8102 10.4966 22.0304 10.3829 22.3068C10.2692 22.5831 10.2691 22.8932 10.3828 23.1696C10.4964 23.446 10.7146 23.6663 10.9898 23.7827C11.265 23.8991 11.5751 23.9022 11.8526 23.7912L11.8521 23.7916ZM1.13836 23.9076C1.36367 23.9076 1.58391 23.8407 1.77119 23.7155C1.95847 23.5902 2.10436 23.4122 2.19038 23.2039C2.2764 22.9957 2.29869 22.7666 2.25442 22.5457C2.21016 22.3248 2.10132 22.122 1.9417 21.963C1.78208 21.804 1.57886 21.6959 1.35778 21.6525C1.1367 21.609 0.907701 21.6322 0.699789 21.719C0.491876 21.8058 0.314404 21.9524 0.189849 22.1401C0.0652936 22.3279 -0.000740502 22.5483 0.000109717 22.7737C0.000108648 22.9229 0.0295811 23.0707 0.0868363 23.2086C0.144092 23.3465 0.228003 23.4716 0.333756 23.577C0.439509 23.6824 0.565023 23.7658 0.703098 23.8225C0.841172 23.8793 0.98909 23.9082 1.13836 23.9076ZM62.8189 14.7243C63.1196 14.7243 63.4081 14.6048 63.6207 14.3921C63.8334 14.1795 63.9529 13.891 63.9529 13.5903C63.9529 13.2895 63.8334 13.0011 63.6207 12.7885C63.4081 12.5758 63.1196 12.4563 62.8189 12.4563C62.5182 12.4563 62.2297 12.5758 62.0171 12.7885C61.8044 13.0011 61.6849 13.2895 61.6849 13.5903C61.6849 13.891 61.8044 14.1795 62.0171 14.3921C62.2297 14.6048 62.5182 14.7243 62.8189 14.7243ZM52.5359 14.7243C52.8367 14.7243 53.1251 14.6048 53.3378 14.3921C53.5504 14.1795 53.6699 13.891 53.6699 13.5903C53.6699 13.2895 53.5504 13.0011 53.3378 12.7885C53.1251 12.5758 52.8367 12.4563 52.5359 12.4563C52.2352 12.4563 51.9468 12.5758 51.7341 12.7885C51.5215 13.0011 51.402 13.2895 51.402 13.5903C51.402 13.891 51.5215 14.1795 51.7341 14.3921C51.9468 14.6048 52.2352 14.7243 52.5359 14.7243ZM42.2573 14.7285C42.4068 14.7291 42.5549 14.7002 42.6932 14.6435C42.8315 14.5869 42.9573 14.5035 43.0634 14.3982C43.1695 14.2929 43.2538 14.1677 43.3116 14.0299C43.3693 13.892 43.3993 13.7441 43.3998 13.5946C43.4004 13.4451 43.3715 13.297 43.3148 13.1587C43.2582 13.0204 43.1748 12.8946 43.0695 12.7885C42.9642 12.6824 42.839 12.5981 42.7011 12.5403C42.5633 12.4826 42.4154 12.4526 42.2659 12.452C41.964 12.4509 41.674 12.5697 41.4598 12.7824C41.2455 12.995 41.1245 13.2841 41.1233 13.586C41.1222 13.8879 41.241 14.1779 41.4537 14.3921C41.6663 14.6064 41.9554 14.7274 42.2573 14.7285ZM31.9786 14.7285C32.2805 14.7285 32.57 14.6086 32.7835 14.3952C32.997 14.1817 33.1169 13.8922 33.1169 13.5903C33.1169 13.2884 32.997 12.9989 32.7835 12.7854C32.57 12.572 32.2805 12.452 31.9786 12.452C31.6767 12.452 31.3872 12.572 31.1738 12.7854C30.9603 12.9989 30.8404 13.2884 30.8404 13.5903C30.8404 13.8922 30.9603 14.1817 31.1738 14.3952C31.3872 14.6086 31.6767 14.7285 31.9786 14.7285ZM21.6957 14.7243C21.9964 14.7243 22.2849 14.6048 22.4975 14.3921C22.7102 14.1795 22.8296 13.891 22.8296 13.5903C22.8296 13.2895 22.7102 13.0011 22.4975 12.7885C22.2849 12.5758 21.9964 12.4563 21.6957 12.4563C21.3949 12.4563 21.1065 12.5758 20.8939 12.7885C20.6812 13.0011 20.5617 13.2895 20.5617 13.5903C20.5617 13.891 20.6812 14.1795 20.8939 14.3921C21.1065 14.6048 21.3949 14.7243 21.6957 14.7243ZM11.8517 14.5941C11.9917 14.5391 12.1193 14.4568 12.2271 14.352C12.335 14.2472 12.4209 14.122 12.4799 13.9836C12.5389 13.8453 12.5698 13.6966 12.5708 13.5462C12.5718 13.3958 12.5429 13.2468 12.4857 13.1077C12.4285 12.9686 12.3443 12.8422 12.2378 12.736C12.1313 12.6298 12.0048 12.5458 11.8656 12.4889C11.7264 12.4321 11.5772 12.4035 11.4268 12.4048C11.2765 12.4062 11.1278 12.4374 10.9896 12.4967C10.7161 12.6141 10.4996 12.8344 10.3871 13.11C10.2745 13.3857 10.2749 13.6945 10.3881 13.9698C10.5012 14.2452 10.7182 14.465 10.992 14.5818C11.2658 14.6986 11.5746 14.703 11.8517 14.5941ZM1.13836 14.7285C1.44025 14.7285 1.72977 14.6086 1.94323 14.3952C2.1567 14.1817 2.27662 13.8922 2.27662 13.5903C2.27662 13.2884 2.1567 12.9989 1.94323 12.7854C1.72977 12.572 1.44025 12.452 1.13836 12.452C0.836481 12.452 0.546961 12.572 0.333497 12.7854C0.120033 12.9989 0.000109717 13.2884 0.000109717 13.5903C0.000109717 13.8922 0.120033 14.1817 0.333497 14.3952C0.546961 14.6086 0.836481 14.7285 1.13836 14.7285Z" fill="#8FA1B9"/>
</g>
</svg>
