<svg width="1920" height="600" viewBox="0 0 1920 600" fill="none" xmlns="http://www.w3.org/2000/svg">
<mask id="mask0_12_577" style="mask-type:luminance" maskUnits="userSpaceOnUse" x="0" y="0" width="1921" height="600">
<path d="M0 0H1921V600H0V0Z" fill="white"/>
</mask>
<g mask="url(#mask0_12_577)">
<path d="M0 0H1921V600H0V0Z" fill="#CBD0DA"/>
<g opacity="0.4">
<path d="M0 39.6477H1921V1202.64H0V39.6477Z" fill="#CBD0DA"/>
<path d="M0.667079 -2.64307V631.718M1953.02 18.9428H-32.0166M1953.02 40.0882H-32.0166M1953.02 61.2336H-32.0166M1953.02 82.379H-32.0166M1953.02 103.524H-32.0166M1953.02 124.67H-32.0166M1953.02 145.815H-32.0166M1953.02 166.96H-32.0166M1953.02 188.106H-32.0166M1953.02 209.251H-32.0166M1953.02 230.397H-32.0166M1953.02 251.542H-32.0166M1953.02 272.687H-32.0166M1953.02 293.833H-32.0166M1953.02 314.978H-32.0166M1953.02 336.123H-32.0166M1953.02 357.269H-32.0166M1953.02 378.414H-32.0166M1953.02 399.56H-32.0166M1953.02 420.705H-32.0166M1953.02 441.85H-32.0166M1953.02 462.996H-32.0166M1953.02 484.141H-32.0166M1953.02 505.286H-32.0166M1953.02 526.432H-32.0166M1953.02 547.577H-32.0166M1953.02 568.723H-32.0166M1953.02 589.868H-32.0166M32.6837 -2.64307V631.718M64.7004 -2.64307V631.718M96.7171 -2.64307V631.718M128.734 -2.64307V631.718M160.75 -2.64307V631.718M192.767 -2.64307V631.718M224.784 -2.64307V631.718M256.8 -2.64307V631.718M288.817 -2.64307V631.718M320.834 -2.64307V631.718M352.85 -2.64307V631.718M384.867 -2.64307V631.718M416.884 -2.64307V631.718M448.9 -2.64307V631.718M480.917 -2.64307V631.718M512.934 -2.64307V631.718M544.95 -2.64307V631.718M576.967 -2.64307V631.718M608.984 -2.64307V631.718M641 -2.64307V631.718M673.017 -2.64307V631.718M705.034 -2.64307V631.718M737.05 -2.64307V631.718M769.067 -2.64307V631.718M801.084 -2.64307V631.718M833.1 -2.64307V631.718M865.117 -2.64307V631.718M897.134 -2.64307V631.718M929.15 -2.64307V631.718M961.167 -2.64307V631.718M993.184 -2.64307V631.718M1025.2 -2.64307V631.718M1057.22 -2.64307V631.718M1089.23 -2.64307V631.718M1121.25 -2.64307V631.718M1153.27 -2.64307V631.718M1185.28 -2.64307V631.718M1217.3 -2.64307V631.718M1249.32 -2.64307V631.718M1281.33 -2.64307V631.718M1313.35 -2.64307V631.718M1345.37 -2.64307V631.718M1377.38 -2.64307V631.718M1409.4 -2.64307V631.718M1441.42 -2.64307V631.718M1473.43 -2.64307V631.718M1505.45 -2.64307V631.718M1537.47 -2.64307V631.718M1569.48 -2.64307V631.718M1601.5 -2.64307V631.718M1633.52 -2.64307V631.718M1665.53 -2.64307V631.718M1697.55 -2.64307V631.718M1729.57 -2.64307V631.718M1761.58 -2.64307V631.718M1793.6 -2.64307V631.718M1825.62 -2.64307V631.718M1857.63 -2.64307V631.718M1889.65 -2.64307V631.718" stroke="#F9FAFB"/>
</g>
<path d="M0 0H1921V600H0V0Z" fill="url(#paint0_radial_12_577)"/>
</g>
<defs>
<radialGradient id="paint0_radial_12_577" cx="0" cy="0" r="1" gradientUnits="userSpaceOnUse" gradientTransform="translate(960.5 300) rotate(90) scale(300 960.5)">
<stop stop-color="#CBD0DA" stop-opacity="0"/>
<stop offset="1" stop-color="#CBD0DA"/>
</radialGradient>
</defs>
</svg>
