<svg width="536" height="150" viewBox="0 0 536 150" fill="none" xmlns="http://www.w3.org/2000/svg">
<path d="M29.0625 47H1.9375V1.3125H29.0625V11.2188H14.2812V18.4062H27.9688V28.3125H14.2812V36.9375H29.0625V47ZM37.0625 47V1.3125H49.4062V37.0312H67V47H37.0625ZM101.438 47H74.3125V1.3125H101.438V11.2188H86.6562V18.4062H100.344V28.3125H86.6562V36.9375H101.438V47ZM148.906 1.3125L133.938 47H119.406L104.5 1.3125H118.375L124.594 24.4688C124.823 25.3438 125.083 26.4688 125.375 27.8438C125.688 29.1979 125.969 30.5521 126.219 31.9062C126.49 33.2604 126.656 34.3646 126.719 35.2188C126.802 34.3646 126.958 33.2708 127.188 31.9375C127.417 30.6042 127.667 29.2708 127.938 27.9375C128.229 26.5833 128.5 25.4688 128.75 24.5938L135.094 1.3125H148.906ZM181 47H153.875V1.3125H181V11.2188H166.219V18.4062H179.906V28.3125H166.219V36.9375H181V47ZM235.5 33.125C235.5 35.6042 234.875 37.9583 233.625 40.1875C232.375 42.3958 230.427 44.1875 227.781 45.5625C225.156 46.9375 221.76 47.625 217.594 47.625C215.51 47.625 213.677 47.5312 212.094 47.3438C210.531 47.1562 209.073 46.8542 207.719 46.4375C206.365 46 204.958 45.4375 203.5 44.75V33.75C205.979 35 208.479 35.9583 211 36.625C213.521 37.2708 215.802 37.5938 217.844 37.5938C219.073 37.5938 220.073 37.4479 220.844 37.1562C221.635 36.8646 222.219 36.4688 222.594 35.9688C222.969 35.4479 223.156 34.8542 223.156 34.1875C223.156 33.3958 222.875 32.7292 222.312 32.1875C221.771 31.625 220.896 31.0417 219.688 30.4375C218.479 29.8333 216.885 29.0833 214.906 28.1875C213.219 27.3958 211.688 26.5833 210.312 25.75C208.958 24.9167 207.792 23.9688 206.812 22.9062C205.854 21.8229 205.115 20.5625 204.594 19.125C204.073 17.6875 203.812 15.9896 203.812 14.0312C203.812 11.0938 204.531 8.63542 205.969 6.65625C207.427 4.65625 209.448 3.15625 212.031 2.15625C214.635 1.15625 217.635 0.65625 221.031 0.65625C224.01 0.65625 226.688 0.989583 229.062 1.65625C231.458 2.32292 233.604 3.08333 235.5 3.9375L231.719 13.4688C229.76 12.5729 227.833 11.8646 225.938 11.3438C224.042 10.8021 222.281 10.5312 220.656 10.5312C219.594 10.5312 218.719 10.6667 218.031 10.9375C217.365 11.1875 216.865 11.5312 216.531 11.9688C216.219 12.4062 216.062 12.9062 216.062 13.4688C216.062 14.1771 216.333 14.8125 216.875 15.375C217.438 15.9375 218.365 16.5521 219.656 17.2188C220.969 17.8646 222.75 18.7083 225 19.75C227.229 20.75 229.125 21.8333 230.688 23C232.25 24.1458 233.438 25.5312 234.25 27.1562C235.083 28.7604 235.5 30.75 235.5 33.125ZM281.406 1.3125V28.8125C281.406 32.6458 280.677 35.9792 279.219 38.8125C277.76 41.625 275.573 43.8021 272.656 45.3438C269.74 46.8646 266.083 47.625 261.688 47.625C255.396 47.625 250.594 46.0104 247.281 42.7812C243.969 39.5521 242.312 34.9896 242.312 29.0938V1.3125H254.719V28.125C254.719 31.3542 255.323 33.6979 256.531 35.1562C257.74 36.6146 259.521 37.3438 261.875 37.3438C263.562 37.3438 264.938 37.0312 266 36.4062C267.062 35.7604 267.833 34.75 268.312 33.375C268.812 32 269.062 30.2292 269.062 28.0625V1.3125H281.406ZM319.031 47L316.781 38.4375H301.938L299.625 47H286.062L300.969 1.125H317.438L332.531 47H319.031ZM314.219 28.3125L312.25 20.8125C312.042 20 311.74 18.8438 311.344 17.3438C310.948 15.8229 310.552 14.2604 310.156 12.6562C309.781 11.0312 309.49 9.69792 309.281 8.65625C309.094 9.69792 308.823 10.9896 308.469 12.5312C308.135 14.0521 307.781 15.5625 307.406 17.0625C307.052 18.5625 306.74 19.8125 306.469 20.8125L304.5 28.3125H314.219ZM367.375 33.125C367.375 35.6042 366.75 37.9583 365.5 40.1875C364.25 42.3958 362.302 44.1875 359.656 45.5625C357.031 46.9375 353.635 47.625 349.469 47.625C347.385 47.625 345.552 47.5312 343.969 47.3438C342.406 47.1562 340.948 46.8542 339.594 46.4375C338.24 46 336.833 45.4375 335.375 44.75V33.75C337.854 35 340.354 35.9583 342.875 36.625C345.396 37.2708 347.677 37.5938 349.719 37.5938C350.948 37.5938 351.948 37.4479 352.719 37.1562C353.51 36.8646 354.094 36.4688 354.469 35.9688C354.844 35.4479 355.031 34.8542 355.031 34.1875C355.031 33.3958 354.75 32.7292 354.188 32.1875C353.646 31.625 352.771 31.0417 351.562 30.4375C350.354 29.8333 348.76 29.0833 346.781 28.1875C345.094 27.3958 343.562 26.5833 342.188 25.75C340.833 24.9167 339.667 23.9688 338.688 22.9062C337.729 21.8229 336.99 20.5625 336.469 19.125C335.948 17.6875 335.688 15.9896 335.688 14.0312C335.688 11.0938 336.406 8.63542 337.844 6.65625C339.302 4.65625 341.323 3.15625 343.906 2.15625C346.51 1.15625 349.51 0.65625 352.906 0.65625C355.885 0.65625 358.562 0.989583 360.938 1.65625C363.333 2.32292 365.479 3.08333 367.375 3.9375L363.594 13.4688C361.635 12.5729 359.708 11.8646 357.812 11.3438C355.917 10.8021 354.156 10.5312 352.531 10.5312C351.469 10.5312 350.594 10.6667 349.906 10.9375C349.24 11.1875 348.74 11.5312 348.406 11.9688C348.094 12.4062 347.938 12.9062 347.938 13.4688C347.938 14.1771 348.208 14.8125 348.75 15.375C349.312 15.9375 350.24 16.5521 351.531 17.2188C352.844 17.8646 354.625 18.7083 356.875 19.75C359.104 20.75 361 21.8333 362.562 23C364.125 24.1458 365.312 25.5312 366.125 27.1562C366.958 28.7604 367.375 30.75 367.375 33.125ZM22.2812 97.7812C20.8229 97.7812 19.5208 98.0938 18.375 98.7188C17.2292 99.3229 16.25 100.208 15.4375 101.375C14.625 102.542 14 103.969 13.5625 105.656C13.1458 107.323 12.9375 109.219 12.9375 111.344C12.9375 114.219 13.3021 116.635 14.0312 118.594C14.7604 120.552 15.8646 122.031 17.3438 123.031C18.8438 124.031 20.7188 124.531 22.9688 124.531C25.0104 124.531 26.9688 124.25 28.8438 123.688C30.7396 123.125 32.6458 122.448 34.5625 121.656V132.094C32.5417 132.99 30.4688 133.635 28.3438 134.031C26.2396 134.427 24 134.625 21.625 134.625C16.6667 134.625 12.6042 133.646 9.4375 131.688C6.29167 129.708 3.96875 126.969 2.46875 123.469C0.989583 119.969 0.25 115.906 0.25 111.281C0.25 107.823 0.729167 104.656 1.6875 101.781C2.66667 98.9062 4.09375 96.4167 5.96875 94.3125C7.84375 92.1875 10.1562 90.5521 12.9062 89.4062C15.6771 88.2396 18.8438 87.6562 22.4062 87.6562C24.6146 87.6562 26.9375 87.9167 29.375 88.4375C31.8333 88.9375 34.2292 89.75 36.5625 90.875L32.7812 100.594C31.1146 99.8021 29.4271 99.1354 27.7188 98.5938C26.0104 98.0521 24.1979 97.7812 22.2812 97.7812ZM86.25 111.094C86.25 114.615 85.8229 117.823 84.9688 120.719C84.1354 123.594 82.8229 126.073 81.0312 128.156C79.2396 130.24 76.9375 131.844 74.125 132.969C71.3125 134.073 67.9479 134.625 64.0312 134.625C60.1979 134.625 56.875 134.073 54.0625 132.969C51.2708 131.844 48.9688 130.25 47.1562 128.188C45.3438 126.104 44 123.615 43.125 120.719C42.25 117.823 41.8125 114.594 41.8125 111.031C41.8125 106.281 42.5938 102.156 44.1562 98.6562C45.7396 95.1354 48.1771 92.4167 51.4688 90.5C54.7604 88.5625 58.9688 87.5938 64.0938 87.5938C69.3021 87.5938 73.5312 88.5625 76.7812 90.5C80.0521 92.4375 82.4479 95.1667 83.9688 98.6875C85.4896 102.208 86.25 106.344 86.25 111.094ZM54.8125 111.094C54.8125 113.844 55.125 116.208 55.75 118.188C56.375 120.167 57.3646 121.688 58.7188 122.75C60.0729 123.812 61.8438 124.344 64.0312 124.344C66.3021 124.344 68.1042 123.812 69.4375 122.75C70.7917 121.688 71.7604 120.167 72.3438 118.188C72.9479 116.208 73.25 113.844 73.25 111.094C73.25 106.969 72.5625 103.708 71.1875 101.312C69.8125 98.9167 67.4479 97.7188 64.0938 97.7188C61.8646 97.7188 60.0625 98.2604 58.6875 99.3438C57.3333 100.427 56.3438 101.969 55.7188 103.969C55.1146 105.969 54.8125 108.344 54.8125 111.094ZM138 134H121.812L105.125 101.812H104.844C104.948 102.792 105.042 103.969 105.125 105.344C105.208 106.719 105.281 108.125 105.344 109.562C105.406 110.979 105.438 112.26 105.438 113.406V134H94.5V88.3125H110.625L127.25 120.062H127.438C127.375 119.062 127.312 117.906 127.25 116.594C127.188 115.26 127.125 113.917 127.062 112.562C127.021 111.208 127 110.01 127 108.969V88.3125H138V134ZM168.031 134H155.688V98.4062H144.531V88.3125H179.156V98.4062H168.031V134ZM200.656 88.3125C204.802 88.3125 208.25 88.8229 211 89.8438C213.75 90.8438 215.812 92.3438 217.188 94.3438C218.583 96.3438 219.281 98.8333 219.281 101.812C219.281 103.667 218.969 105.354 218.344 106.875C217.719 108.396 216.823 109.76 215.656 110.969C214.51 112.156 213.135 113.198 211.531 114.094L224.844 134H210.844L201.156 117.375H198.031V134H185.688V88.3125H200.656ZM200.469 97.6562H198.031V108.094H200.344C202.24 108.094 203.792 107.677 205 106.844C206.208 106.01 206.812 104.521 206.812 102.375C206.812 100.896 206.312 99.7396 205.312 98.9062C204.312 98.0729 202.698 97.6562 200.469 97.6562ZM257.031 134L254.781 125.438H239.938L237.625 134H224.062L238.969 88.125H255.438L270.531 134H257.031ZM252.219 115.312L250.25 107.812C250.042 107 249.74 105.844 249.344 104.344C248.948 102.823 248.552 101.26 248.156 99.6562C247.781 98.0312 247.49 96.6979 247.281 95.6562C247.094 96.6979 246.823 97.9896 246.469 99.5312C246.135 101.052 245.781 102.562 245.406 104.062C245.052 105.562 244.74 106.812 244.469 107.812L242.5 115.312H252.219ZM295.656 134H283.312V98.4062H272.156V88.3125H306.781V98.4062H295.656V134ZM341.344 134L339.094 125.438H324.25L321.938 134H308.375L323.281 88.125H339.75L354.844 134H341.344ZM336.531 115.312L334.562 107.812C334.354 107 334.052 105.844 333.656 104.344C333.26 102.823 332.865 101.26 332.469 99.6562C332.094 98.0312 331.802 96.6979 331.594 95.6562C331.406 96.6979 331.135 97.9896 330.781 99.5312C330.448 101.052 330.094 102.562 329.719 104.062C329.365 105.562 329.052 106.812 328.781 107.812L326.812 115.312H336.531ZM380.156 97.7812C378.698 97.7812 377.396 98.0938 376.25 98.7188C375.104 99.3229 374.125 100.208 373.312 101.375C372.5 102.542 371.875 103.969 371.438 105.656C371.021 107.323 370.812 109.219 370.812 111.344C370.812 114.219 371.177 116.635 371.906 118.594C372.635 120.552 373.74 122.031 375.219 123.031C376.719 124.031 378.594 124.531 380.844 124.531C382.885 124.531 384.844 124.25 386.719 123.688C388.615 123.125 390.521 122.448 392.438 121.656V132.094C390.417 132.99 388.344 133.635 386.219 134.031C384.115 134.427 381.875 134.625 379.5 134.625C374.542 134.625 370.479 133.646 367.312 131.688C364.167 129.708 361.844 126.969 360.344 123.469C358.865 119.969 358.125 115.906 358.125 111.281C358.125 107.823 358.604 104.656 359.562 101.781C360.542 98.9062 361.969 96.4167 363.844 94.3125C365.719 92.1875 368.031 90.5521 370.781 89.4062C373.552 88.2396 376.719 87.6562 380.281 87.6562C382.49 87.6562 384.812 87.9167 387.25 88.4375C389.708 88.9375 392.104 89.75 394.438 90.875L390.656 100.594C388.99 99.8021 387.302 99.1354 385.594 98.5938C383.885 98.0521 382.073 97.7812 380.156 97.7812ZM386.5 141.875C386.5 144.146 385.719 145.958 384.156 147.312C382.594 148.688 380.51 149.375 377.906 149.375C376.448 149.375 375.125 149.26 373.938 149.031C372.75 148.802 371.771 148.552 371 148.281V142.25C371.708 142.479 372.396 142.656 373.062 142.781C373.75 142.906 374.448 142.969 375.156 142.969C375.948 142.969 376.573 142.802 377.031 142.469C377.49 142.135 377.719 141.698 377.719 141.156C377.719 140.427 377.365 139.844 376.656 139.406C375.969 138.99 374.812 138.635 373.188 138.344L375.094 134H381.188L380.594 135.906C381.448 136.094 382.333 136.396 383.25 136.812C384.167 137.229 384.938 137.833 385.562 138.625C386.188 139.417 386.5 140.5 386.5 141.875ZM444.125 111.094C444.125 114.615 443.698 117.823 442.844 120.719C442.01 123.594 440.698 126.073 438.906 128.156C437.115 130.24 434.812 131.844 432 132.969C429.188 134.073 425.823 134.625 421.906 134.625C418.073 134.625 414.75 134.073 411.938 132.969C409.146 131.844 406.844 130.25 405.031 128.188C403.219 126.104 401.875 123.615 401 120.719C400.125 117.823 399.688 114.594 399.688 111.031C399.688 106.281 400.469 102.156 402.031 98.6562C403.615 95.1354 406.052 92.4167 409.344 90.5C412.635 88.5625 416.844 87.5938 421.969 87.5938C427.177 87.5938 431.406 88.5625 434.656 90.5C437.927 92.4375 440.323 95.1667 441.844 98.6875C443.365 102.208 444.125 106.344 444.125 111.094ZM412.688 111.094C412.688 113.844 413 116.208 413.625 118.188C414.25 120.167 415.24 121.688 416.594 122.75C417.948 123.812 419.719 124.344 421.906 124.344C424.177 124.344 425.979 123.812 427.312 122.75C428.667 121.688 429.635 120.167 430.219 118.188C430.823 116.208 431.125 113.844 431.125 111.094C431.125 106.969 430.438 103.708 429.062 101.312C427.688 98.9167 425.323 97.7188 421.969 97.7188C419.74 97.7188 417.938 98.2604 416.562 99.3438C415.208 100.427 414.219 101.969 413.594 103.969C412.99 105.969 412.688 108.344 412.688 111.094ZM408.719 85.0312C408.844 83.0729 409.104 81.4167 409.5 80.0625C409.917 78.7083 410.448 77.6146 411.094 76.7812C411.76 75.9271 412.552 75.3125 413.469 74.9375C414.406 74.5417 415.448 74.3438 416.594 74.3438C417.385 74.3438 418.229 74.5 419.125 74.8125C420.021 75.1042 420.927 75.4479 421.844 75.8438C422.76 76.2396 423.656 76.5938 424.531 76.9062C425.427 77.1979 426.281 77.3438 427.094 77.3438C427.469 77.3438 427.875 77.1667 428.312 76.8125C428.771 76.4583 429.104 75.6146 429.312 74.2812H435.031C434.76 78.1146 433.917 80.8542 432.5 82.5C431.104 84.1458 429.385 84.9688 427.344 84.9688C426.406 84.9688 425.458 84.8229 424.5 84.5312C423.562 84.2188 422.635 83.8646 421.719 83.4688C420.802 83.0729 419.917 82.7292 419.062 82.4375C418.208 82.125 417.385 81.9688 416.594 81.9688C416.198 81.9688 415.792 82.1354 415.375 82.4688C414.958 82.8021 414.615 83.6562 414.344 85.0312H408.719ZM479.5 134H452.375V88.3125H479.5V98.2188H464.719V105.406H478.406V115.312H464.719V123.938H479.5V134ZM517.375 120.125C517.375 122.604 516.75 124.958 515.5 127.188C514.25 129.396 512.302 131.188 509.656 132.562C507.031 133.938 503.635 134.625 499.469 134.625C497.385 134.625 495.552 134.531 493.969 134.344C492.406 134.156 490.948 133.854 489.594 133.438C488.24 133 486.833 132.438 485.375 131.75V120.75C487.854 122 490.354 122.958 492.875 123.625C495.396 124.271 497.677 124.594 499.719 124.594C500.948 124.594 501.948 124.448 502.719 124.156C503.51 123.865 504.094 123.469 504.469 122.969C504.844 122.448 505.031 121.854 505.031 121.188C505.031 120.396 504.75 119.729 504.188 119.188C503.646 118.625 502.771 118.042 501.562 117.438C500.354 116.833 498.76 116.083 496.781 115.188C495.094 114.396 493.562 113.583 492.188 112.75C490.833 111.917 489.667 110.969 488.688 109.906C487.729 108.823 486.99 107.562 486.469 106.125C485.948 104.688 485.688 102.99 485.688 101.031C485.688 98.0938 486.406 95.6354 487.844 93.6562C489.302 91.6562 491.323 90.1562 493.906 89.1562C496.51 88.1562 499.51 87.6562 502.906 87.6562C505.885 87.6562 508.562 87.9896 510.938 88.6562C513.333 89.3229 515.479 90.0833 517.375 90.9375L513.594 100.469C511.635 99.5729 509.708 98.8646 507.812 98.3438C505.917 97.8021 504.156 97.5312 502.531 97.5312C501.469 97.5312 500.594 97.6667 499.906 97.9375C499.24 98.1875 498.74 98.5312 498.406 98.9688C498.094 99.4062 497.938 99.9062 497.938 100.469C497.938 101.177 498.208 101.812 498.75 102.375C499.312 102.938 500.24 103.552 501.531 104.219C502.844 104.865 504.625 105.708 506.875 106.75C509.104 107.75 511 108.833 512.562 110C514.125 111.146 515.312 112.531 516.125 114.156C516.958 115.76 517.375 117.75 517.375 120.125ZM533.969 117.875H523.656L522.062 88.3125H535.562L533.969 117.875ZM522.188 128.812C522.188 126.604 522.833 125.052 524.125 124.156C525.438 123.26 526.99 122.812 528.781 122.812C530.552 122.812 532.073 123.26 533.344 124.156C534.615 125.052 535.25 126.604 535.25 128.812C535.25 130.917 534.615 132.438 533.344 133.375C532.073 134.312 530.552 134.781 528.781 134.781C526.99 134.781 525.438 134.312 524.125 133.375C522.833 132.438 522.188 130.917 522.188 128.812Z" fill="#252E40"/>
</svg>
