<svg width="538" height="152" viewBox="0 0 538 152" fill="none" xmlns="http://www.w3.org/2000/svg">
<mask id="path-1-outside-1_21_4904" maskUnits="userSpaceOnUse" x="0" y="0" width="538" height="152" fill="black">
<rect fill="white" width="538" height="152"/>
<path d="M30.0625 48H2.9375V2.3125H30.0625V12.2188H15.2812V19.4062H28.9688V29.3125H15.2812V37.9375H30.0625V48ZM38.0625 48V2.3125H50.4062V38.0312H68V48H38.0625ZM102.438 48H75.3125V2.3125H102.438V12.2188H87.6562V19.4062H101.344V29.3125H87.6562V37.9375H102.438V48ZM149.906 2.3125L134.938 48H120.406L105.5 2.3125H119.375L125.594 25.4688C125.823 26.3438 126.083 27.4688 126.375 28.8438C126.688 30.1979 126.969 31.5521 127.219 32.9062C127.49 34.2604 127.656 35.3646 127.719 36.2188C127.802 35.3646 127.958 34.2708 128.188 32.9375C128.417 31.6042 128.667 30.2708 128.938 28.9375C129.229 27.5833 129.5 26.4688 129.75 25.5938L136.094 2.3125H149.906ZM182 48H154.875V2.3125H182V12.2188H167.219V19.4062H180.906V29.3125H167.219V37.9375H182V48ZM236.5 34.125C236.5 36.6042 235.875 38.9583 234.625 41.1875C233.375 43.3958 231.427 45.1875 228.781 46.5625C226.156 47.9375 222.76 48.625 218.594 48.625C216.51 48.625 214.677 48.5312 213.094 48.3438C211.531 48.1562 210.073 47.8542 208.719 47.4375C207.365 47 205.958 46.4375 204.5 45.75V34.75C206.979 36 209.479 36.9583 212 37.625C214.521 38.2708 216.802 38.5938 218.844 38.5938C220.073 38.5938 221.073 38.4479 221.844 38.1562C222.635 37.8646 223.219 37.4688 223.594 36.9688C223.969 36.4479 224.156 35.8542 224.156 35.1875C224.156 34.3958 223.875 33.7292 223.312 33.1875C222.771 32.625 221.896 32.0417 220.688 31.4375C219.479 30.8333 217.885 30.0833 215.906 29.1875C214.219 28.3958 212.688 27.5833 211.312 26.75C209.958 25.9167 208.792 24.9688 207.812 23.9062C206.854 22.8229 206.115 21.5625 205.594 20.125C205.073 18.6875 204.812 16.9896 204.812 15.0312C204.812 12.0938 205.531 9.63542 206.969 7.65625C208.427 5.65625 210.448 4.15625 213.031 3.15625C215.635 2.15625 218.635 1.65625 222.031 1.65625C225.01 1.65625 227.688 1.98958 230.062 2.65625C232.458 3.32292 234.604 4.08333 236.5 4.9375L232.719 14.4688C230.76 13.5729 228.833 12.8646 226.938 12.3438C225.042 11.8021 223.281 11.5312 221.656 11.5312C220.594 11.5312 219.719 11.6667 219.031 11.9375C218.365 12.1875 217.865 12.5312 217.531 12.9688C217.219 13.4062 217.062 13.9062 217.062 14.4688C217.062 15.1771 217.333 15.8125 217.875 16.375C218.438 16.9375 219.365 17.5521 220.656 18.2188C221.969 18.8646 223.75 19.7083 226 20.75C228.229 21.75 230.125 22.8333 231.688 24C233.25 25.1458 234.438 26.5312 235.25 28.1562C236.083 29.7604 236.5 31.75 236.5 34.125ZM282.406 2.3125V29.8125C282.406 33.6458 281.677 36.9792 280.219 39.8125C278.76 42.625 276.573 44.8021 273.656 46.3438C270.74 47.8646 267.083 48.625 262.688 48.625C256.396 48.625 251.594 47.0104 248.281 43.7812C244.969 40.5521 243.312 35.9896 243.312 30.0938V2.3125H255.719V29.125C255.719 32.3542 256.323 34.6979 257.531 36.1562C258.74 37.6146 260.521 38.3438 262.875 38.3438C264.562 38.3438 265.938 38.0312 267 37.4062C268.062 36.7604 268.833 35.75 269.312 34.375C269.812 33 270.062 31.2292 270.062 29.0625V2.3125H282.406ZM320.031 48L317.781 39.4375H302.938L300.625 48H287.062L301.969 2.125H318.438L333.531 48H320.031ZM315.219 29.3125L313.25 21.8125C313.042 21 312.74 19.8438 312.344 18.3438C311.948 16.8229 311.552 15.2604 311.156 13.6562C310.781 12.0312 310.49 10.6979 310.281 9.65625C310.094 10.6979 309.823 11.9896 309.469 13.5312C309.135 15.0521 308.781 16.5625 308.406 18.0625C308.052 19.5625 307.74 20.8125 307.469 21.8125L305.5 29.3125H315.219ZM368.375 34.125C368.375 36.6042 367.75 38.9583 366.5 41.1875C365.25 43.3958 363.302 45.1875 360.656 46.5625C358.031 47.9375 354.635 48.625 350.469 48.625C348.385 48.625 346.552 48.5312 344.969 48.3438C343.406 48.1562 341.948 47.8542 340.594 47.4375C339.24 47 337.833 46.4375 336.375 45.75V34.75C338.854 36 341.354 36.9583 343.875 37.625C346.396 38.2708 348.677 38.5938 350.719 38.5938C351.948 38.5938 352.948 38.4479 353.719 38.1562C354.51 37.8646 355.094 37.4688 355.469 36.9688C355.844 36.4479 356.031 35.8542 356.031 35.1875C356.031 34.3958 355.75 33.7292 355.188 33.1875C354.646 32.625 353.771 32.0417 352.562 31.4375C351.354 30.8333 349.76 30.0833 347.781 29.1875C346.094 28.3958 344.562 27.5833 343.188 26.75C341.833 25.9167 340.667 24.9688 339.688 23.9062C338.729 22.8229 337.99 21.5625 337.469 20.125C336.948 18.6875 336.688 16.9896 336.688 15.0312C336.688 12.0938 337.406 9.63542 338.844 7.65625C340.302 5.65625 342.323 4.15625 344.906 3.15625C347.51 2.15625 350.51 1.65625 353.906 1.65625C356.885 1.65625 359.562 1.98958 361.938 2.65625C364.333 3.32292 366.479 4.08333 368.375 4.9375L364.594 14.4688C362.635 13.5729 360.708 12.8646 358.812 12.3438C356.917 11.8021 355.156 11.5312 353.531 11.5312C352.469 11.5312 351.594 11.6667 350.906 11.9375C350.24 12.1875 349.74 12.5312 349.406 12.9688C349.094 13.4062 348.938 13.9062 348.938 14.4688C348.938 15.1771 349.208 15.8125 349.75 16.375C350.312 16.9375 351.24 17.5521 352.531 18.2188C353.844 18.8646 355.625 19.7083 357.875 20.75C360.104 21.75 362 22.8333 363.562 24C365.125 25.1458 366.312 26.5312 367.125 28.1562C367.958 29.7604 368.375 31.75 368.375 34.125ZM23.2812 98.7812C21.8229 98.7812 20.5208 99.0938 19.375 99.7188C18.2292 100.323 17.25 101.208 16.4375 102.375C15.625 103.542 15 104.969 14.5625 106.656C14.1458 108.323 13.9375 110.219 13.9375 112.344C13.9375 115.219 14.3021 117.635 15.0312 119.594C15.7604 121.552 16.8646 123.031 18.3438 124.031C19.8438 125.031 21.7188 125.531 23.9688 125.531C26.0104 125.531 27.9688 125.25 29.8438 124.688C31.7396 124.125 33.6458 123.448 35.5625 122.656V133.094C33.5417 133.99 31.4688 134.635 29.3438 135.031C27.2396 135.427 25 135.625 22.625 135.625C17.6667 135.625 13.6042 134.646 10.4375 132.688C7.29167 130.708 4.96875 127.969 3.46875 124.469C1.98958 120.969 1.25 116.906 1.25 112.281C1.25 108.823 1.72917 105.656 2.6875 102.781C3.66667 99.9062 5.09375 97.4167 6.96875 95.3125C8.84375 93.1875 11.1562 91.5521 13.9062 90.4062C16.6771 89.2396 19.8438 88.6562 23.4062 88.6562C25.6146 88.6562 27.9375 88.9167 30.375 89.4375C32.8333 89.9375 35.2292 90.75 37.5625 91.875L33.7812 101.594C32.1146 100.802 30.4271 100.135 28.7188 99.5938C27.0104 99.0521 25.1979 98.7812 23.2812 98.7812ZM87.25 112.094C87.25 115.615 86.8229 118.823 85.9688 121.719C85.1354 124.594 83.8229 127.073 82.0312 129.156C80.2396 131.24 77.9375 132.844 75.125 133.969C72.3125 135.073 68.9479 135.625 65.0312 135.625C61.1979 135.625 57.875 135.073 55.0625 133.969C52.2708 132.844 49.9688 131.25 48.1562 129.188C46.3438 127.104 45 124.615 44.125 121.719C43.25 118.823 42.8125 115.594 42.8125 112.031C42.8125 107.281 43.5938 103.156 45.1562 99.6562C46.7396 96.1354 49.1771 93.4167 52.4688 91.5C55.7604 89.5625 59.9688 88.5938 65.0938 88.5938C70.3021 88.5938 74.5312 89.5625 77.7812 91.5C81.0521 93.4375 83.4479 96.1667 84.9688 99.6875C86.4896 103.208 87.25 107.344 87.25 112.094ZM55.8125 112.094C55.8125 114.844 56.125 117.208 56.75 119.188C57.375 121.167 58.3646 122.688 59.7188 123.75C61.0729 124.812 62.8438 125.344 65.0312 125.344C67.3021 125.344 69.1042 124.812 70.4375 123.75C71.7917 122.688 72.7604 121.167 73.3438 119.188C73.9479 117.208 74.25 114.844 74.25 112.094C74.25 107.969 73.5625 104.708 72.1875 102.312C70.8125 99.9167 68.4479 98.7188 65.0938 98.7188C62.8646 98.7188 61.0625 99.2604 59.6875 100.344C58.3333 101.427 57.3438 102.969 56.7188 104.969C56.1146 106.969 55.8125 109.344 55.8125 112.094ZM139 135H122.812L106.125 102.812H105.844C105.948 103.792 106.042 104.969 106.125 106.344C106.208 107.719 106.281 109.125 106.344 110.562C106.406 111.979 106.438 113.26 106.438 114.406V135H95.5V89.3125H111.625L128.25 121.062H128.438C128.375 120.062 128.312 118.906 128.25 117.594C128.188 116.26 128.125 114.917 128.062 113.562C128.021 112.208 128 111.01 128 109.969V89.3125H139V135ZM169.031 135H156.688V99.4062H145.531V89.3125H180.156V99.4062H169.031V135ZM201.656 89.3125C205.802 89.3125 209.25 89.8229 212 90.8438C214.75 91.8438 216.812 93.3438 218.188 95.3438C219.583 97.3438 220.281 99.8333 220.281 102.812C220.281 104.667 219.969 106.354 219.344 107.875C218.719 109.396 217.823 110.76 216.656 111.969C215.51 113.156 214.135 114.198 212.531 115.094L225.844 135H211.844L202.156 118.375H199.031V135H186.688V89.3125H201.656ZM201.469 98.6562H199.031V109.094H201.344C203.24 109.094 204.792 108.677 206 107.844C207.208 107.01 207.812 105.521 207.812 103.375C207.812 101.896 207.312 100.74 206.312 99.9062C205.312 99.0729 203.698 98.6562 201.469 98.6562ZM258.031 135L255.781 126.438H240.938L238.625 135H225.062L239.969 89.125H256.438L271.531 135H258.031ZM253.219 116.312L251.25 108.812C251.042 108 250.74 106.844 250.344 105.344C249.948 103.823 249.552 102.26 249.156 100.656C248.781 99.0312 248.49 97.6979 248.281 96.6562C248.094 97.6979 247.823 98.9896 247.469 100.531C247.135 102.052 246.781 103.562 246.406 105.062C246.052 106.562 245.74 107.812 245.469 108.812L243.5 116.312H253.219ZM296.656 135H284.312V99.4062H273.156V89.3125H307.781V99.4062H296.656V135ZM342.344 135L340.094 126.438H325.25L322.938 135H309.375L324.281 89.125H340.75L355.844 135H342.344ZM337.531 116.312L335.562 108.812C335.354 108 335.052 106.844 334.656 105.344C334.26 103.823 333.865 102.26 333.469 100.656C333.094 99.0312 332.802 97.6979 332.594 96.6562C332.406 97.6979 332.135 98.9896 331.781 100.531C331.448 102.052 331.094 103.562 330.719 105.062C330.365 106.562 330.052 107.812 329.781 108.812L327.812 116.312H337.531ZM381.156 98.7812C379.698 98.7812 378.396 99.0938 377.25 99.7188C376.104 100.323 375.125 101.208 374.312 102.375C373.5 103.542 372.875 104.969 372.438 106.656C372.021 108.323 371.812 110.219 371.812 112.344C371.812 115.219 372.177 117.635 372.906 119.594C373.635 121.552 374.74 123.031 376.219 124.031C377.719 125.031 379.594 125.531 381.844 125.531C383.885 125.531 385.844 125.25 387.719 124.688C389.615 124.125 391.521 123.448 393.438 122.656V133.094C391.417 133.99 389.344 134.635 387.219 135.031C385.115 135.427 382.875 135.625 380.5 135.625C375.542 135.625 371.479 134.646 368.312 132.688C365.167 130.708 362.844 127.969 361.344 124.469C359.865 120.969 359.125 116.906 359.125 112.281C359.125 108.823 359.604 105.656 360.562 102.781C361.542 99.9062 362.969 97.4167 364.844 95.3125C366.719 93.1875 369.031 91.5521 371.781 90.4062C374.552 89.2396 377.719 88.6562 381.281 88.6562C383.49 88.6562 385.812 88.9167 388.25 89.4375C390.708 89.9375 393.104 90.75 395.438 91.875L391.656 101.594C389.99 100.802 388.302 100.135 386.594 99.5938C384.885 99.0521 383.073 98.7812 381.156 98.7812ZM387.5 142.875C387.5 145.146 386.719 146.958 385.156 148.312C383.594 149.688 381.51 150.375 378.906 150.375C377.448 150.375 376.125 150.26 374.938 150.031C373.75 149.802 372.771 149.552 372 149.281V143.25C372.708 143.479 373.396 143.656 374.062 143.781C374.75 143.906 375.448 143.969 376.156 143.969C376.948 143.969 377.573 143.802 378.031 143.469C378.49 143.135 378.719 142.698 378.719 142.156C378.719 141.427 378.365 140.844 377.656 140.406C376.969 139.99 375.812 139.635 374.188 139.344L376.094 135H382.188L381.594 136.906C382.448 137.094 383.333 137.396 384.25 137.812C385.167 138.229 385.938 138.833 386.562 139.625C387.188 140.417 387.5 141.5 387.5 142.875ZM445.125 112.094C445.125 115.615 444.698 118.823 443.844 121.719C443.01 124.594 441.698 127.073 439.906 129.156C438.115 131.24 435.812 132.844 433 133.969C430.188 135.073 426.823 135.625 422.906 135.625C419.073 135.625 415.75 135.073 412.938 133.969C410.146 132.844 407.844 131.25 406.031 129.188C404.219 127.104 402.875 124.615 402 121.719C401.125 118.823 400.688 115.594 400.688 112.031C400.688 107.281 401.469 103.156 403.031 99.6562C404.615 96.1354 407.052 93.4167 410.344 91.5C413.635 89.5625 417.844 88.5938 422.969 88.5938C428.177 88.5938 432.406 89.5625 435.656 91.5C438.927 93.4375 441.323 96.1667 442.844 99.6875C444.365 103.208 445.125 107.344 445.125 112.094ZM413.688 112.094C413.688 114.844 414 117.208 414.625 119.188C415.25 121.167 416.24 122.688 417.594 123.75C418.948 124.812 420.719 125.344 422.906 125.344C425.177 125.344 426.979 124.812 428.312 123.75C429.667 122.688 430.635 121.167 431.219 119.188C431.823 117.208 432.125 114.844 432.125 112.094C432.125 107.969 431.438 104.708 430.062 102.312C428.688 99.9167 426.323 98.7188 422.969 98.7188C420.74 98.7188 418.938 99.2604 417.562 100.344C416.208 101.427 415.219 102.969 414.594 104.969C413.99 106.969 413.688 109.344 413.688 112.094ZM409.719 86.0312C409.844 84.0729 410.104 82.4167 410.5 81.0625C410.917 79.7083 411.448 78.6146 412.094 77.7812C412.76 76.9271 413.552 76.3125 414.469 75.9375C415.406 75.5417 416.448 75.3438 417.594 75.3438C418.385 75.3438 419.229 75.5 420.125 75.8125C421.021 76.1042 421.927 76.4479 422.844 76.8438C423.76 77.2396 424.656 77.5938 425.531 77.9062C426.427 78.1979 427.281 78.3438 428.094 78.3438C428.469 78.3438 428.875 78.1667 429.312 77.8125C429.771 77.4583 430.104 76.6146 430.312 75.2812H436.031C435.76 79.1146 434.917 81.8542 433.5 83.5C432.104 85.1458 430.385 85.9688 428.344 85.9688C427.406 85.9688 426.458 85.8229 425.5 85.5312C424.562 85.2188 423.635 84.8646 422.719 84.4688C421.802 84.0729 420.917 83.7292 420.062 83.4375C419.208 83.125 418.385 82.9688 417.594 82.9688C417.198 82.9688 416.792 83.1354 416.375 83.4688C415.958 83.8021 415.615 84.6562 415.344 86.0312H409.719ZM480.5 135H453.375V89.3125H480.5V99.2188H465.719V106.406H479.406V116.312H465.719V124.938H480.5V135ZM518.375 121.125C518.375 123.604 517.75 125.958 516.5 128.188C515.25 130.396 513.302 132.188 510.656 133.562C508.031 134.938 504.635 135.625 500.469 135.625C498.385 135.625 496.552 135.531 494.969 135.344C493.406 135.156 491.948 134.854 490.594 134.438C489.24 134 487.833 133.438 486.375 132.75V121.75C488.854 123 491.354 123.958 493.875 124.625C496.396 125.271 498.677 125.594 500.719 125.594C501.948 125.594 502.948 125.448 503.719 125.156C504.51 124.865 505.094 124.469 505.469 123.969C505.844 123.448 506.031 122.854 506.031 122.188C506.031 121.396 505.75 120.729 505.188 120.188C504.646 119.625 503.771 119.042 502.562 118.438C501.354 117.833 499.76 117.083 497.781 116.188C496.094 115.396 494.562 114.583 493.188 113.75C491.833 112.917 490.667 111.969 489.688 110.906C488.729 109.823 487.99 108.562 487.469 107.125C486.948 105.688 486.688 103.99 486.688 102.031C486.688 99.0938 487.406 96.6354 488.844 94.6562C490.302 92.6562 492.323 91.1562 494.906 90.1562C497.51 89.1562 500.51 88.6562 503.906 88.6562C506.885 88.6562 509.562 88.9896 511.938 89.6562C514.333 90.3229 516.479 91.0833 518.375 91.9375L514.594 101.469C512.635 100.573 510.708 99.8646 508.812 99.3438C506.917 98.8021 505.156 98.5312 503.531 98.5312C502.469 98.5312 501.594 98.6667 500.906 98.9375C500.24 99.1875 499.74 99.5312 499.406 99.9688C499.094 100.406 498.938 100.906 498.938 101.469C498.938 102.177 499.208 102.812 499.75 103.375C500.312 103.938 501.24 104.552 502.531 105.219C503.844 105.865 505.625 106.708 507.875 107.75C510.104 108.75 512 109.833 513.562 111C515.125 112.146 516.312 113.531 517.125 115.156C517.958 116.76 518.375 118.75 518.375 121.125ZM534.969 118.875H524.656L523.062 89.3125H536.562L534.969 118.875ZM523.188 129.812C523.188 127.604 523.833 126.052 525.125 125.156C526.438 124.26 527.99 123.812 529.781 123.812C531.552 123.812 533.073 124.26 534.344 125.156C535.615 126.052 536.25 127.604 536.25 129.812C536.25 131.917 535.615 133.438 534.344 134.375C533.073 135.312 531.552 135.781 529.781 135.781C527.99 135.781 526.438 135.312 525.125 134.375C523.833 133.438 523.188 131.917 523.188 129.812Z"/>
</mask>
<path d="M30.0625 48V49H31.0625V48H30.0625ZM2.9375 48H1.9375V49H2.9375V48ZM2.9375 2.3125V1.3125H1.9375V2.3125H2.9375ZM30.0625 2.3125H31.0625V1.3125H30.0625V2.3125ZM30.0625 12.2188V13.2188H31.0625V12.2188H30.0625ZM15.2812 12.2188V11.2188H14.2812V12.2188H15.2812ZM15.2812 19.4062H14.2812V20.4062H15.2812V19.4062ZM28.9688 19.4062H29.9688V18.4062H28.9688V19.4062ZM28.9688 29.3125V30.3125H29.9688V29.3125H28.9688ZM15.2812 29.3125V28.3125H14.2812V29.3125H15.2812ZM15.2812 37.9375H14.2812V38.9375H15.2812V37.9375ZM30.0625 37.9375H31.0625V36.9375H30.0625V37.9375ZM30.0625 48V47H2.9375V48V49H30.0625V48ZM2.9375 48H3.9375V2.3125H2.9375H1.9375V48H2.9375ZM2.9375 2.3125V3.3125H30.0625V2.3125V1.3125H2.9375V2.3125ZM30.0625 2.3125H29.0625V12.2188H30.0625H31.0625V2.3125H30.0625ZM30.0625 12.2188V11.2188H15.2812V12.2188V13.2188H30.0625V12.2188ZM15.2812 12.2188H14.2812V19.4062H15.2812H16.2812V12.2188H15.2812ZM15.2812 19.4062V20.4062H28.9688V19.4062V18.4062H15.2812V19.4062ZM28.9688 19.4062H27.9688V29.3125H28.9688H29.9688V19.4062H28.9688ZM28.9688 29.3125V28.3125H15.2812V29.3125V30.3125H28.9688V29.3125ZM15.2812 29.3125H14.2812V37.9375H15.2812H16.2812V29.3125H15.2812ZM15.2812 37.9375V38.9375H30.0625V37.9375V36.9375H15.2812V37.9375ZM30.0625 37.9375H29.0625V48H30.0625H31.0625V37.9375H30.0625ZM38.0625 48H37.0625V49H38.0625V48ZM38.0625 2.3125V1.3125H37.0625V2.3125H38.0625ZM50.4062 2.3125H51.4062V1.3125H50.4062V2.3125ZM50.4062 38.0312H49.4062V39.0312H50.4062V38.0312ZM68 38.0312H69V37.0312H68V38.0312ZM68 48V49H69V48H68ZM38.0625 48H39.0625V2.3125H38.0625H37.0625V48H38.0625ZM38.0625 2.3125V3.3125H50.4062V2.3125V1.3125H38.0625V2.3125ZM50.4062 2.3125H49.4062V38.0312H50.4062H51.4062V2.3125H50.4062ZM50.4062 38.0312V39.0312H68V38.0312V37.0312H50.4062V38.0312ZM68 38.0312H67V48H68H69V38.0312H68ZM68 48V47H38.0625V48V49H68V48ZM102.438 48V49H103.438V48H102.438ZM75.3125 48H74.3125V49H75.3125V48ZM75.3125 2.3125V1.3125H74.3125V2.3125H75.3125ZM102.438 2.3125H103.438V1.3125H102.438V2.3125ZM102.438 12.2188V13.2188H103.438V12.2188H102.438ZM87.6562 12.2188V11.2188H86.6562V12.2188H87.6562ZM87.6562 19.4062H86.6562V20.4062H87.6562V19.4062ZM101.344 19.4062H102.344V18.4062H101.344V19.4062ZM101.344 29.3125V30.3125H102.344V29.3125H101.344ZM87.6562 29.3125V28.3125H86.6562V29.3125H87.6562ZM87.6562 37.9375H86.6562V38.9375H87.6562V37.9375ZM102.438 37.9375H103.438V36.9375H102.438V37.9375ZM102.438 48V47H75.3125V48V49H102.438V48ZM75.3125 48H76.3125V2.3125H75.3125H74.3125V48H75.3125ZM75.3125 2.3125V3.3125H102.438V2.3125V1.3125H75.3125V2.3125ZM102.438 2.3125H101.438V12.2188H102.438H103.438V2.3125H102.438ZM102.438 12.2188V11.2188H87.6562V12.2188V13.2188H102.438V12.2188ZM87.6562 12.2188H86.6562V19.4062H87.6562H88.6562V12.2188H87.6562ZM87.6562 19.4062V20.4062H101.344V19.4062V18.4062H87.6562V19.4062ZM101.344 19.4062H100.344V29.3125H101.344H102.344V19.4062H101.344ZM101.344 29.3125V28.3125H87.6562V29.3125V30.3125H101.344V29.3125ZM87.6562 29.3125H86.6562V37.9375H87.6562H88.6562V29.3125H87.6562ZM87.6562 37.9375V38.9375H102.438V37.9375V36.9375H87.6562V37.9375ZM102.438 37.9375H101.438V48H102.438H103.438V37.9375H102.438ZM149.906 2.3125L150.857 2.62385L151.286 1.3125H149.906V2.3125ZM134.938 48V49H135.662L135.888 48.3113L134.938 48ZM120.406 48L119.456 48.3102L119.681 49H120.406V48ZM105.5 2.3125V1.3125H104.122L104.549 2.62267L105.5 2.3125ZM119.375 2.3125L120.341 2.05313L120.142 1.3125H119.375V2.3125ZM125.594 25.4688L126.561 25.2154L126.56 25.2094L125.594 25.4688ZM126.375 28.8438L125.397 29.0513L125.399 29.0599L125.401 29.0686L126.375 28.8438ZM127.219 32.9062L126.235 33.0878L126.237 33.0951L126.238 33.1024L127.219 32.9062ZM127.719 36.2188L126.721 36.2917L128.714 36.3158L127.719 36.2188ZM128.188 32.9375L127.202 32.7681L128.188 32.9375ZM128.938 28.9375L127.96 28.7269L127.958 28.7384L128.938 28.9375ZM129.75 25.5938L130.712 25.8685L130.715 25.8566L129.75 25.5938ZM136.094 2.3125V1.3125H135.33L135.129 2.0496L136.094 2.3125ZM149.906 2.3125L148.956 2.00115L133.987 47.6887L134.938 48L135.888 48.3113L150.857 2.62385L149.906 2.3125ZM134.938 48V47H120.406V48V49H134.938V48ZM120.406 48L121.357 47.6898L106.451 2.00233L105.5 2.3125L104.549 2.62267L119.456 48.3102L120.406 48ZM105.5 2.3125V3.3125H119.375V2.3125V1.3125H105.5V2.3125ZM119.375 2.3125L118.409 2.57187L124.628 25.7281L125.594 25.4688L126.56 25.2094L120.341 2.05313L119.375 2.3125ZM125.594 25.4688L124.626 25.7221C124.85 26.576 125.107 27.6842 125.397 29.0513L126.375 28.8438L127.353 28.6362C127.06 27.2533 126.796 26.1115 126.561 25.2154L125.594 25.4688ZM126.375 28.8438L125.401 29.0686C125.71 30.4085 125.988 31.7483 126.235 33.0878L127.219 32.9062L128.202 32.7247C127.949 31.3559 127.665 29.9873 127.349 28.6189L126.375 28.8438ZM127.219 32.9062L126.238 33.1024C126.505 34.4372 126.663 35.4961 126.721 36.2917L127.719 36.2188L128.716 36.1458C128.649 35.2331 128.474 34.0836 128.199 32.7101L127.219 32.9062ZM127.719 36.2188L128.714 36.3158C128.794 35.4955 128.946 34.4282 129.173 33.1069L128.188 32.9375L127.202 32.7681C126.971 34.1135 126.81 35.2336 126.723 36.1217L127.719 36.2188ZM128.188 32.9375L129.173 33.1069C129.401 31.7835 129.649 30.4601 129.917 29.1366L128.938 28.9375L127.958 28.7384C127.685 30.0816 127.433 31.4248 127.202 32.7681L128.188 32.9375ZM128.938 28.9375L129.915 29.1481C130.204 27.8056 130.47 26.7144 130.712 25.8685L129.75 25.5938L128.788 25.319C128.53 26.2231 128.254 27.3611 127.96 28.7269L128.938 28.9375ZM129.75 25.5938L130.715 25.8566L137.059 2.5754L136.094 2.3125L135.129 2.0496L128.785 25.3309L129.75 25.5938ZM136.094 2.3125V3.3125H149.906V2.3125V1.3125H136.094V2.3125ZM182 48V49H183V48H182ZM154.875 48H153.875V49H154.875V48ZM154.875 2.3125V1.3125H153.875V2.3125H154.875ZM182 2.3125H183V1.3125H182V2.3125ZM182 12.2188V13.2188H183V12.2188H182ZM167.219 12.2188V11.2188H166.219V12.2188H167.219ZM167.219 19.4062H166.219V20.4062H167.219V19.4062ZM180.906 19.4062H181.906V18.4062H180.906V19.4062ZM180.906 29.3125V30.3125H181.906V29.3125H180.906ZM167.219 29.3125V28.3125H166.219V29.3125H167.219ZM167.219 37.9375H166.219V38.9375H167.219V37.9375ZM182 37.9375H183V36.9375H182V37.9375ZM182 48V47H154.875V48V49H182V48ZM154.875 48H155.875V2.3125H154.875H153.875V48H154.875ZM154.875 2.3125V3.3125H182V2.3125V1.3125H154.875V2.3125ZM182 2.3125H181V12.2188H182H183V2.3125H182ZM182 12.2188V11.2188H167.219V12.2188V13.2188H182V12.2188ZM167.219 12.2188H166.219V19.4062H167.219H168.219V12.2188H167.219ZM167.219 19.4062V20.4062H180.906V19.4062V18.4062H167.219V19.4062ZM180.906 19.4062H179.906V29.3125H180.906H181.906V19.4062H180.906ZM180.906 29.3125V28.3125H167.219V29.3125V30.3125H180.906V29.3125ZM167.219 29.3125H166.219V37.9375H167.219H168.219V29.3125H167.219ZM167.219 37.9375V38.9375H182V37.9375V36.9375H167.219V37.9375ZM182 37.9375H181V48H182H183V37.9375H182ZM234.625 41.1875L235.495 41.6801L235.497 41.6766L234.625 41.1875ZM228.781 46.5625L228.32 45.6752L228.317 45.6767L228.781 46.5625ZM213.094 48.3438L212.975 49.3366L212.976 49.3368L213.094 48.3438ZM208.719 47.4375L208.411 48.3892L208.425 48.3933L208.719 47.4375ZM204.5 45.75H203.5V46.3841L204.074 46.6545L204.5 45.75ZM204.5 34.75L204.95 33.8571L203.5 33.1259V34.75H204.5ZM212 37.625L211.744 38.5918L211.752 38.5937L212 37.625ZM221.844 38.1562L221.498 37.2179L221.49 37.221L221.844 38.1562ZM223.594 36.9688L224.394 37.5688L224.4 37.561L224.405 37.5531L223.594 36.9688ZM223.312 33.1875L222.592 33.8811L222.605 33.8947L222.619 33.9078L223.312 33.1875ZM220.688 31.4375L220.24 32.3319L220.688 31.4375ZM215.906 29.1875L215.481 30.0929L215.494 30.0985L215.906 29.1875ZM211.312 26.75L210.788 27.6017L210.794 27.6052L211.312 26.75ZM207.812 23.9062L207.064 24.5688L207.07 24.5764L207.077 24.5839L207.812 23.9062ZM206.969 7.65625L206.161 7.06708L206.16 7.06858L206.969 7.65625ZM213.031 3.15625L212.673 2.22271L212.67 2.22368L213.031 3.15625ZM230.062 2.65625L229.792 3.61904L229.794 3.61965L230.062 2.65625ZM236.5 4.9375L237.43 5.30626L237.782 4.41822L236.911 4.02577L236.5 4.9375ZM232.719 14.4688L232.303 15.3781L233.26 15.816L233.648 14.8375L232.719 14.4688ZM226.938 12.3438L226.663 13.3053L226.673 13.308L226.938 12.3438ZM219.031 11.9375L219.382 12.8738L219.39 12.8709L219.398 12.8679L219.031 11.9375ZM217.531 12.9688L216.736 12.3627L216.726 12.375L216.718 12.3875L217.531 12.9688ZM217.875 16.375L217.155 17.0686L217.161 17.0754L217.168 17.0821L217.875 16.375ZM220.656 18.2188L220.198 19.1074L220.206 19.1118L220.215 19.116L220.656 18.2188ZM226 20.75L225.58 21.6575L225.591 21.6624L226 20.75ZM231.688 24L231.089 24.8013L231.096 24.8064L231.688 24ZM235.25 28.1562L234.356 28.6035L234.359 28.6104L234.363 28.6172L235.25 28.1562ZM236.5 34.125H235.5C235.5 36.4274 234.922 38.6138 233.753 40.6984L234.625 41.1875L235.497 41.6766C236.828 39.3028 237.5 36.7809 237.5 34.125H236.5ZM234.625 41.1875L233.755 40.6949C232.616 42.7071 230.825 44.3735 228.32 45.6752L228.781 46.5625L229.242 47.4498C232.029 46.0015 234.134 44.0845 235.495 41.6801L234.625 41.1875ZM228.781 46.5625L228.317 45.6767C225.882 46.9525 222.661 47.625 218.594 47.625V48.625V49.625C222.86 49.625 226.431 48.9225 229.245 47.4483L228.781 46.5625ZM218.594 48.625V47.625C216.539 47.625 214.746 47.5324 213.211 47.3507L213.094 48.3438L212.976 49.3368C214.608 49.5301 216.482 49.625 218.594 49.625V48.625ZM213.094 48.3438L213.213 47.3509C211.703 47.1697 210.304 46.879 209.013 46.4817L208.719 47.4375L208.425 48.3933C209.842 48.8293 211.359 49.1428 212.975 49.3366L213.094 48.3438ZM208.719 47.4375L209.026 46.4859C207.718 46.0631 206.351 45.5171 204.926 44.8455L204.5 45.75L204.074 46.6545C205.566 47.3579 207.012 47.9369 208.411 48.3891L208.719 47.4375ZM204.5 45.75H205.5V34.75H204.5H203.5V45.75H204.5ZM204.5 34.75L204.05 35.6429C206.587 36.9222 209.152 37.9062 211.744 38.5918L212 37.625L212.256 36.6582C209.806 36.0105 207.371 35.0778 204.95 33.8571L204.5 34.75ZM212 37.625L211.752 38.5937C214.333 39.2549 216.699 39.5938 218.844 39.5938V38.5938V37.5938C216.905 37.5938 214.709 37.2867 212.248 36.6563L212 37.625ZM218.844 38.5938V39.5938C220.14 39.5938 221.273 39.4416 222.198 39.0915L221.844 38.1562L221.49 37.221C220.873 37.4543 220.006 37.5938 218.844 37.5938V38.5938ZM221.844 38.1562L222.189 39.0946C223.1 38.759 223.869 38.2682 224.394 37.5688L223.594 36.9688L222.794 36.3687C222.568 36.6693 222.17 36.9702 221.498 37.2179L221.844 38.1562ZM223.594 36.9688L224.405 37.5531C224.908 36.8551 225.156 36.0552 225.156 35.1875H224.156H223.156C223.156 35.6531 223.03 36.0407 222.782 36.3844L223.594 36.9688ZM224.156 35.1875H225.156C225.156 34.1283 224.767 33.2003 224.006 32.4672L223.312 33.1875L222.619 33.9078C222.983 34.2581 223.156 34.6634 223.156 35.1875H224.156ZM223.312 33.1875L224.033 32.4939C223.375 31.8106 222.382 31.1666 221.135 30.5431L220.688 31.4375L220.24 32.3319C221.41 32.9167 222.167 33.4394 222.592 33.8811L223.312 33.1875ZM220.688 31.4375L221.135 30.5431C219.91 29.9308 218.303 29.1749 216.319 28.2765L215.906 29.1875L215.494 30.0985C217.467 30.9918 219.048 31.7359 220.24 32.3319L220.688 31.4375ZM215.906 29.1875L216.331 28.2822C214.671 27.5032 213.171 26.7072 211.831 25.8948L211.312 26.75L210.794 27.6052C212.204 28.4595 213.767 29.2884 215.482 30.0928L215.906 29.1875ZM211.312 26.75L211.837 25.8983C210.553 25.1083 209.459 24.2173 208.548 23.2286L207.812 23.9062L207.077 24.5839C208.124 25.7202 209.364 26.7251 210.788 27.6017L211.312 26.75ZM207.812 23.9062L208.561 23.2437C207.691 22.26 207.014 21.1103 206.534 19.7844L205.594 20.125L204.654 20.4656C205.215 22.0147 206.017 23.3859 207.064 24.5688L207.812 23.9062ZM205.594 20.125L206.534 19.7844C206.062 18.4819 205.812 16.9045 205.812 15.0312H204.812H203.812C203.812 17.0747 204.084 18.8931 204.654 20.4656L205.594 20.125ZM204.812 15.0312H205.812C205.812 12.2614 206.488 10.0202 207.778 8.24392L206.969 7.65625L206.16 7.06858C204.575 9.25066 203.812 11.9261 203.812 15.0312H204.812ZM206.969 7.65625L207.777 8.24542C209.109 6.4184 210.966 5.0281 213.392 4.08882L213.031 3.15625L212.67 2.22368C209.93 3.2844 207.745 4.8941 206.161 7.06708L206.969 7.65625ZM213.031 3.15625L213.39 4.08979C215.858 3.14212 218.732 2.65625 222.031 2.65625V1.65625V0.65625C218.539 0.65625 215.413 1.17038 212.673 2.22271L213.031 3.15625ZM222.031 1.65625V2.65625C224.937 2.65625 227.521 2.98155 229.792 3.61904L230.062 2.65625L230.333 1.69346C227.854 0.997614 225.084 0.65625 222.031 0.65625V1.65625ZM230.062 2.65625L229.794 3.61965C232.151 4.27528 234.247 5.01944 236.089 5.84923L236.5 4.9375L236.911 4.02577C234.961 3.14722 232.766 2.37056 230.331 1.69285L230.062 2.65625ZM236.5 4.9375L235.57 4.56874L231.789 14.1L232.719 14.4688L233.648 14.8375L237.43 5.30626L236.5 4.9375ZM232.719 14.4688L233.135 13.5594C231.132 12.6433 229.155 11.9158 227.202 11.3795L226.938 12.3438L226.673 13.308C228.512 13.8134 230.389 14.5025 232.303 15.3781L232.719 14.4688ZM226.938 12.3438L227.212 11.3822C225.245 10.8203 223.391 10.5312 221.656 10.5312V11.5312V12.5312C223.171 12.5312 224.838 12.7839 226.663 13.3053L226.938 12.3438ZM221.656 11.5312V10.5312C220.519 10.5312 219.508 10.6748 218.665 11.0071L219.031 11.9375L219.398 12.8679C219.929 12.6585 220.669 12.5312 221.656 12.5312V11.5312ZM219.031 11.9375L218.68 11.0012C217.888 11.2981 217.212 11.7373 216.736 12.3627L217.531 12.9688L218.327 13.5748C218.517 13.3252 218.841 13.0769 219.382 12.8738L219.031 11.9375ZM217.531 12.9688L216.718 12.3875C216.278 13.0028 216.062 13.7081 216.062 14.4688H217.062H218.062C218.062 14.1044 218.159 13.8097 218.345 13.55L217.531 12.9688ZM217.062 14.4688H216.062C216.062 15.4633 216.454 16.3406 217.155 17.0686L217.875 16.375L218.595 15.6814C218.213 15.2844 218.062 14.8908 218.062 14.4688H217.062ZM217.875 16.375L217.168 17.0821C217.84 17.7546 218.877 18.4257 220.198 19.1074L220.656 18.2188L221.115 17.3301C219.852 16.6785 219.035 16.1204 218.582 15.6679L217.875 16.375ZM220.656 18.2188L220.215 19.116C221.538 19.7669 223.327 20.6144 225.58 21.6575L226 20.75L226.42 19.8425C224.173 18.8023 222.4 17.9623 221.098 17.3215L220.656 18.2188ZM226 20.75L225.591 21.6624C227.769 22.6396 229.598 23.6878 231.089 24.8013L231.688 24L232.286 23.1987C230.652 21.9788 228.689 20.8604 226.409 19.8376L226 20.75ZM231.688 24L231.096 24.8064C232.539 25.8647 233.619 27.13 234.356 28.6035L235.25 28.1562L236.144 27.709C235.256 25.9325 233.961 24.427 232.279 23.1936L231.688 24ZM235.25 28.1562L234.363 28.6172C235.102 30.0414 235.5 31.8619 235.5 34.125H236.5H237.5C237.5 31.6381 237.064 29.4794 236.137 27.6953L235.25 28.1562ZM282.406 2.3125H283.406V1.3125H282.406V2.3125ZM280.219 39.8125L281.107 40.2728L281.108 40.2701L280.219 39.8125ZM273.656 46.3438L274.119 47.2305L274.124 47.2278L273.656 46.3438ZM243.312 2.3125V1.3125H242.312V2.3125H243.312ZM255.719 2.3125H256.719V1.3125H255.719V2.3125ZM267 37.4062L267.507 38.2682L267.513 38.2645L267.519 38.2608L267 37.4062ZM269.312 34.375L268.373 34.0332L268.368 34.0459L269.312 34.375ZM270.062 2.3125V1.3125H269.062V2.3125H270.062ZM282.406 2.3125H281.406V29.8125H282.406H283.406V2.3125H282.406ZM282.406 29.8125H281.406C281.406 33.5187 280.702 36.689 279.33 39.3549L280.219 39.8125L281.108 40.2701C282.652 37.2693 283.406 33.773 283.406 29.8125H282.406ZM280.219 39.8125L279.331 39.3522C277.97 41.9761 275.933 44.009 273.189 45.4597L273.656 46.3438L274.124 47.2278C277.212 45.5952 279.55 43.2739 281.107 40.2728L280.219 39.8125ZM273.656 46.3438L273.194 45.4571C270.46 46.8827 266.974 47.625 262.688 47.625V48.625V49.625C267.192 49.625 271.019 48.8465 274.119 47.2304L273.656 46.3438ZM262.688 48.625V47.625C256.561 47.625 252.046 46.0548 248.979 43.0652L248.281 43.7812L247.583 44.4973C251.141 47.966 256.231 49.625 262.688 49.625V48.625ZM248.281 43.7812L248.979 43.0652C245.909 40.0725 244.312 35.7979 244.312 30.0938H243.312H242.312C242.312 36.1812 244.028 41.0317 247.583 44.4973L248.281 43.7812ZM243.312 30.0938H244.312V2.3125H243.312H242.312V30.0938H243.312ZM243.312 2.3125V3.3125H255.719V2.3125V1.3125H243.312V2.3125ZM255.719 2.3125H254.719V29.125H255.719H256.719V2.3125H255.719ZM255.719 29.125H254.719C254.719 32.4373 255.331 35.0677 256.761 36.7943L257.531 36.1562L258.301 35.5182C257.315 34.3281 256.719 32.271 256.719 29.125H255.719ZM257.531 36.1562L256.761 36.7943C258.205 38.5365 260.302 39.3438 262.875 39.3438V38.3438V37.3438C260.74 37.3438 259.274 36.6927 258.301 35.5182L257.531 36.1562ZM262.875 38.3438V39.3438C264.678 39.3438 266.244 39.011 267.507 38.2682L267 37.4062L266.493 36.5443C265.631 37.0515 264.447 37.3438 262.875 37.3438V38.3438ZM267 37.4062L267.519 38.2608C268.813 37.4744 269.715 36.2589 270.257 34.7041L269.312 34.375L268.368 34.0459C267.952 35.2411 267.312 36.0464 266.481 36.5517L267 37.4062ZM269.312 34.375L270.252 34.7167C270.806 33.193 271.062 31.295 271.062 29.0625H270.062H269.062C269.062 31.1633 268.819 32.807 268.373 34.0333L269.312 34.375ZM270.062 29.0625H271.062V2.3125H270.062H269.062V29.0625H270.062ZM270.062 2.3125V3.3125H282.406V2.3125V1.3125H270.062V2.3125ZM320.031 48L319.064 48.2541L319.26 49H320.031V48ZM317.781 39.4375L318.748 39.1834L318.552 38.4375H317.781V39.4375ZM302.938 39.4375V38.4375H302.172L301.972 39.1768L302.938 39.4375ZM300.625 48V49H301.391L301.59 48.2607L300.625 48ZM287.062 48L286.111 47.691L285.686 49H287.062V48ZM301.969 2.125V1.125H301.242L301.018 1.81597L301.969 2.125ZM318.438 2.125L319.387 1.81246L319.161 1.125H318.438V2.125ZM333.531 48V49H334.913L334.481 47.6875L333.531 48ZM315.219 29.3125V30.3125H316.515L316.186 29.0586L315.219 29.3125ZM313.25 21.8125L312.281 22.0609L312.283 22.0664L313.25 21.8125ZM312.344 18.3438L311.376 18.5956L311.377 18.5989L312.344 18.3438ZM311.156 13.6562L310.182 13.8811L310.184 13.8885L310.185 13.8958L311.156 13.6562ZM310.281 9.65625L311.262 9.46013L309.297 9.4791L310.281 9.65625ZM309.469 13.5312L308.494 13.3073L308.492 13.3172L309.469 13.5312ZM308.406 18.0625L307.436 17.8199L307.433 17.8327L308.406 18.0625ZM307.469 21.8125L306.503 21.5511L306.502 21.5586L307.469 21.8125ZM305.5 29.3125L304.533 29.0586L304.204 30.3125H305.5V29.3125ZM320.031 48L320.998 47.7459L318.748 39.1834L317.781 39.4375L316.814 39.6916L319.064 48.2541L320.031 48ZM317.781 39.4375V38.4375H302.938V39.4375V40.4375H317.781V39.4375ZM302.938 39.4375L301.972 39.1768L299.66 47.7393L300.625 48L301.59 48.2607L303.903 39.6982L302.938 39.4375ZM300.625 48V47H287.062V48V49H300.625V48ZM287.062 48L288.014 48.309L302.92 2.43403L301.969 2.125L301.018 1.81597L286.111 47.691L287.062 48ZM301.969 2.125V3.125H318.438V2.125V1.125H301.969V2.125ZM318.438 2.125L317.488 2.43754L332.581 48.3125L333.531 48L334.481 47.6875L319.387 1.81246L318.438 2.125ZM333.531 48V47H320.031V48V49H333.531V48ZM315.219 29.3125L316.186 29.0586L314.217 21.5586L313.25 21.8125L312.283 22.0664L314.252 29.5664L315.219 29.3125ZM313.25 21.8125L314.219 21.5641C314.009 20.7482 313.707 19.5893 313.311 18.0886L312.344 18.3438L311.377 18.5989C311.772 20.0982 312.074 21.2518 312.281 22.0609L313.25 21.8125ZM312.344 18.3438L313.312 18.0919C312.917 16.5753 312.522 15.0169 312.127 13.4167L311.156 13.6562L310.185 13.8958C310.582 15.5039 310.979 17.0705 311.376 18.5956L312.344 18.3438ZM311.156 13.6562L312.131 13.4314C311.757 11.8112 311.467 10.4884 311.262 9.46013L310.281 9.65625L309.301 9.85237C309.512 10.9074 309.806 12.2513 310.182 13.8811L311.156 13.6562ZM310.281 9.65625L309.297 9.4791C309.113 10.4995 308.846 11.7744 308.494 13.3074L309.469 13.5312L310.443 13.7551C310.8 12.2047 311.074 10.8963 311.265 9.8334L310.281 9.65625ZM309.469 13.5312L308.492 13.3172C308.161 14.8285 307.809 16.3295 307.436 17.82L308.406 18.0625L309.376 18.305C309.754 16.7955 310.11 15.2756 310.446 13.7453L309.469 13.5312ZM308.406 18.0625L307.433 17.8327C307.08 19.3267 306.771 20.5653 306.504 21.5511L307.469 21.8125L308.434 22.0739C308.709 21.0597 309.024 19.7983 309.379 18.2923L308.406 18.0625ZM307.469 21.8125L306.502 21.5586L304.533 29.0586L305.5 29.3125L306.467 29.5664L308.436 22.0664L307.469 21.8125ZM305.5 29.3125V30.3125H315.219V29.3125V28.3125H305.5V29.3125ZM366.5 41.1875L367.37 41.6801L367.372 41.6766L366.5 41.1875ZM360.656 46.5625L360.195 45.6752L360.192 45.6767L360.656 46.5625ZM344.969 48.3438L344.85 49.3366L344.851 49.3368L344.969 48.3438ZM340.594 47.4375L340.286 48.3892L340.3 48.3933L340.594 47.4375ZM336.375 45.75H335.375V46.3841L335.949 46.6545L336.375 45.75ZM336.375 34.75L336.825 33.8571L335.375 33.1259V34.75H336.375ZM343.875 37.625L343.619 38.5918L343.627 38.5937L343.875 37.625ZM353.719 38.1562L353.373 37.2179L353.365 37.221L353.719 38.1562ZM355.469 36.9688L356.269 37.5688L356.275 37.561L356.28 37.5531L355.469 36.9688ZM355.188 33.1875L354.467 33.8811L354.48 33.8947L354.494 33.9078L355.188 33.1875ZM352.562 31.4375L352.115 32.3319L352.562 31.4375ZM347.781 29.1875L347.356 30.0929L347.369 30.0985L347.781 29.1875ZM343.188 26.75L342.663 27.6017L342.669 27.6052L343.188 26.75ZM339.688 23.9062L338.939 24.5688L338.945 24.5764L338.952 24.5839L339.688 23.9062ZM338.844 7.65625L338.036 7.06708L338.035 7.06858L338.844 7.65625ZM344.906 3.15625L344.548 2.22271L344.545 2.22368L344.906 3.15625ZM361.938 2.65625L361.667 3.61904L361.669 3.61965L361.938 2.65625ZM368.375 4.9375L369.305 5.30626L369.657 4.41822L368.786 4.02577L368.375 4.9375ZM364.594 14.4688L364.178 15.3781L365.135 15.816L365.523 14.8375L364.594 14.4688ZM358.812 12.3438L358.538 13.3053L358.548 13.308L358.812 12.3438ZM350.906 11.9375L351.257 12.8738L351.265 12.8709L351.273 12.8679L350.906 11.9375ZM349.406 12.9688L348.611 12.3627L348.601 12.375L348.593 12.3875L349.406 12.9688ZM349.75 16.375L349.03 17.0686L349.036 17.0754L349.043 17.0821L349.75 16.375ZM352.531 18.2188L352.073 19.1074L352.081 19.1118L352.09 19.116L352.531 18.2188ZM357.875 20.75L357.455 21.6575L357.466 21.6624L357.875 20.75ZM363.562 24L362.964 24.8013L362.971 24.8064L363.562 24ZM367.125 28.1562L366.231 28.6035L366.234 28.6104L366.238 28.6172L367.125 28.1562ZM368.375 34.125H367.375C367.375 36.4274 366.797 38.6138 365.628 40.6984L366.5 41.1875L367.372 41.6766C368.703 39.3028 369.375 36.7809 369.375 34.125H368.375ZM366.5 41.1875L365.63 40.6949C364.491 42.7071 362.7 44.3735 360.195 45.6752L360.656 46.5625L361.117 47.4498C363.904 46.0015 366.009 44.0845 367.37 41.6801L366.5 41.1875ZM360.656 46.5625L360.192 45.6767C357.757 46.9525 354.536 47.625 350.469 47.625V48.625V49.625C354.735 49.625 358.306 48.9225 361.12 47.4483L360.656 46.5625ZM350.469 48.625V47.625C348.414 47.625 346.621 47.5324 345.086 47.3507L344.969 48.3438L344.851 49.3368C346.483 49.5301 348.357 49.625 350.469 49.625V48.625ZM344.969 48.3438L345.088 47.3509C343.578 47.1697 342.179 46.879 340.888 46.4817L340.594 47.4375L340.3 48.3933C341.717 48.8293 343.234 49.1428 344.85 49.3366L344.969 48.3438ZM340.594 47.4375L340.901 46.4859C339.593 46.0631 338.226 45.5171 336.801 44.8455L336.375 45.75L335.949 46.6545C337.441 47.3579 338.887 47.9369 340.286 48.3891L340.594 47.4375ZM336.375 45.75H337.375V34.75H336.375H335.375V45.75H336.375ZM336.375 34.75L335.925 35.6429C338.462 36.9222 341.027 37.9062 343.619 38.5918L343.875 37.625L344.131 36.6582C341.681 36.0105 339.246 35.0778 336.825 33.8571L336.375 34.75ZM343.875 37.625L343.627 38.5937C346.208 39.2549 348.574 39.5938 350.719 39.5938V38.5938V37.5938C348.78 37.5938 346.584 37.2867 344.123 36.6563L343.875 37.625ZM350.719 38.5938V39.5938C352.015 39.5938 353.148 39.4416 354.073 39.0915L353.719 38.1562L353.365 37.221C352.748 37.4543 351.881 37.5938 350.719 37.5938V38.5938ZM353.719 38.1562L354.064 39.0946C354.975 38.759 355.744 38.2682 356.269 37.5688L355.469 36.9688L354.669 36.3687C354.443 36.6693 354.045 36.9702 353.373 37.2179L353.719 38.1562ZM355.469 36.9688L356.28 37.5531C356.783 36.8551 357.031 36.0552 357.031 35.1875H356.031H355.031C355.031 35.6531 354.905 36.0407 354.657 36.3844L355.469 36.9688ZM356.031 35.1875H357.031C357.031 34.1283 356.642 33.2003 355.881 32.4672L355.188 33.1875L354.494 33.9078C354.858 34.2581 355.031 34.6634 355.031 35.1875H356.031ZM355.188 33.1875L355.908 32.4939C355.25 31.8106 354.257 31.1666 353.01 30.5431L352.562 31.4375L352.115 32.3319C353.285 32.9167 354.042 33.4394 354.467 33.8811L355.188 33.1875ZM352.562 31.4375L353.01 30.5431C351.785 29.9308 350.178 29.1749 348.194 28.2765L347.781 29.1875L347.369 30.0985C349.342 30.9918 350.923 31.7359 352.115 32.3319L352.562 31.4375ZM347.781 29.1875L348.206 28.2822C346.546 27.5032 345.046 26.7072 343.706 25.8948L343.188 26.75L342.669 27.6052C344.079 28.4595 345.642 29.2884 347.357 30.0928L347.781 29.1875ZM343.188 26.75L343.712 25.8983C342.428 25.1083 341.334 24.2173 340.423 23.2286L339.688 23.9062L338.952 24.5839C339.999 25.7202 341.239 26.7251 342.663 27.6017L343.188 26.75ZM339.688 23.9062L340.436 23.2437C339.566 22.26 338.889 21.1103 338.409 19.7844L337.469 20.125L336.529 20.4656C337.09 22.0147 337.892 23.3859 338.939 24.5688L339.688 23.9062ZM337.469 20.125L338.409 19.7844C337.937 18.4819 337.688 16.9045 337.688 15.0312H336.688H335.688C335.688 17.0747 335.959 18.8931 336.529 20.4656L337.469 20.125ZM336.688 15.0312H337.688C337.688 12.2614 338.363 10.0202 339.653 8.24392L338.844 7.65625L338.035 7.06858C336.45 9.25066 335.688 11.9261 335.688 15.0312H336.688ZM338.844 7.65625L339.652 8.24542C340.984 6.4184 342.841 5.0281 345.267 4.08882L344.906 3.15625L344.545 2.22368C341.805 3.2844 339.62 4.8941 338.036 7.06708L338.844 7.65625ZM344.906 3.15625L345.265 4.08979C347.733 3.14212 350.607 2.65625 353.906 2.65625V1.65625V0.65625C350.414 0.65625 347.288 1.17038 344.548 2.22271L344.906 3.15625ZM353.906 1.65625V2.65625C356.812 2.65625 359.396 2.98155 361.667 3.61904L361.938 2.65625L362.208 1.69346C359.729 0.997614 356.959 0.65625 353.906 0.65625V1.65625ZM361.938 2.65625L361.669 3.61965C364.026 4.27528 366.122 5.01944 367.964 5.84923L368.375 4.9375L368.786 4.02577C366.836 3.14722 364.641 2.37056 362.206 1.69285L361.938 2.65625ZM368.375 4.9375L367.445 4.56874L363.664 14.1L364.594 14.4688L365.523 14.8375L369.305 5.30626L368.375 4.9375ZM364.594 14.4688L365.01 13.5594C363.007 12.6433 361.03 11.9158 359.077 11.3795L358.812 12.3438L358.548 13.308C360.387 13.8134 362.264 14.5025 364.178 15.3781L364.594 14.4688ZM358.812 12.3438L359.087 11.3822C357.12 10.8203 355.266 10.5312 353.531 10.5312V11.5312V12.5312C355.046 12.5312 356.713 12.7839 358.538 13.3053L358.812 12.3438ZM353.531 11.5312V10.5312C352.394 10.5312 351.383 10.6748 350.54 11.0071L350.906 11.9375L351.273 12.8679C351.804 12.6585 352.544 12.5312 353.531 12.5312V11.5312ZM350.906 11.9375L350.555 11.0012C349.763 11.2981 349.087 11.7373 348.611 12.3627L349.406 12.9688L350.202 13.5748C350.392 13.3252 350.716 13.0769 351.257 12.8738L350.906 11.9375ZM349.406 12.9688L348.593 12.3875C348.153 13.0028 347.938 13.7081 347.938 14.4688H348.938H349.938C349.938 14.1044 350.034 13.8097 350.22 13.55L349.406 12.9688ZM348.938 14.4688H347.938C347.938 15.4633 348.329 16.3406 349.03 17.0686L349.75 16.375L350.47 15.6814C350.088 15.2844 349.938 14.8908 349.938 14.4688H348.938ZM349.75 16.375L349.043 17.0821C349.715 17.7546 350.752 18.4257 352.073 19.1074L352.531 18.2188L352.99 17.3301C351.727 16.6785 350.91 16.1204 350.457 15.6679L349.75 16.375ZM352.531 18.2188L352.09 19.116C353.413 19.7669 355.202 20.6144 357.455 21.6575L357.875 20.75L358.295 19.8425C356.048 18.8023 354.275 17.9623 352.973 17.3215L352.531 18.2188ZM357.875 20.75L357.466 21.6624C359.644 22.6396 361.473 23.6878 362.964 24.8013L363.562 24L364.161 23.1987C362.527 21.9788 360.564 20.8604 358.284 19.8376L357.875 20.75ZM363.562 24L362.971 24.8064C364.414 25.8647 365.494 27.13 366.231 28.6035L367.125 28.1562L368.019 27.709C367.131 25.9325 365.836 24.427 364.154 23.1936L363.562 24ZM367.125 28.1562L366.238 28.6172C366.977 30.0414 367.375 31.8619 367.375 34.125H368.375H369.375C369.375 31.6381 368.939 29.4794 368.012 27.6953L367.125 28.1562ZM19.375 99.7188L19.8415 100.603L19.8539 100.597L19.375 99.7188ZM16.4375 102.375L15.6169 101.804L16.4375 102.375ZM14.5625 106.656L13.5945 106.405L13.5924 106.414L14.5625 106.656ZM18.3438 124.031L17.7837 124.86L17.789 124.863L18.3438 124.031ZM29.8438 124.688L29.5593 123.729L29.5564 123.73L29.8438 124.688ZM35.5625 122.656H36.5625V121.161L35.1807 121.732L35.5625 122.656ZM35.5625 133.094L35.9678 134.008L36.5625 133.744V133.094H35.5625ZM29.3438 135.031L29.1606 134.048L29.1589 134.048L29.3438 135.031ZM10.4375 132.688L9.90497 133.534L9.91153 133.538L10.4375 132.688ZM3.46875 124.469L2.54762 124.858L2.5496 124.863L3.46875 124.469ZM2.6875 102.781L1.74087 102.459L1.73882 102.465L2.6875 102.781ZM6.96875 95.3125L7.71535 95.9778L7.71859 95.9741L6.96875 95.3125ZM13.9062 90.4062L14.2909 91.3293L14.2943 91.3279L13.9062 90.4062ZM30.375 89.4375L30.166 90.4155L30.1757 90.4174L30.375 89.4375ZM37.5625 91.875L38.4944 92.2376L38.8297 91.3758L37.9968 90.9742L37.5625 91.875ZM33.7812 101.594L33.3522 102.497L34.3234 102.958L34.7132 101.956L33.7812 101.594ZM28.7188 99.5938L28.4165 100.547L28.7188 99.5938ZM23.2812 98.7812V97.7812C21.6756 97.7812 20.2055 98.1267 18.8961 98.8409L19.375 99.7188L19.8539 100.597C20.8362 100.061 21.9703 99.7812 23.2812 99.7812V98.7812ZM19.375 99.7188L18.9086 98.8342C17.608 99.52 16.5117 100.519 15.6169 101.804L16.4375 102.375L17.2581 102.946C17.9883 101.898 18.8504 101.126 19.8414 100.603L19.375 99.7188ZM16.4375 102.375L15.6169 101.804C14.7233 103.087 14.0552 104.628 13.5945 106.405L14.5625 106.656L15.5305 106.907C15.9448 105.309 16.5267 103.997 17.2581 102.946L16.4375 102.375ZM14.5625 106.656L13.5924 106.414C13.1518 108.176 12.9375 110.155 12.9375 112.344H13.9375H14.9375C14.9375 110.282 15.1398 108.47 15.5326 106.899L14.5625 106.656ZM13.9375 112.344H12.9375C12.9375 115.296 13.311 117.839 14.0941 119.943L15.0312 119.594L15.9684 119.245C15.2932 117.431 14.9375 115.141 14.9375 112.344H13.9375ZM15.0312 119.594L14.0941 119.943C14.8832 122.062 16.1039 123.724 17.7837 124.86L18.3438 124.031L18.9038 123.203C17.6252 122.338 16.6376 121.042 15.9684 119.245L15.0312 119.594ZM18.3438 124.031L17.789 124.863C19.4899 125.997 21.5704 126.531 23.9688 126.531V125.531V124.531C21.8671 124.531 20.1976 124.065 18.8985 123.199L18.3438 124.031ZM23.9688 125.531V126.531C26.1035 126.531 28.1589 126.237 30.1311 125.645L29.8438 124.688L29.5564 123.73C27.7786 124.263 25.9173 124.531 23.9688 124.531V125.531ZM29.8438 124.688L30.1282 125.646C32.0586 125.073 33.9973 124.385 35.9443 123.581L35.5625 122.656L35.1807 121.732C33.2944 122.511 31.4206 123.177 29.5593 123.729L29.8438 124.688ZM35.5625 122.656H34.5625V133.094H35.5625H36.5625V122.656H35.5625ZM35.5625 133.094L35.1572 132.18C33.2059 133.045 31.2074 133.667 29.1606 134.048L29.3438 135.031L29.5269 136.014C31.7301 135.604 33.8774 134.935 35.9678 134.008L35.5625 133.094ZM29.3438 135.031L29.1589 134.048C27.1219 134.432 24.9446 134.625 22.625 134.625V135.625V136.625C25.0554 136.625 27.3573 136.422 29.5286 136.014L29.3438 135.031ZM22.625 135.625V134.625C17.7925 134.625 13.9279 133.67 10.9635 131.837L10.4375 132.688L9.91153 133.538C13.2805 135.621 17.5408 136.625 22.625 136.625V135.625ZM10.4375 132.688L10.97 131.841C8.00044 129.973 5.81003 127.393 4.3879 124.075L3.46875 124.469L2.5496 124.863C4.12747 128.544 6.58289 131.444 9.90498 133.534L10.4375 132.688ZM3.46875 124.469L4.38987 124.079C2.97276 120.726 2.25 116.801 2.25 112.281H1.25H0.25C0.25 117.012 1.00641 121.211 2.54763 124.858L3.46875 124.469ZM1.25 112.281H2.25C2.25 108.915 2.71626 105.857 3.63618 103.097L2.6875 102.781L1.73882 102.465C0.742075 105.455 0.25 108.73 0.25 112.281H1.25ZM2.6875 102.781L3.63411 103.104C4.57357 100.345 5.93598 97.9746 7.71534 95.9778L6.96875 95.3125L6.22216 94.6472C4.25152 96.8587 2.75977 99.4673 1.74089 102.459L2.6875 102.781ZM6.96875 95.3125L7.71859 95.9741C9.4881 93.9687 11.6735 92.4199 14.2909 91.3293L13.9062 90.4062L13.5216 89.4832C10.639 90.6843 8.1994 92.4063 6.21891 94.6509L6.96875 95.3125ZM13.9062 90.4062L14.2943 91.3279C16.9218 90.2216 19.9528 89.6562 23.4062 89.6562V88.6562V87.6562C19.7347 87.6562 16.4324 88.2576 13.5182 89.4846L13.9062 90.4062ZM23.4062 88.6562V89.6562C25.536 89.6562 27.7886 89.9074 30.166 90.4154L30.375 89.4375L30.584 88.4596C28.0864 87.9259 25.6931 87.6562 23.4062 87.6562V88.6562ZM30.375 89.4375L30.1757 90.4174C32.5501 90.9004 34.8672 91.6856 37.1282 92.7758L37.5625 91.875L37.9968 90.9742C35.5912 89.8144 33.1166 88.9746 30.5743 88.4576L30.375 89.4375ZM37.5625 91.875L36.6306 91.5124L32.8493 101.231L33.7812 101.594L34.7132 101.956L38.4944 92.2376L37.5625 91.875ZM33.7812 101.594L34.2103 100.69C32.5038 99.8799 30.7739 99.1963 29.021 98.6405L28.7188 99.5938L28.4165 100.547C30.0802 101.075 31.7254 101.724 33.3522 102.497L33.7812 101.594ZM28.7188 99.5938L29.021 98.6405C27.2083 98.0658 25.2933 97.7812 23.2812 97.7812V98.7812V99.7812C25.1025 99.7812 26.8125 100.038 28.4165 100.547L28.7188 99.5938ZM85.9688 121.719L85.0096 121.436L85.0083 121.44L85.9688 121.719ZM75.125 133.969L75.4904 134.9L75.4964 134.897L75.125 133.969ZM55.0625 133.969L54.6887 134.896L54.6971 134.9L55.0625 133.969ZM48.1562 129.188L47.4018 129.844L47.4051 129.848L48.1562 129.188ZM45.1562 99.6562L44.2442 99.2461L44.2431 99.2486L45.1562 99.6562ZM52.4688 91.5L52.9719 92.3642L52.976 92.3618L52.4688 91.5ZM77.7812 91.5L77.2692 92.359L77.2716 92.3604L77.7812 91.5ZM84.9688 99.6875L84.0507 100.084L84.9688 99.6875ZM56.75 119.188L55.7964 119.489L56.75 119.188ZM70.4375 123.75L69.8202 122.963L69.8143 122.968L70.4375 123.75ZM73.3438 119.188L72.3873 118.896L72.3845 118.905L73.3438 119.188ZM72.1875 102.312L71.3202 102.81L72.1875 102.312ZM59.6875 100.344L59.0686 99.5582L59.0628 99.5629L59.6875 100.344ZM56.7188 104.969L55.7642 104.67L55.7615 104.68L56.7188 104.969ZM87.25 112.094H86.25C86.25 115.534 85.8326 118.646 85.0096 121.436L85.9688 121.719L86.9279 122.002C87.8132 119 88.25 115.695 88.25 112.094H87.25ZM85.9688 121.719L85.0083 121.44C84.2112 124.19 82.9632 126.539 81.2731 128.504L82.0312 129.156L82.7894 129.808C84.6826 127.607 86.0596 124.997 86.9292 121.997L85.9688 121.719ZM82.0312 129.156L81.2731 128.504C79.5966 130.454 77.4324 131.969 74.7536 133.04L75.125 133.969L75.4964 134.897C78.4426 133.719 80.8825 132.026 82.7894 129.808L82.0312 129.156ZM75.125 133.969L74.7596 133.038C72.0923 134.085 68.8581 134.625 65.0312 134.625V135.625V136.625C69.0377 136.625 72.5327 136.061 75.4904 134.9L75.125 133.969ZM65.0312 135.625V134.625C61.2908 134.625 58.0974 134.086 55.4279 133.038L55.0625 133.969L54.6971 134.9C57.6526 136.06 61.1051 136.625 65.0312 136.625V135.625ZM55.0625 133.969L55.4363 133.041C52.7754 131.969 50.6071 130.462 48.9074 128.527L48.1562 129.188L47.4051 129.848C49.3304 132.038 51.7663 133.719 54.6887 134.896L55.0625 133.969ZM48.1562 129.188L48.9107 128.531C47.1995 126.564 45.9203 124.203 45.0823 121.43L44.125 121.719L43.1677 122.008C44.0797 125.026 45.488 127.644 47.4018 129.844L48.1562 129.188ZM44.125 121.719L45.0823 121.43C44.2401 118.642 43.8125 115.513 43.8125 112.031H42.8125H41.8125C41.8125 115.675 42.2599 119.003 43.1677 122.008L44.125 121.719ZM42.8125 112.031H43.8125C43.8125 107.389 44.5761 103.409 46.0694 100.064L45.1562 99.6562L44.2431 99.2486C42.6114 102.904 41.8125 107.173 41.8125 112.031H42.8125ZM45.1562 99.6562L46.0683 100.066C47.5673 96.7331 49.8632 94.1743 52.9719 92.3642L52.4688 91.5L51.9656 90.6358C48.491 92.659 45.9119 95.5377 44.2442 99.2461L45.1562 99.6562ZM52.4688 91.5L52.976 92.3618C56.0701 90.5406 60.0882 89.5938 65.0938 89.5938V88.5938V87.5938C59.8493 87.5938 55.4508 88.5844 51.9615 90.6382L52.4688 91.5ZM65.0938 88.5938V89.5938C70.1869 89.5938 74.2217 90.5422 77.2692 92.3589L77.7812 91.5L78.2933 90.6411C74.8408 88.5828 70.4173 87.5938 65.0938 87.5938V88.5938ZM77.7812 91.5L77.2716 92.3604C80.359 94.1892 82.6128 96.7552 84.0507 100.084L84.9688 99.6875L85.8868 99.291C84.283 95.5781 81.7451 92.6858 78.2909 90.6396L77.7812 91.5ZM84.9688 99.6875L84.0507 100.084C85.5062 103.454 86.25 107.449 86.25 112.094H87.25H88.25C88.25 107.239 87.4729 102.963 85.8868 99.291L84.9688 99.6875ZM55.8125 112.094H54.8125C54.8125 114.915 55.1325 117.386 55.7964 119.489L56.75 119.188L57.7036 118.886C57.1175 117.03 56.8125 114.773 56.8125 112.094H55.8125ZM56.75 119.188L55.7964 119.489C56.4694 121.62 57.5587 123.326 59.1015 124.537L59.7188 123.75L60.336 122.963C59.1705 122.049 58.2806 120.714 57.7036 118.886L56.75 119.188ZM59.7188 123.75L59.1015 124.537C60.6747 125.771 62.6815 126.344 65.0312 126.344V125.344V124.344C63.006 124.344 61.4711 123.854 60.336 122.963L59.7188 123.75ZM65.0312 125.344V126.344C67.4533 126.344 69.4993 125.776 71.0607 124.532L70.4375 123.75L69.8143 122.968C68.7091 123.849 67.1509 124.344 65.0312 124.344V125.344ZM70.4375 123.75L71.0548 124.537C72.6029 123.322 73.6728 121.608 74.303 119.47L73.3438 119.188L72.3845 118.905C71.8481 120.725 70.9804 122.053 69.8202 122.963L70.4375 123.75ZM73.3438 119.188L74.3002 119.479C74.9409 117.38 75.25 114.912 75.25 112.094H74.25H73.25C73.25 114.775 72.9549 117.036 72.3873 118.896L73.3438 119.188ZM74.25 112.094H75.25C75.25 107.874 74.5494 104.419 73.0548 101.815L72.1875 102.312L71.3202 102.81C72.5756 104.998 73.25 108.064 73.25 112.094H74.25ZM72.1875 102.312L73.0548 101.815C71.4607 99.0371 68.7157 97.7188 65.0938 97.7188V98.7188V99.7188C68.1801 99.7188 70.1643 100.796 71.3202 102.81L72.1875 102.312ZM65.0938 98.7188V97.7188C62.7024 97.7188 60.6634 98.3018 59.0686 99.5583L59.6875 100.344L60.3064 101.129C61.4616 100.219 63.0268 99.7188 65.0938 99.7188V98.7188ZM59.6875 100.344L59.0628 99.5629C57.5232 100.795 56.4361 102.521 55.7643 104.67L56.7188 104.969L57.6732 105.267C58.2514 103.417 59.1435 102.06 60.3122 101.125L59.6875 100.344ZM56.7188 104.969L55.7615 104.68C55.1217 106.798 54.8125 109.275 54.8125 112.094H55.8125H56.8125C56.8125 109.413 57.1075 107.14 57.676 105.258L56.7188 104.969ZM139 135V136H140V135H139ZM122.812 135L121.925 135.46L122.205 136H122.812V135ZM106.125 102.812L107.013 102.352L106.733 101.812H106.125V102.812ZM105.844 102.812V101.812H104.732L104.849 102.918L105.844 102.812ZM106.344 110.562L105.345 110.606L105.345 110.607L106.344 110.562ZM106.438 135V136H107.438V135H106.438ZM95.5 135H94.5V136H95.5V135ZM95.5 89.3125V88.3125H94.5V89.3125H95.5ZM111.625 89.3125L112.511 88.8486L112.23 88.3125H111.625V89.3125ZM128.25 121.062L127.364 121.526L127.645 122.062H128.25V121.062ZM128.438 121.062V122.062H129.502L129.436 121L128.438 121.062ZM128.25 117.594L127.251 117.641L127.251 117.641L128.25 117.594ZM128.062 113.562L127.063 113.593L127.063 113.601L127.064 113.609L128.062 113.562ZM128 89.3125V88.3125H127V89.3125H128ZM139 89.3125H140V88.3125H139V89.3125ZM139 135V134H122.812V135V136H139V135ZM122.812 135L123.7 134.54L107.013 102.352L106.125 102.812L105.237 103.273L121.925 135.46L122.812 135ZM106.125 102.812V101.812H105.844V102.812V103.812H106.125V102.812ZM105.844 102.812L104.849 102.918C104.951 103.878 105.044 105.039 105.127 106.404L106.125 106.344L107.123 106.283C107.039 104.899 106.944 103.706 106.838 102.707L105.844 102.812ZM106.125 106.344L105.127 106.404C105.21 107.773 105.282 109.174 105.345 110.606L106.344 110.562L107.343 110.519C107.28 109.076 107.207 107.664 107.123 106.283L106.125 106.344ZM106.344 110.562L105.345 110.607C105.407 112.012 105.438 113.278 105.438 114.406H106.438H107.438C107.438 113.243 107.406 111.946 107.343 110.518L106.344 110.562ZM106.438 114.406H105.438V135H106.438H107.438V114.406H106.438ZM106.438 135V134H95.5V135V136H106.438V135ZM95.5 135H96.5V89.3125H95.5H94.5V135H95.5ZM95.5 89.3125V90.3125H111.625V89.3125V88.3125H95.5V89.3125ZM111.625 89.3125L110.739 89.7764L127.364 121.526L128.25 121.062L129.136 120.599L112.511 88.8486L111.625 89.3125ZM128.25 121.062V122.062H128.438V121.062V120.062H128.25V121.062ZM128.438 121.062L129.436 121C129.373 120.006 129.311 118.855 129.249 117.546L128.25 117.594L127.251 117.641C127.314 118.957 127.377 120.119 127.439 121.125L128.438 121.062ZM128.25 117.594L129.249 117.547C129.186 116.214 129.124 114.87 129.061 113.516L128.062 113.562L127.064 113.609C127.126 114.963 127.189 116.307 127.251 117.641L128.25 117.594ZM128.062 113.562L129.062 113.532C129.021 112.185 129 110.998 129 109.969H128H127C127 111.023 127.021 112.232 127.063 113.593L128.062 113.562ZM128 109.969H129V89.3125H128H127V109.969H128ZM128 89.3125V90.3125H139V89.3125V88.3125H128V89.3125ZM139 89.3125H138V135H139H140V89.3125H139ZM169.031 135V136H170.031V135H169.031ZM156.688 135H155.688V136H156.688V135ZM156.688 99.4062H157.688V98.4062H156.688V99.4062ZM145.531 99.4062H144.531V100.406H145.531V99.4062ZM145.531 89.3125V88.3125H144.531V89.3125H145.531ZM180.156 89.3125H181.156V88.3125H180.156V89.3125ZM180.156 99.4062V100.406H181.156V99.4062H180.156ZM169.031 99.4062V98.4062H168.031V99.4062H169.031ZM169.031 135V134H156.688V135V136H169.031V135ZM156.688 135H157.688V99.4062H156.688H155.688V135H156.688ZM156.688 99.4062V98.4062H145.531V99.4062V100.406H156.688V99.4062ZM145.531 99.4062H146.531V89.3125H145.531H144.531V99.4062H145.531ZM145.531 89.3125V90.3125H180.156V89.3125V88.3125H145.531V89.3125ZM180.156 89.3125H179.156V99.4062H180.156H181.156V89.3125H180.156ZM180.156 99.4062V98.4062H169.031V99.4062V100.406H180.156V99.4062ZM169.031 99.4062H168.031V135H169.031H170.031V99.4062H169.031ZM212 90.8438L211.652 91.7813L211.658 91.7835L212 90.8438ZM218.188 95.3438L217.363 95.9103L217.367 95.9161L218.188 95.3438ZM216.656 111.969L215.937 111.274L215.937 111.274L216.656 111.969ZM212.531 115.094L212.044 114.221L211.098 114.749L211.7 115.65L212.531 115.094ZM225.844 135V136H227.716L226.675 134.444L225.844 135ZM211.844 135L210.98 135.503L211.269 136H211.844V135ZM202.156 118.375L203.02 117.872L202.731 117.375H202.156V118.375ZM199.031 118.375V117.375H198.031V118.375H199.031ZM199.031 135V136H200.031V135H199.031ZM186.688 135H185.688V136H186.688V135ZM186.688 89.3125V88.3125H185.688V89.3125H186.688ZM199.031 98.6562V97.6562H198.031V98.6562H199.031ZM199.031 109.094H198.031V110.094H199.031V109.094ZM201.656 89.3125V90.3125C205.729 90.3125 209.049 90.815 211.652 91.7812L212 90.8438L212.348 89.9063C209.451 88.8308 205.876 88.3125 201.656 88.3125V89.3125ZM212 90.8438L211.658 91.7835C214.254 92.7273 216.129 94.1147 217.363 95.9103L218.188 95.3438L219.012 94.7772C217.496 92.5728 215.246 90.9602 212.342 89.904L212 90.8438ZM218.188 95.3438L217.367 95.9161C218.622 97.7141 219.281 99.992 219.281 102.812H220.281H221.281C221.281 99.6746 220.544 96.9734 219.008 94.7714L218.188 95.3438ZM220.281 102.812H219.281C219.281 104.553 218.988 106.109 218.419 107.495L219.344 107.875L220.269 108.255C220.949 106.599 221.281 104.78 221.281 102.812H220.281ZM219.344 107.875L218.419 107.495C217.843 108.896 217.018 110.155 215.937 111.274L216.656 111.969L217.376 112.663C218.628 111.366 219.595 109.895 220.269 108.255L219.344 107.875ZM216.656 111.969L215.937 111.274C214.866 112.384 213.572 113.367 212.044 114.221L212.531 115.094L213.019 115.967C214.699 115.029 216.155 113.929 217.376 112.663L216.656 111.969ZM212.531 115.094L211.7 115.65L225.013 135.556L225.844 135L226.675 134.444L213.362 114.538L212.531 115.094ZM225.844 135V134H211.844V135V136H225.844V135ZM211.844 135L212.708 134.497L203.02 117.872L202.156 118.375L201.292 118.878L210.98 135.503L211.844 135ZM202.156 118.375V117.375H199.031V118.375V119.375H202.156V118.375ZM199.031 118.375H198.031V135H199.031H200.031V118.375H199.031ZM199.031 135V134H186.688V135V136H199.031V135ZM186.688 135H187.688V89.3125H186.688H185.688V135H186.688ZM186.688 89.3125V90.3125H201.656V89.3125V88.3125H186.688V89.3125ZM201.469 98.6562V97.6562H199.031V98.6562V99.6562H201.469V98.6562ZM199.031 98.6562H198.031V109.094H199.031H200.031V98.6562H199.031ZM199.031 109.094V110.094H201.344V109.094V108.094H199.031V109.094ZM201.344 109.094V110.094C203.384 110.094 205.15 109.645 206.568 108.667L206 107.844L205.432 107.021C204.433 107.709 203.096 108.094 201.344 108.094V109.094ZM206 107.844L206.568 108.667C208.157 107.571 208.812 105.688 208.812 103.375H207.812H206.812C206.812 105.354 206.26 106.45 205.432 107.021L206 107.844ZM207.812 103.375H208.812C208.812 101.644 208.213 100.189 206.953 99.138L206.312 99.9062L205.672 100.674C206.412 101.291 206.812 102.147 206.812 103.375H207.812ZM206.312 99.9062L206.953 99.138C205.683 98.0803 203.78 97.6562 201.469 97.6562V98.6562V99.6562C203.616 99.6562 204.942 100.066 205.672 100.674L206.312 99.9062ZM258.031 135L257.064 135.254L257.26 136H258.031V135ZM255.781 126.438L256.748 126.183L256.552 125.438H255.781V126.438ZM240.938 126.438V125.438H240.172L239.972 126.177L240.938 126.438ZM238.625 135V136H239.391L239.59 135.261L238.625 135ZM225.062 135L224.111 134.691L223.686 136H225.062V135ZM239.969 89.125V88.125H239.242L239.018 88.816L239.969 89.125ZM256.438 89.125L257.387 88.8125L257.161 88.125H256.438V89.125ZM271.531 135V136H272.913L272.481 134.687L271.531 135ZM253.219 116.312V117.312H254.515L254.186 116.059L253.219 116.312ZM251.25 108.812L250.281 109.061L250.283 109.066L251.25 108.812ZM250.344 105.344L249.376 105.596L249.377 105.599L250.344 105.344ZM249.156 100.656L248.182 100.881L248.184 100.888L248.185 100.896L249.156 100.656ZM248.281 96.6562L249.262 96.4601L247.297 96.4791L248.281 96.6562ZM247.469 100.531L246.494 100.307L246.492 100.317L247.469 100.531ZM246.406 105.062L245.436 104.82L245.433 104.833L246.406 105.062ZM245.469 108.812L244.503 108.551L244.502 108.559L245.469 108.812ZM243.5 116.312L242.533 116.059L242.204 117.312H243.5V116.312ZM258.031 135L258.998 134.746L256.748 126.183L255.781 126.438L254.814 126.692L257.064 135.254L258.031 135ZM255.781 126.438V125.438H240.938V126.438V127.438H255.781V126.438ZM240.938 126.438L239.972 126.177L237.66 134.739L238.625 135L239.59 135.261L241.903 126.698L240.938 126.438ZM238.625 135V134H225.062V135V136H238.625V135ZM225.062 135L226.014 135.309L240.92 89.434L239.969 89.125L239.018 88.816L224.111 134.691L225.062 135ZM239.969 89.125V90.125H256.438V89.125V88.125H239.969V89.125ZM256.438 89.125L255.488 89.4375L270.581 135.313L271.531 135L272.481 134.687L257.387 88.8125L256.438 89.125ZM271.531 135V134H258.031V135V136H271.531V135ZM253.219 116.312L254.186 116.059L252.217 108.559L251.25 108.812L250.283 109.066L252.252 116.566L253.219 116.312ZM251.25 108.812L252.219 108.564C252.009 107.748 251.707 106.589 251.311 105.089L250.344 105.344L249.377 105.599C249.772 107.098 250.074 108.252 250.281 109.061L251.25 108.812ZM250.344 105.344L251.312 105.092C250.917 103.575 250.522 102.017 250.127 100.417L249.156 100.656L248.185 100.896C248.582 102.504 248.979 104.07 249.376 105.596L250.344 105.344ZM249.156 100.656L250.131 100.431C249.757 98.8112 249.467 97.4884 249.262 96.4601L248.281 96.6562L247.301 96.8524C247.512 97.9074 247.806 99.2513 248.182 100.881L249.156 100.656ZM248.281 96.6562L247.297 96.4791C247.113 97.4995 246.846 98.7744 246.494 100.307L247.469 100.531L248.443 100.755C248.8 99.2047 249.074 97.8963 249.265 96.8334L248.281 96.6562ZM247.469 100.531L246.492 100.317C246.161 101.829 245.809 103.329 245.436 104.82L246.406 105.062L247.376 105.305C247.754 103.796 248.11 102.276 248.446 100.745L247.469 100.531ZM246.406 105.062L245.433 104.833C245.08 106.327 244.771 107.565 244.504 108.551L245.469 108.812L246.434 109.074C246.709 108.06 247.024 106.798 247.379 105.292L246.406 105.062ZM245.469 108.812L244.502 108.559L242.533 116.059L243.5 116.312L244.467 116.566L246.436 109.066L245.469 108.812ZM243.5 116.312V117.312H253.219V116.312V115.312H243.5V116.312ZM296.656 135V136H297.656V135H296.656ZM284.312 135H283.312V136H284.312V135ZM284.312 99.4062H285.312V98.4062H284.312V99.4062ZM273.156 99.4062H272.156V100.406H273.156V99.4062ZM273.156 89.3125V88.3125H272.156V89.3125H273.156ZM307.781 89.3125H308.781V88.3125H307.781V89.3125ZM307.781 99.4062V100.406H308.781V99.4062H307.781ZM296.656 99.4062V98.4062H295.656V99.4062H296.656ZM296.656 135V134H284.312V135V136H296.656V135ZM284.312 135H285.312V99.4062H284.312H283.312V135H284.312ZM284.312 99.4062V98.4062H273.156V99.4062V100.406H284.312V99.4062ZM273.156 99.4062H274.156V89.3125H273.156H272.156V99.4062H273.156ZM273.156 89.3125V90.3125H307.781V89.3125V88.3125H273.156V89.3125ZM307.781 89.3125H306.781V99.4062H307.781H308.781V89.3125H307.781ZM307.781 99.4062V98.4062H296.656V99.4062V100.406H307.781V99.4062ZM296.656 99.4062H295.656V135H296.656H297.656V99.4062H296.656ZM342.344 135L341.377 135.254L341.573 136H342.344V135ZM340.094 126.438L341.061 126.183L340.865 125.438H340.094V126.438ZM325.25 126.438V125.438H324.484L324.285 126.177L325.25 126.438ZM322.938 135V136H323.703L323.903 135.261L322.938 135ZM309.375 135L308.424 134.691L307.999 136H309.375V135ZM324.281 89.125V88.125H323.555L323.33 88.816L324.281 89.125ZM340.75 89.125L341.7 88.8125L341.474 88.125H340.75V89.125ZM355.844 135V136H357.226L356.794 134.687L355.844 135ZM337.531 116.312V117.312H338.828L338.498 116.059L337.531 116.312ZM335.562 108.812L334.594 109.061L334.595 109.066L335.562 108.812ZM334.656 105.344L333.688 105.596L333.689 105.599L334.656 105.344ZM333.469 100.656L332.494 100.881L332.496 100.888L332.498 100.896L333.469 100.656ZM332.594 96.6562L333.574 96.4601L331.61 96.4791L332.594 96.6562ZM331.781 100.531L330.807 100.307L330.804 100.317L331.781 100.531ZM330.719 105.062L329.749 104.82L329.746 104.833L330.719 105.062ZM329.781 108.812L328.816 108.551L328.814 108.559L329.781 108.812ZM327.812 116.312L326.845 116.059L326.516 117.312H327.812V116.312ZM342.344 135L343.311 134.746L341.061 126.183L340.094 126.438L339.127 126.692L341.377 135.254L342.344 135ZM340.094 126.438V125.438H325.25V126.438V127.438H340.094V126.438ZM325.25 126.438L324.285 126.177L321.972 134.739L322.938 135L323.903 135.261L326.215 126.698L325.25 126.438ZM322.938 135V134H309.375V135V136H322.938V135ZM309.375 135L310.326 135.309L325.232 89.434L324.281 89.125L323.33 88.816L308.424 134.691L309.375 135ZM324.281 89.125V90.125H340.75V89.125V88.125H324.281V89.125ZM340.75 89.125L339.8 89.4375L354.894 135.313L355.844 135L356.794 134.687L341.7 88.8125L340.75 89.125ZM355.844 135V134H342.344V135V136H355.844V135ZM337.531 116.312L338.498 116.059L336.53 108.559L335.562 108.812L334.595 109.066L336.564 116.566L337.531 116.312ZM335.562 108.812L336.531 108.564C336.322 107.748 336.019 106.589 335.623 105.089L334.656 105.344L333.689 105.599C334.085 107.098 334.386 108.252 334.594 109.061L335.562 108.812ZM334.656 105.344L335.624 105.092C335.229 103.575 334.834 102.017 334.44 100.417L333.469 100.656L332.498 100.896C332.895 102.504 333.292 104.07 333.688 105.596L334.656 105.344ZM333.469 100.656L334.443 100.431C334.069 98.8112 333.78 97.4884 333.574 96.4601L332.594 96.6562L331.613 96.8524C331.824 97.9074 332.118 99.2513 332.494 100.881L333.469 100.656ZM332.594 96.6562L331.61 96.4791C331.426 97.4995 331.159 98.7744 330.807 100.307L331.781 100.531L332.756 100.755C333.112 99.2047 333.387 97.8963 333.578 96.8334L332.594 96.6562ZM331.781 100.531L330.804 100.317C330.473 101.829 330.121 103.329 329.749 104.82L330.719 105.062L331.689 105.305C332.066 103.796 332.423 102.276 332.758 100.745L331.781 100.531ZM330.719 105.062L329.746 104.833C329.393 106.327 329.083 107.565 328.816 108.551L329.781 108.812L330.746 109.074C331.021 108.06 331.336 106.798 331.692 105.292L330.719 105.062ZM329.781 108.812L328.814 108.559L326.845 116.059L327.812 116.312L328.78 116.566L330.748 109.066L329.781 108.812ZM327.812 116.312V117.312H337.531V116.312V115.312H327.812V116.312ZM377.25 99.7188L377.716 100.603L377.729 100.597L377.25 99.7188ZM374.312 102.375L373.492 101.804L374.312 102.375ZM372.438 106.656L371.469 106.405L371.467 106.414L372.438 106.656ZM376.219 124.031L375.659 124.86L375.664 124.863L376.219 124.031ZM387.719 124.688L387.434 123.729L387.431 123.73L387.719 124.688ZM393.438 122.656H394.438V121.161L393.056 121.732L393.438 122.656ZM393.438 133.094L393.843 134.008L394.438 133.744V133.094H393.438ZM387.219 135.031L387.036 134.048L387.034 134.048L387.219 135.031ZM368.312 132.688L367.78 133.534L367.787 133.538L368.312 132.688ZM361.344 124.469L360.423 124.858L360.425 124.863L361.344 124.469ZM360.562 102.781L359.616 102.459L359.614 102.465L360.562 102.781ZM364.844 95.3125L365.59 95.9778L365.594 95.9741L364.844 95.3125ZM371.781 90.4062L372.166 91.3293L372.169 91.3279L371.781 90.4062ZM388.25 89.4375L388.041 90.4155L388.051 90.4174L388.25 89.4375ZM395.438 91.875L396.369 92.2376L396.705 91.3758L395.872 90.9742L395.438 91.875ZM391.656 101.594L391.227 102.497L392.198 102.958L392.588 101.956L391.656 101.594ZM386.594 99.5938L386.292 100.547L386.594 99.5938ZM385.156 148.312L384.501 147.557L384.496 147.562L385.156 148.312ZM372 149.281H371V149.99L371.669 150.225L372 149.281ZM372 143.25L372.308 142.299L371 141.875V143.25H372ZM374.062 143.781L373.878 144.764L373.884 144.765L374.062 143.781ZM377.656 140.406L378.182 139.555L378.175 139.551L377.656 140.406ZM374.188 139.344L373.272 138.942L372.762 140.104L374.011 140.328L374.188 139.344ZM376.094 135V134H375.441L375.178 134.598L376.094 135ZM382.188 135L383.142 135.297L383.546 134H382.188V135ZM381.594 136.906L380.639 136.609L380.315 137.649L381.379 137.883L381.594 136.906ZM381.156 98.7812V97.7812C379.551 97.7812 378.08 98.1267 376.771 98.8409L377.25 99.7188L377.729 100.597C378.711 100.061 379.845 99.7812 381.156 99.7812V98.7812ZM377.25 99.7188L376.784 98.8342C375.483 99.52 374.387 100.519 373.492 101.804L374.312 102.375L375.133 102.946C375.863 101.898 376.725 101.126 377.716 100.603L377.25 99.7188ZM374.312 102.375L373.492 101.804C372.598 103.087 371.93 104.628 371.47 106.405L372.438 106.656L373.405 106.907C373.82 105.309 374.402 103.997 375.133 102.946L374.312 102.375ZM372.438 106.656L371.467 106.414C371.027 108.176 370.812 110.155 370.812 112.344H371.812H372.812C372.812 110.282 373.015 108.47 373.408 106.899L372.438 106.656ZM371.812 112.344H370.812C370.812 115.296 371.186 117.839 371.969 119.943L372.906 119.594L373.843 119.245C373.168 117.431 372.812 115.141 372.812 112.344H371.812ZM372.906 119.594L371.969 119.943C372.758 122.062 373.979 123.724 375.659 124.86L376.219 124.031L376.779 123.203C375.5 122.338 374.513 121.042 373.843 119.245L372.906 119.594ZM376.219 124.031L375.664 124.863C377.365 125.997 379.445 126.531 381.844 126.531V125.531V124.531C379.742 124.531 378.073 124.065 376.773 123.199L376.219 124.031ZM381.844 125.531V126.531C383.979 126.531 386.034 126.237 388.006 125.645L387.719 124.688L387.431 123.73C385.654 124.263 383.792 124.531 381.844 124.531V125.531ZM387.719 124.688L388.003 125.646C389.934 125.073 391.872 124.385 393.819 123.581L393.438 122.656L393.056 121.732C391.169 122.511 389.296 123.177 387.434 123.729L387.719 124.688ZM393.438 122.656H392.438V133.094H393.438H394.438V122.656H393.438ZM393.438 133.094L393.032 132.18C391.081 133.045 389.082 133.667 387.036 134.048L387.219 135.031L387.402 136.014C389.605 135.604 391.752 134.935 393.843 134.008L393.438 133.094ZM387.219 135.031L387.034 134.048C384.997 134.432 382.82 134.625 380.5 134.625V135.625V136.625C382.93 136.625 385.232 136.422 387.404 136.014L387.219 135.031ZM380.5 135.625V134.625C375.667 134.625 371.803 133.67 368.838 131.837L368.312 132.688L367.787 133.538C371.155 135.621 375.416 136.625 380.5 136.625V135.625ZM368.312 132.688L368.845 131.841C365.875 129.973 363.685 127.393 362.263 124.075L361.344 124.469L360.425 124.863C362.002 128.544 364.458 131.444 367.78 133.534L368.312 132.688ZM361.344 124.469L362.265 124.079C360.848 120.726 360.125 116.801 360.125 112.281H359.125H358.125C358.125 117.012 358.881 121.211 360.423 124.858L361.344 124.469ZM359.125 112.281H360.125C360.125 108.915 360.591 105.857 361.511 103.097L360.562 102.781L359.614 102.465C358.617 105.455 358.125 108.73 358.125 112.281H359.125ZM360.562 102.781L361.509 103.104C362.449 100.345 363.811 97.9746 365.59 95.9778L364.844 95.3125L364.097 94.6472C362.127 96.8587 360.635 99.4673 359.616 102.459L360.562 102.781ZM364.844 95.3125L365.594 95.9741C367.363 93.9687 369.548 92.4199 372.166 91.3293L371.781 90.4062L371.397 89.4832C368.514 90.6843 366.074 92.4063 364.094 94.6509L364.844 95.3125ZM371.781 90.4062L372.169 91.3279C374.797 90.2216 377.828 89.6562 381.281 89.6562V88.6562V87.6562C377.61 87.6562 374.307 88.2576 371.393 89.4846L371.781 90.4062ZM381.281 88.6562V89.6562C383.411 89.6562 385.664 89.9074 388.041 90.4154L388.25 89.4375L388.459 88.4596C385.961 87.9259 383.568 87.6562 381.281 87.6562V88.6562ZM388.25 89.4375L388.051 90.4174C390.425 90.9004 392.742 91.6856 395.003 92.7758L395.438 91.875L395.872 90.9742C393.466 89.8144 390.992 88.9746 388.449 88.4576L388.25 89.4375ZM395.438 91.875L394.506 91.5124L390.724 101.231L391.656 101.594L392.588 101.956L396.369 92.2376L395.438 91.875ZM391.656 101.594L392.085 100.69C390.379 99.8799 388.649 99.1963 386.896 98.6405L386.594 99.5938L386.292 100.547C387.955 101.075 389.6 101.724 391.227 102.497L391.656 101.594ZM386.594 99.5938L386.896 98.6405C385.083 98.0658 383.168 97.7812 381.156 97.7812V98.7812V99.7812C382.977 99.7812 384.687 100.038 386.292 100.547L386.594 99.5938ZM387.5 142.875H386.5C386.5 144.888 385.822 146.413 384.501 147.557L385.156 148.312L385.811 149.068C387.616 147.504 388.5 145.404 388.5 142.875H387.5ZM385.156 148.312L384.496 147.562C383.158 148.739 381.331 149.375 378.906 149.375V150.375V151.375C381.69 151.375 384.029 150.636 385.817 149.063L385.156 148.312ZM378.906 150.375V149.375C377.499 149.375 376.241 149.264 375.127 149.049L374.938 150.031L374.748 151.013C376.009 151.257 377.397 151.375 378.906 151.375V150.375ZM374.938 150.031L375.127 149.049C373.967 148.826 373.04 148.587 372.331 148.338L372 149.281L371.669 150.225C372.502 150.518 373.533 150.779 374.748 151.013L374.938 150.031ZM372 149.281H373V143.25H372H371V149.281H372ZM372 143.25L371.692 144.201C372.437 144.442 373.166 144.631 373.878 144.764L374.062 143.781L374.247 142.798C373.626 142.682 372.98 142.516 372.308 142.299L372 143.25ZM374.062 143.781L373.884 144.765C374.631 144.901 375.389 144.969 376.156 144.969V143.969V142.969C375.507 142.969 374.869 142.912 374.241 142.797L374.062 143.781ZM376.156 143.969V144.969C377.078 144.969 377.934 144.776 378.619 144.277L378.031 143.469L377.443 142.66C377.212 142.828 376.818 142.969 376.156 142.969V143.969ZM378.031 143.469L378.619 144.277C379.322 143.766 379.719 143.035 379.719 142.156H378.719H377.719C377.719 142.361 377.657 142.505 377.443 142.66L378.031 143.469ZM378.719 142.156H379.719C379.719 141.026 379.136 140.145 378.182 139.555L377.656 140.406L377.131 141.257C377.594 141.543 377.719 141.828 377.719 142.156H378.719ZM377.656 140.406L378.175 139.551C377.321 139.034 376.01 138.655 374.364 138.359L374.188 139.344L374.011 140.328C375.615 140.616 376.617 140.946 377.138 141.261L377.656 140.406ZM374.188 139.344L375.103 139.746L377.009 135.402L376.094 135L375.178 134.598L373.272 138.942L374.188 139.344ZM376.094 135V136H382.188V135V134H376.094V135ZM382.188 135L381.233 134.703L380.639 136.609L381.594 136.906L382.549 137.204L383.142 135.297L382.188 135ZM381.594 136.906L381.379 137.883C382.156 138.053 382.974 138.331 383.836 138.723L384.25 137.812L384.664 136.902C383.693 136.461 382.74 136.134 381.808 135.93L381.594 136.906ZM384.25 137.812L383.836 138.723C384.608 139.073 385.251 139.578 385.778 140.245L386.562 139.625L387.347 139.005C386.624 138.089 385.726 137.385 384.664 136.902L384.25 137.812ZM386.562 139.625L385.778 140.245C386.22 140.805 386.5 141.644 386.5 142.875H387.5H388.5C388.5 141.356 388.155 140.028 387.347 139.005L386.562 139.625ZM443.844 121.719L442.885 121.436L442.883 121.44L443.844 121.719ZM433 133.969L433.365 134.9L433.371 134.897L433 133.969ZM412.938 133.969L412.564 134.896L412.572 134.9L412.938 133.969ZM406.031 129.188L405.277 129.844L405.28 129.848L406.031 129.188ZM403.031 99.6562L402.119 99.2461L402.118 99.2486L403.031 99.6562ZM410.344 91.5L410.847 92.3642L410.851 92.3618L410.344 91.5ZM435.656 91.5L435.144 92.359L435.147 92.3604L435.656 91.5ZM442.844 99.6875L441.926 100.084L442.844 99.6875ZM414.625 119.188L413.671 119.489L414.625 119.188ZM428.312 123.75L427.695 122.963L427.689 122.968L428.312 123.75ZM431.219 119.188L430.262 118.896L430.26 118.905L431.219 119.188ZM430.062 102.312L429.195 102.81L430.062 102.312ZM417.562 100.344L416.944 99.5582L416.938 99.5629L417.562 100.344ZM414.594 104.969L413.639 104.67L413.636 104.68L414.594 104.969ZM409.719 86.0312L408.721 85.9675L408.653 87.0312H409.719V86.0312ZM410.5 81.0625L409.544 80.7684L409.54 80.7819L410.5 81.0625ZM412.094 77.7812L411.305 77.166L411.303 77.1687L412.094 77.7812ZM414.469 75.9375L414.847 76.8631L414.858 76.8587L414.469 75.9375ZM420.125 75.8125L419.796 76.7567L419.805 76.7601L419.815 76.7634L420.125 75.8125ZM425.531 77.9062L425.195 78.848L425.208 78.8527L425.222 78.8571L425.531 77.9062ZM429.312 77.8125L428.701 77.0212L428.692 77.0281L428.683 77.0353L429.312 77.8125ZM430.312 75.2812V74.2812H429.457L429.324 75.1269L430.312 75.2812ZM436.031 75.2812L437.029 75.3517L437.104 74.2812H436.031V75.2812ZM433.5 83.5L432.742 82.8476L432.737 82.8532L433.5 83.5ZM425.5 85.5312L425.184 86.4799L425.196 86.4841L425.209 86.4879L425.5 85.5312ZM420.062 83.4375L419.719 84.3766L419.729 84.3803L419.739 84.3838L420.062 83.4375ZM415.344 86.0312V87.0312H416.166L416.325 86.2245L415.344 86.0312ZM445.125 112.094H444.125C444.125 115.534 443.708 118.646 442.885 121.436L443.844 121.719L444.803 122.002C445.688 119 446.125 115.695 446.125 112.094H445.125ZM443.844 121.719L442.883 121.44C442.086 124.19 440.838 126.539 439.148 128.504L439.906 129.156L440.664 129.808C442.558 127.607 443.935 124.997 444.804 121.997L443.844 121.719ZM439.906 129.156L439.148 128.504C437.472 130.454 435.307 131.969 432.629 133.04L433 133.969L433.371 134.897C436.318 133.719 438.758 132.026 440.664 129.808L439.906 129.156ZM433 133.969L432.635 133.038C429.967 134.085 426.733 134.625 422.906 134.625V135.625V136.625C426.913 136.625 430.408 136.061 433.365 134.9L433 133.969ZM422.906 135.625V134.625C419.166 134.625 415.972 134.086 413.303 133.038L412.938 133.969L412.572 134.9C415.528 136.06 418.98 136.625 422.906 136.625V135.625ZM412.938 133.969L413.311 133.041C410.65 131.969 408.482 130.462 406.782 128.527L406.031 129.188L405.28 129.848C407.205 132.038 409.641 133.719 412.564 134.896L412.938 133.969ZM406.031 129.188L406.786 128.531C405.075 126.564 403.795 124.203 402.957 121.43L402 121.719L401.043 122.008C401.955 125.026 403.363 127.644 405.277 129.844L406.031 129.188ZM402 121.719L402.957 121.43C402.115 118.642 401.688 115.513 401.688 112.031H400.688H399.688C399.688 115.675 400.135 119.003 401.043 122.008L402 121.719ZM400.688 112.031H401.688C401.688 107.389 402.451 103.409 403.944 100.064L403.031 99.6562L402.118 99.2486C400.486 102.904 399.688 107.173 399.688 112.031H400.688ZM403.031 99.6562L403.943 100.066C405.442 96.7331 407.738 94.1743 410.847 92.3642L410.344 91.5L409.841 90.6358C406.366 92.659 403.787 95.5377 402.119 99.2461L403.031 99.6562ZM410.344 91.5L410.851 92.3618C413.945 90.5406 417.963 89.5938 422.969 89.5938V88.5938V87.5938C417.724 87.5938 413.326 88.5844 409.836 90.6382L410.344 91.5ZM422.969 88.5938V89.5938C428.062 89.5938 432.097 90.5422 435.144 92.3589L435.656 91.5L436.168 90.6411C432.716 88.5828 428.292 87.5938 422.969 87.5938V88.5938ZM435.656 91.5L435.147 92.3604C438.234 94.1892 440.488 96.7552 441.926 100.084L442.844 99.6875L443.762 99.291C442.158 95.5781 439.62 92.6858 436.166 90.6396L435.656 91.5ZM442.844 99.6875L441.926 100.084C443.381 103.454 444.125 107.449 444.125 112.094H445.125H446.125C446.125 107.239 445.348 102.963 443.762 99.291L442.844 99.6875ZM413.688 112.094H412.688C412.688 114.915 413.008 117.386 413.671 119.489L414.625 119.188L415.579 118.886C414.992 117.03 414.688 114.773 414.688 112.094H413.688ZM414.625 119.188L413.671 119.489C414.344 121.62 415.434 123.326 416.976 124.537L417.594 123.75L418.211 122.963C417.045 122.049 416.156 120.714 415.579 118.886L414.625 119.188ZM417.594 123.75L416.976 124.537C418.55 125.771 420.556 126.344 422.906 126.344V125.344V124.344C420.881 124.344 419.346 123.854 418.211 122.963L417.594 123.75ZM422.906 125.344V126.344C425.328 126.344 427.374 125.776 428.936 124.532L428.312 123.75L427.689 122.968C426.584 123.849 425.026 124.344 422.906 124.344V125.344ZM428.312 123.75L428.93 124.537C430.478 123.322 431.548 121.608 432.178 119.47L431.219 119.188L430.26 118.905C429.723 120.725 428.855 122.053 427.695 122.963L428.312 123.75ZM431.219 119.188L432.175 119.479C432.816 117.38 433.125 114.912 433.125 112.094H432.125H431.125C431.125 114.775 430.83 117.036 430.262 118.896L431.219 119.188ZM432.125 112.094H433.125C433.125 107.874 432.424 104.419 430.93 101.815L430.062 102.312L429.195 102.81C430.451 104.998 431.125 108.064 431.125 112.094H432.125ZM430.062 102.312L430.93 101.815C429.336 99.0371 426.591 97.7188 422.969 97.7188V98.7188V99.7188C426.055 99.7188 428.039 100.796 429.195 102.81L430.062 102.312ZM422.969 98.7188V97.7188C420.577 97.7188 418.538 98.3018 416.944 99.5583L417.562 100.344L418.181 101.129C419.337 100.219 420.902 99.7188 422.969 99.7188V98.7188ZM417.562 100.344L416.938 99.5629C415.398 100.795 414.311 102.521 413.639 104.67L414.594 104.969L415.548 105.267C416.126 103.417 417.018 102.06 418.187 101.125L417.562 100.344ZM414.594 104.969L413.636 104.68C412.997 106.798 412.688 109.275 412.688 112.094H413.688H414.688C414.688 109.413 414.983 107.14 415.551 105.258L414.594 104.969ZM409.719 86.0312L410.717 86.095C410.839 84.1839 411.091 82.6052 411.46 81.3431L410.5 81.0625L409.54 80.7819C409.117 82.2282 408.849 83.962 408.721 85.9675L409.719 86.0312ZM410.5 81.0625L411.456 81.3566C411.848 80.0805 412.333 79.1053 412.884 78.3938L412.094 77.7812L411.303 77.1687C410.563 78.1239 409.985 79.3362 409.544 80.7684L410.5 81.0625ZM412.094 77.7812L412.882 78.3965C413.452 77.6664 414.107 77.166 414.847 76.863L414.469 75.9375L414.09 75.012C412.997 75.459 412.069 76.1877 411.305 77.166L412.094 77.7812ZM414.469 75.9375L414.858 76.8587C415.658 76.521 416.565 76.3438 417.594 76.3438V75.3438V74.3438C416.331 74.3438 415.155 74.5623 414.08 75.0163L414.469 75.9375ZM417.594 75.3438V76.3438C418.254 76.3438 418.985 76.474 419.796 76.7567L420.125 75.8125L420.454 74.8683C419.473 74.526 418.517 74.3438 417.594 74.3438V75.3438ZM420.125 75.8125L419.815 76.7634C420.68 77.0449 421.557 77.3775 422.447 77.7618L422.844 76.8438L423.24 75.9257C422.297 75.5183 421.362 75.1634 420.435 74.8616L420.125 75.8125ZM422.844 76.8438L422.447 77.7618C423.382 78.1656 424.298 78.5277 425.195 78.848L425.531 77.9062L425.868 76.9645C425.014 76.6598 424.139 76.3136 423.24 75.9257L422.844 76.8438ZM425.531 77.9062L425.222 78.8571C426.202 79.1763 427.161 79.3438 428.094 79.3438V78.3438V77.3438C427.402 77.3438 426.652 77.2196 425.841 76.9554L425.531 77.9062ZM428.094 78.3438V79.3438C428.788 79.3438 429.412 79.0188 429.942 78.5897L429.312 77.8125L428.683 77.0353C428.338 77.3146 428.15 77.3438 428.094 77.3438V78.3438ZM429.312 77.8125L429.924 78.6038C430.354 78.2711 430.638 77.7843 430.836 77.2815C431.04 76.7665 431.19 76.1436 431.301 75.4356L430.312 75.2812L429.324 75.1269C429.227 75.7523 429.106 76.2179 428.976 76.5466C428.841 76.8876 428.729 76.9997 428.701 77.0212L429.312 77.8125ZM430.312 75.2812V76.2812H436.031V75.2812V74.2812H430.312V75.2812ZM436.031 75.2812L435.034 75.2108C434.768 78.9758 433.946 81.449 432.742 82.8476L433.5 83.5L434.258 84.1524C435.887 82.2593 436.753 79.2534 437.029 75.3517L436.031 75.2812ZM433.5 83.5L432.737 82.8532C431.519 84.2896 430.073 84.9688 428.344 84.9688V85.9688V86.9688C430.698 86.9688 432.689 86.0021 434.263 84.1468L433.5 83.5ZM428.344 85.9688V84.9688C427.511 84.9688 426.662 84.8395 425.791 84.5746L425.5 85.5312L425.209 86.4879C426.255 86.8063 427.301 86.9688 428.344 86.9688V85.9688ZM425.5 85.5312L425.816 84.5826C424.906 84.2792 424.006 83.9353 423.115 83.5507L422.719 84.4688L422.322 85.3868C423.265 85.7939 424.219 86.1583 425.184 86.4799L425.5 85.5312ZM422.719 84.4688L423.115 83.5507C422.177 83.1455 421.267 82.7921 420.386 82.4912L420.062 83.4375L419.739 84.3838C420.566 84.6662 421.427 85.0003 422.322 85.3868L422.719 84.4688ZM420.062 83.4375L420.406 82.4984C419.458 82.1515 418.519 81.9688 417.594 81.9688V82.9688V83.9688C418.252 83.9688 418.959 84.0985 419.719 84.3766L420.062 83.4375ZM417.594 82.9688V81.9688C416.903 81.9688 416.283 82.2619 415.75 82.6879L416.375 83.4688L417 84.2496C417.301 84.0089 417.493 83.9688 417.594 83.9688V82.9688ZM416.375 83.4688L415.75 82.6879C415.343 83.0141 415.072 83.5003 414.877 83.986C414.673 84.4931 414.505 85.1172 414.363 85.838L415.344 86.0312L416.325 86.2245C416.454 85.5703 416.593 85.0798 416.732 84.7327C416.802 84.5606 416.865 84.4385 416.918 84.3557C416.972 84.2714 417.003 84.2469 417 84.2496L416.375 83.4688ZM415.344 86.0312V85.0312H409.719V86.0312V87.0312H415.344V86.0312ZM480.5 135V136H481.5V135H480.5ZM453.375 135H452.375V136H453.375V135ZM453.375 89.3125V88.3125H452.375V89.3125H453.375ZM480.5 89.3125H481.5V88.3125H480.5V89.3125ZM480.5 99.2188V100.219H481.5V99.2188H480.5ZM465.719 99.2188V98.2188H464.719V99.2188H465.719ZM465.719 106.406H464.719V107.406H465.719V106.406ZM479.406 106.406H480.406V105.406H479.406V106.406ZM479.406 116.312V117.312H480.406V116.312H479.406ZM465.719 116.312V115.312H464.719V116.312H465.719ZM465.719 124.938H464.719V125.938H465.719V124.938ZM480.5 124.938H481.5V123.938H480.5V124.938ZM480.5 135V134H453.375V135V136H480.5V135ZM453.375 135H454.375V89.3125H453.375H452.375V135H453.375ZM453.375 89.3125V90.3125H480.5V89.3125V88.3125H453.375V89.3125ZM480.5 89.3125H479.5V99.2188H480.5H481.5V89.3125H480.5ZM480.5 99.2188V98.2188H465.719V99.2188V100.219H480.5V99.2188ZM465.719 99.2188H464.719V106.406H465.719H466.719V99.2188H465.719ZM465.719 106.406V107.406H479.406V106.406V105.406H465.719V106.406ZM479.406 106.406H478.406V116.312H479.406H480.406V106.406H479.406ZM479.406 116.312V115.312H465.719V116.312V117.312H479.406V116.312ZM465.719 116.312H464.719V124.938H465.719H466.719V116.312H465.719ZM465.719 124.938V125.938H480.5V124.938V123.938H465.719V124.938ZM480.5 124.938H479.5V135H480.5H481.5V124.938H480.5ZM516.5 128.188L517.37 128.68L517.372 128.677L516.5 128.188ZM510.656 133.562L510.195 132.675L510.192 132.677L510.656 133.562ZM494.969 135.344L494.85 136.337L494.851 136.337L494.969 135.344ZM490.594 134.438L490.286 135.389L490.3 135.393L490.594 134.438ZM486.375 132.75H485.375V133.384L485.949 133.655L486.375 132.75ZM486.375 121.75L486.825 120.857L485.375 120.126V121.75H486.375ZM493.875 124.625L493.619 125.592L493.627 125.594L493.875 124.625ZM503.719 125.156L503.373 124.218L503.365 124.221L503.719 125.156ZM505.469 123.969L506.269 124.569L506.275 124.561L506.28 124.553L505.469 123.969ZM505.188 120.188L504.467 120.881L504.48 120.895L504.494 120.908L505.188 120.188ZM502.562 118.438L502.115 119.332L502.562 118.438ZM497.781 116.188L497.356 117.093L497.369 117.099L497.781 116.188ZM493.188 113.75L492.663 114.602L492.669 114.605L493.188 113.75ZM489.688 110.906L488.939 111.569L488.945 111.576L488.952 111.584L489.688 110.906ZM488.844 94.6562L488.036 94.0671L488.035 94.0686L488.844 94.6562ZM494.906 90.1562L494.548 89.2227L494.545 89.2237L494.906 90.1562ZM511.938 89.6562L511.667 90.619L511.669 90.6196L511.938 89.6562ZM518.375 91.9375L519.305 92.3063L519.657 91.4182L518.786 91.0258L518.375 91.9375ZM514.594 101.469L514.178 102.378L515.135 102.816L515.523 101.838L514.594 101.469ZM508.812 99.3438L508.538 100.305L508.548 100.308L508.812 99.3438ZM500.906 98.9375L501.257 99.8738L501.265 99.8709L501.273 99.8679L500.906 98.9375ZM499.406 99.9688L498.611 99.3627L498.601 99.375L498.593 99.3875L499.406 99.9688ZM499.75 103.375L499.03 104.069L499.036 104.075L499.043 104.082L499.75 103.375ZM502.531 105.219L502.073 106.107L502.081 106.112L502.09 106.116L502.531 105.219ZM507.875 107.75L507.455 108.658L507.466 108.662L507.875 107.75ZM513.562 111L512.964 111.801L512.971 111.806L513.562 111ZM517.125 115.156L516.231 115.603L516.234 115.61L516.238 115.617L517.125 115.156ZM518.375 121.125H517.375C517.375 123.427 516.797 125.614 515.628 127.698L516.5 128.188L517.372 128.677C518.703 126.303 519.375 123.781 519.375 121.125H518.375ZM516.5 128.188L515.63 127.695C514.491 129.707 512.7 131.373 510.195 132.675L510.656 133.562L511.117 134.45C513.904 133.002 516.009 131.085 517.37 128.68L516.5 128.188ZM510.656 133.562L510.192 132.677C507.757 133.952 504.536 134.625 500.469 134.625V135.625V136.625C504.735 136.625 508.306 135.923 511.12 134.448L510.656 133.562ZM500.469 135.625V134.625C498.414 134.625 496.621 134.532 495.086 134.351L494.969 135.344L494.851 136.337C496.483 136.53 498.357 136.625 500.469 136.625V135.625ZM494.969 135.344L495.088 134.351C493.578 134.17 492.179 133.879 490.888 133.482L490.594 134.438L490.3 135.393C491.717 135.829 493.234 136.143 494.85 136.337L494.969 135.344ZM490.594 134.438L490.901 133.486C489.593 133.063 488.226 132.517 486.801 131.845L486.375 132.75L485.949 133.655C487.441 134.358 488.887 134.937 490.286 135.389L490.594 134.438ZM486.375 132.75H487.375V121.75H486.375H485.375V132.75H486.375ZM486.375 121.75L485.925 122.643C488.462 123.922 491.027 124.906 493.619 125.592L493.875 124.625L494.131 123.658C491.681 123.01 489.246 122.078 486.825 120.857L486.375 121.75ZM493.875 124.625L493.627 125.594C496.208 126.255 498.574 126.594 500.719 126.594V125.594V124.594C498.78 124.594 496.584 124.287 494.123 123.656L493.875 124.625ZM500.719 125.594V126.594C502.015 126.594 503.148 126.442 504.073 126.092L503.719 125.156L503.365 124.221C502.748 124.454 501.881 124.594 500.719 124.594V125.594ZM503.719 125.156L504.064 126.095C504.975 125.759 505.744 125.268 506.269 124.569L505.469 123.969L504.669 123.369C504.443 123.669 504.045 123.97 503.373 124.218L503.719 125.156ZM505.469 123.969L506.28 124.553C506.783 123.855 507.031 123.055 507.031 122.188H506.031H505.031C505.031 122.653 504.905 123.041 504.657 123.384L505.469 123.969ZM506.031 122.188H507.031C507.031 121.128 506.642 120.2 505.881 119.467L505.188 120.188L504.494 120.908C504.858 121.258 505.031 121.663 505.031 122.188H506.031ZM505.188 120.188L505.908 119.494C505.25 118.811 504.257 118.167 503.01 117.543L502.562 118.438L502.115 119.332C503.285 119.917 504.042 120.439 504.467 120.881L505.188 120.188ZM502.562 118.438L503.01 117.543C501.785 116.931 500.178 116.175 498.194 115.276L497.781 116.188L497.369 117.099C499.342 117.992 500.923 118.736 502.115 119.332L502.562 118.438ZM497.781 116.188L498.206 115.282C496.546 114.503 495.046 113.707 493.706 112.895L493.188 113.75L492.669 114.605C494.079 115.459 495.642 116.288 497.357 117.093L497.781 116.188ZM493.188 113.75L493.712 112.898C492.428 112.108 491.334 111.217 490.423 110.229L489.688 110.906L488.952 111.584C489.999 112.72 491.239 113.725 492.663 114.602L493.188 113.75ZM489.688 110.906L490.436 110.244C489.566 109.26 488.889 108.11 488.409 106.784L487.469 107.125L486.529 107.466C487.09 109.015 487.892 110.386 488.939 111.569L489.688 110.906ZM487.469 107.125L488.409 106.784C487.937 105.482 487.688 103.904 487.688 102.031H486.688H485.688C485.688 104.075 485.959 105.893 486.529 107.466L487.469 107.125ZM486.688 102.031H487.688C487.688 99.2614 488.363 97.0202 489.653 95.2439L488.844 94.6562L488.035 94.0686C486.45 96.2507 485.688 98.9261 485.688 102.031H486.688ZM488.844 94.6562L489.652 95.2454C490.984 93.4184 492.841 92.0281 495.267 91.0888L494.906 90.1562L494.545 89.2237C491.805 90.2844 489.62 91.8941 488.036 94.0671L488.844 94.6562ZM494.906 90.1562L495.265 91.0898C497.733 90.1421 500.607 89.6562 503.906 89.6562V88.6562V87.6562C500.414 87.6562 497.288 88.1704 494.548 89.2227L494.906 90.1562ZM503.906 88.6562V89.6562C506.812 89.6562 509.396 89.9816 511.667 90.619L511.938 89.6562L512.208 88.6935C509.729 87.9976 506.959 87.6562 503.906 87.6562V88.6562ZM511.938 89.6562L511.669 90.6196C514.026 91.2753 516.122 92.0194 517.964 92.8492L518.375 91.9375L518.786 91.0258C516.836 90.1472 514.641 89.3706 512.206 88.6929L511.938 89.6562ZM518.375 91.9375L517.445 91.5687L513.664 101.1L514.594 101.469L515.523 101.838L519.305 92.3063L518.375 91.9375ZM514.594 101.469L515.01 100.559C513.007 99.6433 511.03 98.9158 509.077 98.3795L508.812 99.3438L508.548 100.308C510.387 100.813 512.264 101.503 514.178 102.378L514.594 101.469ZM508.812 99.3438L509.087 98.3822C507.12 97.8203 505.266 97.5312 503.531 97.5312V98.5312V99.5312C505.046 99.5312 506.713 99.7839 508.538 100.305L508.812 99.3438ZM503.531 98.5312V97.5312C502.394 97.5312 501.383 97.6748 500.54 98.0071L500.906 98.9375L501.273 99.8679C501.804 99.6585 502.544 99.5312 503.531 99.5312V98.5312ZM500.906 98.9375L500.555 98.0012C499.763 98.2981 499.087 98.7373 498.611 99.3627L499.406 99.9688L500.202 100.575C500.392 100.325 500.716 100.077 501.257 99.8738L500.906 98.9375ZM499.406 99.9688L498.593 99.3875C498.153 100.003 497.938 100.708 497.938 101.469H498.938H499.938C499.938 101.104 500.034 100.81 500.22 100.55L499.406 99.9688ZM498.938 101.469H497.938C497.938 102.463 498.329 103.341 499.03 104.069L499.75 103.375L500.47 102.681C500.088 102.284 499.938 101.891 499.938 101.469H498.938ZM499.75 103.375L499.043 104.082C499.715 104.755 500.752 105.426 502.073 106.107L502.531 105.219L502.99 104.33C501.727 103.679 500.91 103.12 500.457 102.668L499.75 103.375ZM502.531 105.219L502.09 106.116C503.413 106.767 505.202 107.614 507.455 108.657L507.875 107.75L508.295 106.843C506.048 105.802 504.275 104.962 502.973 104.321L502.531 105.219ZM507.875 107.75L507.466 108.662C509.644 109.64 511.473 110.688 512.964 111.801L513.562 111L514.161 110.199C512.527 108.979 510.564 107.86 508.284 106.838L507.875 107.75ZM513.562 111L512.971 111.806C514.414 112.865 515.494 114.13 516.231 115.603L517.125 115.156L518.019 114.709C517.131 112.933 515.836 111.427 514.154 110.194L513.562 111ZM517.125 115.156L516.238 115.617C516.977 117.041 517.375 118.862 517.375 121.125H518.375H519.375C519.375 118.638 518.939 116.479 518.012 114.695L517.125 115.156ZM534.969 118.875V119.875H535.916L535.967 118.929L534.969 118.875ZM524.656 118.875L523.658 118.929L523.709 119.875H524.656V118.875ZM523.062 89.3125V88.3125H522.007L522.064 89.3663L523.062 89.3125ZM536.562 89.3125L537.561 89.3663L537.618 88.3125H536.562V89.3125ZM525.125 125.156L524.561 124.33L524.555 124.335L525.125 125.156ZM525.125 134.375L524.538 135.184L524.544 135.189L525.125 134.375ZM534.969 118.875V117.875H524.656V118.875V119.875H534.969V118.875ZM524.656 118.875L525.655 118.821L524.061 89.2587L523.062 89.3125L522.064 89.3663L523.658 118.929L524.656 118.875ZM523.062 89.3125V90.3125H536.562V89.3125V88.3125H523.062V89.3125ZM536.562 89.3125L535.564 89.2587L533.97 118.821L534.969 118.875L535.967 118.929L537.561 89.3663L536.562 89.3125ZM523.188 129.812H524.188C524.188 127.789 524.772 126.618 525.695 125.978L525.125 125.156L524.555 124.335C522.895 125.486 522.188 127.42 522.188 129.812H523.188ZM525.125 125.156L525.689 125.982C526.814 125.214 528.164 124.812 529.781 124.812V123.812V122.812C527.815 122.812 526.061 123.307 524.561 124.33L525.125 125.156ZM529.781 123.812V124.812C531.376 124.812 532.688 125.213 533.768 125.974L534.344 125.156L534.92 124.339C533.458 123.308 531.729 122.812 529.781 122.812V123.812ZM534.344 125.156L533.768 125.974C534.672 126.611 535.25 127.783 535.25 129.812H536.25H537.25C537.25 127.425 536.557 125.493 534.92 124.339L534.344 125.156ZM536.25 129.812H535.25C535.25 131.714 534.685 132.88 533.75 133.57L534.344 134.375L534.937 135.18C536.544 133.995 537.25 132.119 537.25 129.812H536.25ZM534.344 134.375L533.75 133.57C532.672 134.366 531.366 134.781 529.781 134.781V135.781V136.781C531.739 136.781 533.474 136.259 534.937 135.18L534.344 134.375ZM529.781 135.781V134.781C528.174 134.781 526.83 134.364 525.706 133.561L525.125 134.375L524.544 135.189C526.045 136.261 527.805 136.781 529.781 136.781V135.781ZM525.125 134.375L525.712 133.566C524.759 132.874 524.188 131.708 524.188 129.812H523.188H522.188C522.188 132.125 522.908 134.001 524.538 135.184L525.125 134.375Z" fill="#252E40" mask="url(#path-1-outside-1_21_4904)"/>
</svg>
