<svg width="616" height="220" viewBox="0 0 616 220" fill="none" xmlns="http://www.w3.org/2000/svg">
<g clip-path="url(#clip0_253_100)">
<path d="M615.24 218.233V219.948H538.078C538.078 234.694 520.93 246.697 499.668 246.697C478.405 246.697 461.258 234.694 461.258 219.948H384.439C384.439 234.694 367.292 246.697 346.029 246.697C324.767 246.697 307.62 234.694 307.62 219.948H230.801C230.801 234.694 213.653 246.697 192.391 246.697C171.129 246.697 153.981 234.694 153.981 219.948H76.819C76.819 234.694 59.672 246.697 38.409 246.697C17.148 246.697 0 234.694 0 219.948H76.819L76.82 218.233C76.82 203.486 94.31 191.484 115.572 191.484C136.834 191.484 153.981 203.486 153.981 218.233V219.948H230.801V218.233C230.801 203.486 247.948 191.484 269.21 191.484C290.473 191.484 307.62 203.486 307.62 218.233V219.948H384.439V218.233C384.439 203.486 401.586 191.484 422.849 191.484C444.111 191.484 461.258 203.486 461.258 218.233V219.948H538.078V218.233C538.078 203.486 555.568 191.484 576.83 191.484C598.093 191.484 615.24 203.486 615.24 218.233Z" fill="black"/>
<path d="M615.24 163.362V165.077H538.078C538.078 179.823 520.93 191.826 499.668 191.826C478.405 191.826 461.258 179.823 461.258 165.077H384.439C384.439 179.823 367.292 191.826 346.029 191.826C324.767 191.826 307.62 179.823 307.62 165.077H230.801C230.801 179.823 213.653 191.826 192.391 191.826C171.129 191.826 153.981 179.823 153.981 165.077H76.819C76.819 179.823 59.672 191.826 38.409 191.826C17.148 191.826 0 179.823 0 165.077H76.819L76.82 163.362C76.82 148.616 94.31 136.613 115.572 136.613C136.834 136.613 153.981 148.616 153.981 163.362V165.077H230.801V163.362C230.801 148.616 247.948 136.613 269.21 136.613C290.473 136.613 307.62 148.616 307.62 163.362V165.077H384.439V163.362C384.439 148.616 401.586 136.613 422.849 136.613C444.111 136.613 461.258 148.616 461.258 163.362V165.077H538.078V163.362C538.078 148.616 555.568 136.613 576.83 136.613C598.093 136.613 615.24 148.616 615.24 163.362Z" fill="black"/>
<path d="M615.24 108.491V110.206H538.078C538.078 124.953 520.93 136.956 499.668 136.956C478.405 136.956 461.258 124.953 461.258 110.206H384.439C384.439 124.953 367.292 136.956 346.029 136.956C324.767 136.956 307.62 124.953 307.62 110.206H230.801C230.801 124.953 213.653 136.956 192.391 136.956C171.129 136.956 153.981 124.953 153.981 110.206H76.819C76.819 124.953 59.672 136.956 38.409 136.956C17.148 136.956 0 124.953 0 110.206H76.819L76.82 108.491C76.82 93.745 94.31 81.741 115.572 81.741C136.834 81.741 153.981 93.745 153.981 108.491V110.206H230.801V108.491C230.801 93.745 247.948 81.741 269.21 81.741C290.473 81.741 307.62 93.745 307.62 108.491V110.206H384.439V108.491C384.439 93.745 401.586 81.741 422.849 81.741C444.111 81.741 461.258 93.745 461.258 108.491V110.206H538.078V108.491C538.078 93.745 555.568 81.741 576.83 81.741C598.093 81.741 615.24 93.745 615.24 108.491Z" fill="black"/>
<path d="M615.24 53.62V55.335H538.078C538.078 70.082 520.93 82.085 499.668 82.085C478.405 82.085 461.258 70.082 461.258 55.335H384.439C384.439 70.082 367.292 82.085 346.029 82.085C324.767 82.085 307.62 70.082 307.62 55.335H230.801C230.801 70.082 213.653 82.085 192.391 82.085C171.129 82.085 153.981 70.082 153.981 55.335H76.819C76.819 70.082 59.672 82.085 38.409 82.085C17.148 82.085 0 70.082 0 55.335H76.819L76.82 53.62C76.82 38.874 94.31 26.87 115.572 26.87C136.834 26.87 153.981 38.874 153.981 53.62V55.335H230.801V53.62C230.801 38.874 247.948 26.87 269.21 26.87C290.473 26.87 307.62 38.874 307.62 53.62V55.335H384.439V53.62C384.439 38.874 401.586 26.87 422.849 26.87C444.111 26.87 461.258 38.874 461.258 53.62V55.335H538.078V53.62C538.078 38.874 555.568 26.87 576.83 26.87C598.093 26.87 615.24 38.874 615.24 53.62Z" fill="black"/>
<path d="M615.24 -1.25V0.464001H538.078C538.078 15.211 520.93 27.214 499.668 27.214C478.405 27.214 461.258 15.211 461.258 0.464001H384.439C384.439 15.211 367.292 27.214 346.029 27.214C324.767 27.214 307.62 15.211 307.62 0.464001H230.801C230.801 15.211 213.653 27.214 192.391 27.214C171.129 27.214 153.981 15.211 153.981 0.464001H76.819C76.819 15.211 59.672 27.214 38.409 27.214C17.148 27.214 0 15.21 0 0.464001H76.819L76.82 -1.25C76.82 -15.997 94.31 -28 115.571 -28C136.833 -28 153.98 -15.997 153.98 -1.25V0.464001H230.801L230.8 -1.25C230.8 -15.997 247.947 -28 269.209 -28C290.472 -28 307.619 -15.997 307.619 -1.25V0.464001H384.438V-1.25C384.438 -15.997 401.585 -28 422.848 -28C444.11 -28 461.257 -15.997 461.257 -1.25V0.464001H538.078L538.077 -1.25C538.077 -15.997 555.567 -28 576.829 -28C598.092 -28 615.24 -15.997 615.24 -1.25Z" fill="black"/>
</g>
<defs>
<clipPath id="clip0_253_100">
<rect width="616" height="220" fill="white"/>
</clipPath>
</defs>
</svg>
