<svg width="554" height="150" viewBox="0 0 554 150" fill="none" xmlns="http://www.w3.org/2000/svg">
<path d="M0.9375 47V1.3125H13.3438V47H0.9375ZM43.1562 47L33.8125 14.0938H33.5312C33.6146 14.9479 33.6979 16.1042 33.7812 17.5625C33.8854 19.0208 33.9792 20.5938 34.0625 22.2812C34.1458 23.9688 34.1875 25.5938 34.1875 27.1562V47H23.25V1.3125H39.6875L49.2188 33.75H49.4688L58.8125 1.3125H75.2812V47H63.9375V26.9688C63.9375 25.5312 63.9583 23.9896 64 22.3438C64.0625 20.6771 64.125 19.1146 64.1875 17.6562C64.2708 16.1771 64.3438 15.0104 64.4062 14.1562H64.125L54.9062 47H43.1562ZM100.938 1.3125C106.729 1.3125 111.062 2.57292 113.938 5.09375C116.833 7.61458 118.281 11.1979 118.281 15.8438C118.281 17.9271 117.979 19.9271 117.375 21.8438C116.792 23.7604 115.823 25.4688 114.469 26.9688C113.135 28.4688 111.354 29.6562 109.125 30.5312C106.917 31.4062 104.188 31.8438 100.938 31.8438H97.4688V47H85.125V1.3125H100.938ZM100.656 11.2812H97.4688V21.7812H99.9062C100.969 21.7812 101.958 21.6042 102.875 21.25C103.792 20.875 104.521 20.2812 105.062 19.4688C105.625 18.6354 105.906 17.5312 105.906 16.1562C105.906 14.7188 105.479 13.5521 104.625 12.6562C103.771 11.7396 102.448 11.2812 100.656 11.2812ZM164.406 1.3125V28.8125C164.406 32.6458 163.677 35.9792 162.219 38.8125C160.76 41.625 158.573 43.8021 155.656 45.3438C152.74 46.8646 149.083 47.625 144.688 47.625C138.396 47.625 133.594 46.0104 130.281 42.7812C126.969 39.5521 125.312 34.9896 125.312 29.0938V1.3125H137.719V28.125C137.719 31.3542 138.323 33.6979 139.531 35.1562C140.74 36.6146 142.521 37.3438 144.875 37.3438C146.562 37.3438 147.938 37.0312 149 36.4062C150.062 35.7604 150.833 34.75 151.312 33.375C151.812 32 152.062 30.2292 152.062 28.0625V1.3125H164.406ZM174 47V1.3125H186.344V37.0312H203.938V47H174ZM241.125 33.125C241.125 35.6042 240.5 37.9583 239.25 40.1875C238 42.3958 236.052 44.1875 233.406 45.5625C230.781 46.9375 227.385 47.625 223.219 47.625C221.135 47.625 219.302 47.5312 217.719 47.3438C216.156 47.1562 214.698 46.8542 213.344 46.4375C211.99 46 210.583 45.4375 209.125 44.75V33.75C211.604 35 214.104 35.9583 216.625 36.625C219.146 37.2708 221.427 37.5938 223.469 37.5938C224.698 37.5938 225.698 37.4479 226.469 37.1562C227.26 36.8646 227.844 36.4688 228.219 35.9688C228.594 35.4479 228.781 34.8542 228.781 34.1875C228.781 33.3958 228.5 32.7292 227.938 32.1875C227.396 31.625 226.521 31.0417 225.312 30.4375C224.104 29.8333 222.51 29.0833 220.531 28.1875C218.844 27.3958 217.312 26.5833 215.938 25.75C214.583 24.9167 213.417 23.9688 212.438 22.9062C211.479 21.8229 210.74 20.5625 210.219 19.125C209.698 17.6875 209.438 15.9896 209.438 14.0312C209.438 11.0938 210.156 8.63542 211.594 6.65625C213.052 4.65625 215.073 3.15625 217.656 2.15625C220.26 1.15625 223.26 0.65625 226.656 0.65625C229.635 0.65625 232.312 0.989583 234.688 1.65625C237.083 2.32292 239.229 3.08333 241.125 3.9375L237.344 13.4688C235.385 12.5729 233.458 11.8646 231.562 11.3438C229.667 10.8021 227.906 10.5312 226.281 10.5312C225.219 10.5312 224.344 10.6667 223.656 10.9375C222.99 11.1875 222.49 11.5312 222.156 11.9688C221.844 12.4062 221.688 12.9062 221.688 13.4688C221.688 14.1771 221.958 14.8125 222.5 15.375C223.062 15.9375 223.99 16.5521 225.281 17.2188C226.594 17.8646 228.375 18.7083 230.625 19.75C232.854 20.75 234.75 21.8333 236.312 23C237.875 24.1458 239.062 25.5312 239.875 27.1562C240.708 28.7604 241.125 30.75 241.125 33.125ZM248.188 47V1.3125H260.594V47H248.188ZM313.25 24.0938C313.25 27.6146 312.823 30.8229 311.969 33.7188C311.135 36.5938 309.823 39.0729 308.031 41.1562C306.24 43.2396 303.938 44.8438 301.125 45.9688C298.312 47.0729 294.948 47.625 291.031 47.625C287.198 47.625 283.875 47.0729 281.062 45.9688C278.271 44.8438 275.969 43.25 274.156 41.1875C272.344 39.1042 271 36.6146 270.125 33.7188C269.25 30.8229 268.812 27.5938 268.812 24.0312C268.812 19.2812 269.594 15.1562 271.156 11.6562C272.74 8.13542 275.177 5.41667 278.469 3.5C281.76 1.5625 285.969 0.59375 291.094 0.59375C296.302 0.59375 300.531 1.5625 303.781 3.5C307.052 5.4375 309.448 8.16667 310.969 11.6875C312.49 15.2083 313.25 19.3438 313.25 24.0938ZM281.812 24.0938C281.812 26.8438 282.125 29.2083 282.75 31.1875C283.375 33.1667 284.365 34.6875 285.719 35.75C287.073 36.8125 288.844 37.3438 291.031 37.3438C293.302 37.3438 295.104 36.8125 296.438 35.75C297.792 34.6875 298.76 33.1667 299.344 31.1875C299.948 29.2083 300.25 26.8438 300.25 24.0938C300.25 19.9688 299.562 16.7083 298.188 14.3125C296.812 11.9167 294.448 10.7188 291.094 10.7188C288.865 10.7188 287.062 11.2604 285.688 12.3438C284.333 13.4271 283.344 14.9688 282.719 16.9688C282.115 18.9688 281.812 21.3438 281.812 24.0938ZM365 47H348.812L332.125 14.8125H331.844C331.948 15.7917 332.042 16.9688 332.125 18.3438C332.208 19.7188 332.281 21.125 332.344 22.5625C332.406 23.9792 332.438 25.2604 332.438 26.4062V47H321.5V1.3125H337.625L354.25 33.0625H354.438C354.375 32.0625 354.312 30.9062 354.25 29.5938C354.188 28.2604 354.125 26.9167 354.062 25.5625C354.021 24.2083 354 23.0104 354 21.9688V1.3125H365V47ZM402 47H374.875V1.3125H402V11.2188H387.219V18.4062H400.906V28.3125H387.219V36.9375H402V47ZM456.5 33.125C456.5 35.6042 455.875 37.9583 454.625 40.1875C453.375 42.3958 451.427 44.1875 448.781 45.5625C446.156 46.9375 442.76 47.625 438.594 47.625C436.51 47.625 434.677 47.5312 433.094 47.3438C431.531 47.1562 430.073 46.8542 428.719 46.4375C427.365 46 425.958 45.4375 424.5 44.75V33.75C426.979 35 429.479 35.9583 432 36.625C434.521 37.2708 436.802 37.5938 438.844 37.5938C440.073 37.5938 441.073 37.4479 441.844 37.1562C442.635 36.8646 443.219 36.4688 443.594 35.9688C443.969 35.4479 444.156 34.8542 444.156 34.1875C444.156 33.3958 443.875 32.7292 443.312 32.1875C442.771 31.625 441.896 31.0417 440.688 30.4375C439.479 29.8333 437.885 29.0833 435.906 28.1875C434.219 27.3958 432.688 26.5833 431.312 25.75C429.958 24.9167 428.792 23.9688 427.812 22.9062C426.854 21.8229 426.115 20.5625 425.594 19.125C425.073 17.6875 424.812 15.9896 424.812 14.0312C424.812 11.0938 425.531 8.63542 426.969 6.65625C428.427 4.65625 430.448 3.15625 433.031 2.15625C435.635 1.15625 438.635 0.65625 442.031 0.65625C445.01 0.65625 447.688 0.989583 450.062 1.65625C452.458 2.32292 454.604 3.08333 456.5 3.9375L452.719 13.4688C450.76 12.5729 448.833 11.8646 446.938 11.3438C445.042 10.8021 443.281 10.5312 441.656 10.5312C440.594 10.5312 439.719 10.6667 439.031 10.9375C438.365 11.1875 437.865 11.5312 437.531 11.9688C437.219 12.4062 437.062 12.9062 437.062 13.4688C437.062 14.1771 437.333 14.8125 437.875 15.375C438.438 15.9375 439.365 16.5521 440.656 17.2188C441.969 17.8646 443.75 18.7083 446 19.75C448.229 20.75 450.125 21.8333 451.688 23C453.25 24.1458 454.438 25.5312 455.25 27.1562C456.083 28.7604 456.5 30.75 456.5 33.125ZM502.406 1.3125V28.8125C502.406 32.6458 501.677 35.9792 500.219 38.8125C498.76 41.625 496.573 43.8021 493.656 45.3438C490.74 46.8646 487.083 47.625 482.688 47.625C476.396 47.625 471.594 46.0104 468.281 42.7812C464.969 39.5521 463.312 34.9896 463.312 29.0938V1.3125H475.719V28.125C475.719 31.3542 476.323 33.6979 477.531 35.1562C478.74 36.6146 480.521 37.3438 482.875 37.3438C484.562 37.3438 485.938 37.0312 487 36.4062C488.062 35.7604 488.833 34.75 489.312 33.375C489.812 32 490.062 30.2292 490.062 28.0625V1.3125H502.406ZM540.031 47L537.781 38.4375H522.938L520.625 47H507.062L521.969 1.125H538.438L553.531 47H540.031ZM535.219 28.3125L533.25 20.8125C533.042 20 532.74 18.8438 532.344 17.3438C531.948 15.8229 531.552 14.2604 531.156 12.6562C530.781 11.0312 530.49 9.69792 530.281 8.65625C530.094 9.69792 529.823 10.9896 529.469 12.5312C529.135 14.0521 528.781 15.5625 528.406 17.0625C528.052 18.5625 527.74 19.8125 527.469 20.8125L525.5 28.3125H535.219ZM15.9062 88.3125C20.0521 88.3125 23.5 88.8229 26.25 89.8438C29 90.8438 31.0625 92.3438 32.4375 94.3438C33.8333 96.3438 34.5312 98.8333 34.5312 101.812C34.5312 103.667 34.2188 105.354 33.5938 106.875C32.9688 108.396 32.0729 109.76 30.9062 110.969C29.7604 112.156 28.3854 113.198 26.7812 114.094L40.0938 134H26.0938L16.4062 117.375H13.2812V134H0.9375V88.3125H15.9062ZM15.7188 97.6562H13.2812V108.094H15.5938C17.4896 108.094 19.0417 107.677 20.25 106.844C21.4583 106.01 22.0625 104.521 22.0625 102.375C22.0625 100.896 21.5625 99.7396 20.5625 98.9062C19.5625 98.0729 17.9479 97.6562 15.7188 97.6562ZM71.375 134H44.25V88.3125H71.375V98.2188H56.5938V105.406H70.2812V115.312H56.5938V123.938H71.375V134ZM99.7188 97.7812C98.2604 97.7812 96.9583 98.0938 95.8125 98.7188C94.6667 99.3229 93.6875 100.208 92.875 101.375C92.0625 102.542 91.4375 103.969 91 105.656C90.5833 107.323 90.375 109.219 90.375 111.344C90.375 114.219 90.7396 116.635 91.4688 118.594C92.1979 120.552 93.3021 122.031 94.7812 123.031C96.2812 124.031 98.1562 124.531 100.406 124.531C102.448 124.531 104.406 124.25 106.281 123.688C108.177 123.125 110.083 122.448 112 121.656V132.094C109.979 132.99 107.906 133.635 105.781 134.031C103.677 134.427 101.438 134.625 99.0625 134.625C94.1042 134.625 90.0417 133.646 86.875 131.688C83.7292 129.708 81.4062 126.969 79.9062 123.469C78.4271 119.969 77.6875 115.906 77.6875 111.281C77.6875 107.823 78.1667 104.656 79.125 101.781C80.1042 98.9062 81.5312 96.4167 83.4062 94.3125C85.2812 92.1875 87.5938 90.5521 90.3438 89.4062C93.1146 88.2396 96.2812 87.6562 99.8438 87.6562C102.052 87.6562 104.375 87.9167 106.812 88.4375C109.271 88.9375 111.667 89.75 114 90.875L110.219 100.594C108.552 99.8021 106.865 99.1354 105.156 98.5938C103.448 98.0521 101.635 97.7812 99.7188 97.7812ZM163.688 111.094C163.688 114.615 163.26 117.823 162.406 120.719C161.573 123.594 160.26 126.073 158.469 128.156C156.677 130.24 154.375 131.844 151.562 132.969C148.75 134.073 145.385 134.625 141.469 134.625C137.635 134.625 134.312 134.073 131.5 132.969C128.708 131.844 126.406 130.25 124.594 128.188C122.781 126.104 121.438 123.615 120.562 120.719C119.688 117.823 119.25 114.594 119.25 111.031C119.25 106.281 120.031 102.156 121.594 98.6562C123.177 95.1354 125.615 92.4167 128.906 90.5C132.198 88.5625 136.406 87.5938 141.531 87.5938C146.74 87.5938 150.969 88.5625 154.219 90.5C157.49 92.4375 159.885 95.1667 161.406 98.6875C162.927 102.208 163.688 106.344 163.688 111.094ZM132.25 111.094C132.25 113.844 132.562 116.208 133.188 118.188C133.812 120.167 134.802 121.688 136.156 122.75C137.51 123.812 139.281 124.344 141.469 124.344C143.74 124.344 145.542 123.812 146.875 122.75C148.229 121.688 149.198 120.167 149.781 118.188C150.385 116.208 150.688 113.844 150.688 111.094C150.688 106.969 150 103.708 148.625 101.312C147.25 98.9167 144.885 97.7188 141.531 97.7188C139.302 97.7188 137.5 98.2604 136.125 99.3438C134.771 100.427 133.781 101.969 133.156 103.969C132.552 105.969 132.25 108.344 132.25 111.094ZM171.938 134V88.3125H184.281V124.031H201.875V134H171.938ZM251.938 111.094C251.938 114.615 251.51 117.823 250.656 120.719C249.823 123.594 248.51 126.073 246.719 128.156C244.927 130.24 242.625 131.844 239.812 132.969C237 134.073 233.635 134.625 229.719 134.625C225.885 134.625 222.562 134.073 219.75 132.969C216.958 131.844 214.656 130.25 212.844 128.188C211.031 126.104 209.688 123.615 208.812 120.719C207.938 117.823 207.5 114.594 207.5 111.031C207.5 106.281 208.281 102.156 209.844 98.6562C211.427 95.1354 213.865 92.4167 217.156 90.5C220.448 88.5625 224.656 87.5938 229.781 87.5938C234.99 87.5938 239.219 88.5625 242.469 90.5C245.74 92.4375 248.135 95.1667 249.656 98.6875C251.177 102.208 251.938 106.344 251.938 111.094ZM220.5 111.094C220.5 113.844 220.812 116.208 221.438 118.188C222.062 120.167 223.052 121.688 224.406 122.75C225.76 123.812 227.531 124.344 229.719 124.344C231.99 124.344 233.792 123.812 235.125 122.75C236.479 121.688 237.448 120.167 238.031 118.188C238.635 116.208 238.938 113.844 238.938 111.094C238.938 106.969 238.25 103.708 236.875 101.312C235.5 98.9167 233.135 97.7188 229.781 97.7188C227.552 97.7188 225.75 98.2604 224.375 99.3438C223.021 100.427 222.031 101.969 221.406 103.969C220.802 105.969 220.5 108.344 220.5 111.094ZM280.531 97.7812C279.073 97.7812 277.771 98.0938 276.625 98.7188C275.479 99.3229 274.5 100.208 273.688 101.375C272.875 102.542 272.25 103.969 271.812 105.656C271.396 107.323 271.188 109.219 271.188 111.344C271.188 114.219 271.552 116.635 272.281 118.594C273.01 120.552 274.115 122.031 275.594 123.031C277.094 124.031 278.969 124.531 281.219 124.531C283.26 124.531 285.219 124.25 287.094 123.688C288.99 123.125 290.896 122.448 292.812 121.656V132.094C290.792 132.99 288.719 133.635 286.594 134.031C284.49 134.427 282.25 134.625 279.875 134.625C274.917 134.625 270.854 133.646 267.688 131.688C264.542 129.708 262.219 126.969 260.719 123.469C259.24 119.969 258.5 115.906 258.5 111.281C258.5 107.823 258.979 104.656 259.938 101.781C260.917 98.9062 262.344 96.4167 264.219 94.3125C266.094 92.1875 268.406 90.5521 271.156 89.4062C273.927 88.2396 277.094 87.6562 280.656 87.6562C282.865 87.6562 285.188 87.9167 287.625 88.4375C290.083 88.9375 292.479 89.75 294.812 90.875L291.031 100.594C289.365 99.8021 287.677 99.1354 285.969 98.5938C284.26 98.0521 282.448 97.7812 280.531 97.7812ZM329.781 134L327.531 125.438H312.688L310.375 134H296.812L311.719 88.125H328.188L343.281 134H329.781ZM324.969 115.312L323 107.812C322.792 107 322.49 105.844 322.094 104.344C321.698 102.823 321.302 101.26 320.906 99.6562C320.531 98.0312 320.24 96.6979 320.031 95.6562C319.844 96.6979 319.573 97.9896 319.219 99.5312C318.885 101.052 318.531 102.562 318.156 104.062C317.802 105.562 317.49 106.812 317.219 107.812L315.25 115.312H324.969ZM368.594 97.7812C367.135 97.7812 365.833 98.0938 364.688 98.7188C363.542 99.3229 362.562 100.208 361.75 101.375C360.938 102.542 360.312 103.969 359.875 105.656C359.458 107.323 359.25 109.219 359.25 111.344C359.25 114.219 359.615 116.635 360.344 118.594C361.073 120.552 362.177 122.031 363.656 123.031C365.156 124.031 367.031 124.531 369.281 124.531C371.323 124.531 373.281 124.25 375.156 123.688C377.052 123.125 378.958 122.448 380.875 121.656V132.094C378.854 132.99 376.781 133.635 374.656 134.031C372.552 134.427 370.312 134.625 367.938 134.625C362.979 134.625 358.917 133.646 355.75 131.688C352.604 129.708 350.281 126.969 348.781 123.469C347.302 119.969 346.562 115.906 346.562 111.281C346.562 107.823 347.042 104.656 348 101.781C348.979 98.9062 350.406 96.4167 352.281 94.3125C354.156 92.1875 356.469 90.5521 359.219 89.4062C361.99 88.2396 365.156 87.6562 368.719 87.6562C370.927 87.6562 373.25 87.9167 375.688 88.4375C378.146 88.9375 380.542 89.75 382.875 90.875L379.094 100.594C377.427 99.8021 375.74 99.1354 374.031 98.5938C372.323 98.0521 370.51 97.7812 368.594 97.7812ZM374.938 141.875C374.938 144.146 374.156 145.958 372.594 147.312C371.031 148.688 368.948 149.375 366.344 149.375C364.885 149.375 363.562 149.26 362.375 149.031C361.188 148.802 360.208 148.552 359.438 148.281V142.25C360.146 142.479 360.833 142.656 361.5 142.781C362.188 142.906 362.885 142.969 363.594 142.969C364.385 142.969 365.01 142.802 365.469 142.469C365.927 142.135 366.156 141.698 366.156 141.156C366.156 140.427 365.802 139.844 365.094 139.406C364.406 138.99 363.25 138.635 361.625 138.344L363.531 134H369.625L369.031 135.906C369.885 136.094 370.771 136.396 371.688 136.812C372.604 137.229 373.375 137.833 374 138.625C374.625 139.417 374.938 140.5 374.938 141.875ZM417.844 134L415.594 125.438H400.75L398.438 134H384.875L399.781 88.125H416.25L431.344 134H417.844ZM413.031 115.312L411.062 107.812C410.854 107 410.552 105.844 410.156 104.344C409.76 102.823 409.365 101.26 408.969 99.6562C408.594 98.0312 408.302 96.6979 408.094 95.6562C407.906 96.6979 407.635 97.9896 407.281 99.5312C406.948 101.052 406.594 102.562 406.219 104.062C405.865 105.562 405.552 106.812 405.281 107.812L403.312 115.312H413.031ZM394.875 85.0312C395 83.0729 395.26 81.4167 395.656 80.0625C396.073 78.7083 396.604 77.6146 397.25 76.7812C397.917 75.9271 398.708 75.3125 399.625 74.9375C400.562 74.5417 401.604 74.3438 402.75 74.3438C403.542 74.3438 404.385 74.5 405.281 74.8125C406.177 75.1042 407.083 75.4479 408 75.8438C408.917 76.2396 409.812 76.5938 410.688 76.9062C411.583 77.1979 412.438 77.3438 413.25 77.3438C413.625 77.3438 414.031 77.1667 414.469 76.8125C414.927 76.4583 415.26 75.6146 415.469 74.2812H421.188C420.917 78.1146 420.073 80.8542 418.656 82.5C417.26 84.1458 415.542 84.9688 413.5 84.9688C412.562 84.9688 411.615 84.8229 410.656 84.5312C409.719 84.2188 408.792 83.8646 407.875 83.4688C406.958 83.0729 406.073 82.7292 405.219 82.4375C404.365 82.125 403.542 81.9688 402.75 81.9688C402.354 81.9688 401.948 82.1354 401.531 82.4688C401.115 82.8021 400.771 83.6562 400.5 85.0312H394.875ZM479.062 111.094C479.062 114.615 478.635 117.823 477.781 120.719C476.948 123.594 475.635 126.073 473.844 128.156C472.052 130.24 469.75 131.844 466.938 132.969C464.125 134.073 460.76 134.625 456.844 134.625C453.01 134.625 449.688 134.073 446.875 132.969C444.083 131.844 441.781 130.25 439.969 128.188C438.156 126.104 436.812 123.615 435.938 120.719C435.062 117.823 434.625 114.594 434.625 111.031C434.625 106.281 435.406 102.156 436.969 98.6562C438.552 95.1354 440.99 92.4167 444.281 90.5C447.573 88.5625 451.781 87.5938 456.906 87.5938C462.115 87.5938 466.344 88.5625 469.594 90.5C472.865 92.4375 475.26 95.1667 476.781 98.6875C478.302 102.208 479.062 106.344 479.062 111.094ZM447.625 111.094C447.625 113.844 447.938 116.208 448.562 118.188C449.188 120.167 450.177 121.688 451.531 122.75C452.885 123.812 454.656 124.344 456.844 124.344C459.115 124.344 460.917 123.812 462.25 122.75C463.604 121.688 464.573 120.167 465.156 118.188C465.76 116.208 466.062 113.844 466.062 111.094C466.062 106.969 465.375 103.708 464 101.312C462.625 98.9167 460.26 97.7188 456.906 97.7188C454.677 97.7188 452.875 98.2604 451.5 99.3438C450.146 100.427 449.156 101.969 448.531 103.969C447.927 105.969 447.625 108.344 447.625 111.094ZM496.844 117.875H486.531L484.938 88.3125H498.438L496.844 117.875ZM485.062 128.812C485.062 126.604 485.708 125.052 487 124.156C488.312 123.26 489.865 122.812 491.656 122.812C493.427 122.812 494.948 123.26 496.219 124.156C497.49 125.052 498.125 126.604 498.125 128.812C498.125 130.917 497.49 132.438 496.219 133.375C494.948 134.312 493.427 134.781 491.656 134.781C489.865 134.781 488.312 134.312 487 133.375C485.708 132.438 485.062 130.917 485.062 128.812Z" fill="#252E40"/>
</svg>
